<?xml version="1.0" encoding="UTF-8"?>
<svg xmlns="http://www.w3.org/2000/svg" xmlns:xlink="http://www.w3.org/1999/xlink" viewBox="0 0 50.15 45.04">
  <defs>
    <style>
      .cls-1 {
        fill: #008c26;
      }

      .cls-1, .cls-2, .cls-3, .cls-4, .cls-5, .cls-6, .cls-7, .cls-8, .cls-9 {
        mix-blend-mode: multiply;
        opacity: .67;
      }

      .cls-10 {
        fill: url(#radial-gradient-7);
      }

      .cls-11 {
        fill: url(#radial-gradient-6);
      }

      .cls-12 {
        fill: url(#radial-gradient-5);
      }

      .cls-13 {
        fill: url(#radial-gradient-4);
      }

      .cls-14 {
        fill: url(#radial-gradient-9);
      }

      .cls-15 {
        fill: url(#radial-gradient-8);
      }

      .cls-16 {
        fill: url(#radial-gradient-3);
      }

      .cls-17 {
        fill: url(#radial-gradient-2);
      }

      .cls-18 {
        fill: url(#linear-gradient-8);
      }

      .cls-19 {
        fill: url(#linear-gradient-5);
      }

      .cls-20 {
        fill: url(#linear-gradient-9);
      }

      .cls-21 {
        fill: url(#linear-gradient-4);
      }

      .cls-22 {
        mix-blend-mode: overlay;
      }

      .cls-22, .cls-23, .cls-24 {
        fill: #fff;
      }

      .cls-25 {
        fill: url(#radial-gradient);
      }

      .cls-26 {
        fill: url(#linear-gradient);
      }

      .cls-23 {
        opacity: .57;
      }

      .cls-27 {
        fill: #74d1ed;
      }

      .cls-28 {
        isolation: isolate;
      }

      .cls-2 {
        fill: url(#linear-gradient-7);
      }

      .cls-3 {
        fill: url(#linear-gradient-6);
      }

      .cls-4 {
        fill: url(#linear-gradient-2);
      }

      .cls-5 {
        fill: url(#linear-gradient-3);
      }

      .cls-29 {
        fill: url(#radial-gradient-12);
      }

      .cls-30 {
        fill: url(#radial-gradient-13);
      }

      .cls-31 {
        fill: url(#radial-gradient-10);
      }

      .cls-32 {
        fill: url(#radial-gradient-11);
      }

      .cls-33 {
        fill: #0f6473;
      }

      .cls-34 {
        fill: #2f6e1f;
      }

      .cls-35 {
        fill: #0c7699;
      }

      .cls-36 {
        fill: url(#linear-gradient-12);
      }

      .cls-37 {
        fill: url(#linear-gradient-13);
      }

      .cls-38 {
        fill: url(#linear-gradient-19);
      }

      .cls-39 {
        fill: url(#linear-gradient-21);
      }

      .cls-40 {
        fill: url(#linear-gradient-20);
      }

      .cls-41 {
        fill: url(#linear-gradient-22);
      }

      .cls-42 {
        fill: url(#linear-gradient-23);
      }

      .cls-43 {
        fill: url(#linear-gradient-25);
      }

      .cls-44 {
        fill: url(#linear-gradient-16);
      }

      .cls-45 {
        fill: url(#linear-gradient-17);
      }

      .cls-46 {
        fill: url(#linear-gradient-18);
      }

      .cls-47 {
        fill: url(#linear-gradient-24);
      }

      .cls-6 {
        fill: url(#linear-gradient-15);
      }

      .cls-7 {
        fill: url(#linear-gradient-14);
      }

      .cls-8 {
        fill: url(#linear-gradient-10);
      }

      .cls-9 {
        fill: url(#linear-gradient-11);
      }

      .cls-48 {
        fill: #b7f4ff;
      }
    </style>
    <linearGradient id="linear-gradient" x1="1021.37" y1="736.15" x2="1040.37" y2="736.15" gradientTransform="translate(-144.68 -1228.54) rotate(46.17)" gradientUnits="userSpaceOnUse">
      <stop offset="0" stop-color="#25ba00"/>
      <stop offset=".51" stop-color="#d3f743"/>
      <stop offset="1" stop-color="#25ba00"/>
    </linearGradient>
    <linearGradient id="linear-gradient-2" x1="1041.45" y1="728.65" x2="1034.71" y2="734.98" gradientTransform="translate(-144.68 -1228.54) rotate(46.17)" gradientUnits="userSpaceOnUse">
      <stop offset="0" stop-color="#008c26" stop-opacity="0"/>
      <stop offset="1" stop-color="#008c26"/>
    </linearGradient>
    <linearGradient id="linear-gradient-3" x1="1021.34" y1="742.54" x2="1032.57" y2="735.97" xlink:href="#linear-gradient-2"/>
    <linearGradient id="linear-gradient-4" x1="1021.55" y1="737.77" x2="1034.3" y2="737.77" xlink:href="#linear-gradient"/>
    <linearGradient id="linear-gradient-5" x1="-349.92" y1="-352.65" x2="-335.65" y2="-352.65" gradientTransform="translate(519.28 13.23) rotate(-45.54)" xlink:href="#linear-gradient"/>
    <linearGradient id="linear-gradient-6" x1="-334.83" y1="-358.28" x2="-339.9" y2="-353.53" gradientTransform="translate(519.28 13.23) rotate(-45.54)" xlink:href="#linear-gradient-2"/>
    <linearGradient id="linear-gradient-7" x1="-349.95" y1="-347.84" x2="-341.51" y2="-352.78" gradientTransform="translate(519.28 13.23) rotate(-45.54)" xlink:href="#linear-gradient-2"/>
    <linearGradient id="linear-gradient-8" x1="-349.79" y1="-351.43" x2="-340.2" y2="-351.43" gradientTransform="translate(519.28 13.23) rotate(-45.54)" xlink:href="#linear-gradient"/>
    <linearGradient id="linear-gradient-9" x1="1595.96" y1="238.16" x2="1610.24" y2="238.16" gradientTransform="translate(1536.22 -533.98) rotate(168.97) scale(1 -1)" xlink:href="#linear-gradient"/>
    <linearGradient id="linear-gradient-10" x1="1611.05" y1="232.52" x2="1605.99" y2="237.28" gradientTransform="translate(1536.22 -533.98) rotate(168.97) scale(1 -1)" xlink:href="#linear-gradient-2"/>
    <linearGradient id="linear-gradient-11" x1="1595.93" y1="242.96" x2="1604.37" y2="238.03" gradientTransform="translate(1536.22 -533.98) rotate(168.97) scale(1 -1)" xlink:href="#linear-gradient-2"/>
    <linearGradient id="linear-gradient-12" x1="1596.09" y1="239.38" x2="1605.68" y2="239.38" gradientTransform="translate(1536.22 -533.98) rotate(168.97) scale(1 -1)" xlink:href="#linear-gradient"/>
    <linearGradient id="linear-gradient-13" x1="321.44" y1="-353.22" x2="335.72" y2="-353.22" gradientTransform="translate(-168.27 -409) rotate(114.39)" xlink:href="#linear-gradient"/>
    <linearGradient id="linear-gradient-14" x1="336.53" y1="-358.85" x2="331.47" y2="-354.09" gradientTransform="translate(-168.27 -409) rotate(114.39)" xlink:href="#linear-gradient-2"/>
    <linearGradient id="linear-gradient-15" x1="321.41" y1="-348.41" x2="329.85" y2="-353.35" gradientTransform="translate(-168.27 -409) rotate(114.39)" xlink:href="#linear-gradient-2"/>
    <linearGradient id="linear-gradient-16" x1="321.57" y1="-352" x2="331.16" y2="-352" gradientTransform="translate(-168.27 -409) rotate(114.39)" xlink:href="#linear-gradient"/>
    <linearGradient id="linear-gradient-17" x1="-305.92" y1="-871.56" x2="-300.51" y2="-871.56" gradientTransform="translate(944.47 -18.31) rotate(-72.72)" xlink:href="#linear-gradient"/>
    <radialGradient id="radial-gradient" cx="-302.79" cy="-876.31" fx="-302.79" fy="-876.31" r="14.04" gradientTransform="translate(944.47 -18.31) rotate(-72.72)" gradientUnits="userSpaceOnUse">
      <stop offset=".06" stop-color="#a0dff3"/>
      <stop offset=".79" stop-color="#4bbfe3"/>
    </radialGradient>
    <linearGradient id="linear-gradient-18" x1="-294.71" y1="-876.82" x2="-293.89" y2="-879.96" gradientTransform="translate(944.47 -18.31) rotate(-72.72)" gradientUnits="userSpaceOnUse">
      <stop offset="0" stop-color="#74cafc"/>
      <stop offset="1" stop-color="#c4eaff"/>
    </linearGradient>
    <linearGradient id="linear-gradient-19" x1="-303.38" y1="-874.2" x2="-300.32" y2="-885.93" xlink:href="#linear-gradient-18"/>
    <radialGradient id="radial-gradient-2" cx="-300.97" cy="-876.65" fx="-300.97" fy="-876.65" r="4.03" gradientTransform="translate(944.47 -18.31) rotate(-72.72)" gradientUnits="userSpaceOnUse">
      <stop offset="0" stop-color="#91e3ff"/>
      <stop offset="1" stop-color="#2088ab"/>
    </radialGradient>
    <radialGradient id="radial-gradient-3" cx="-206.72" cy="-31.34" fx="-206.72" fy="-31.34" r="7.57" gradientTransform="translate(214.21 -62.01) rotate(-28.28)" xlink:href="#radial-gradient"/>
    <linearGradient id="linear-gradient-20" x1="-303.45" y1="-868.69" x2="-299.76" y2="-882.84" xlink:href="#linear-gradient-18"/>
    <radialGradient id="radial-gradient-4" cx="-209.33" cy="-20.64" fx="-209.33" fy="-20.64" r="5.41" gradientTransform="translate(214.21 -62.01) rotate(-28.28)" xlink:href="#radial-gradient"/>
    <radialGradient id="radial-gradient-5" cx="-214.83" cy="-17.32" fx="-214.83" fy="-17.32" r="5.43" gradientTransform="translate(214.21 -62.01) rotate(-28.28)" xlink:href="#radial-gradient"/>
    <radialGradient id="radial-gradient-6" cx="-205.21" cy="-9.85" fx="-205.21" fy="-9.85" r="5.26" gradientTransform="translate(214.21 -62.01) rotate(-28.28)" xlink:href="#radial-gradient"/>
    <radialGradient id="radial-gradient-7" cx="-203.63" cy="-17.33" fx="-203.63" fy="-17.33" r="5.43" gradientTransform="translate(214.21 -62.01) rotate(-28.28)" xlink:href="#radial-gradient"/>
    <radialGradient id="radial-gradient-8" cx="-213.62" cy="-9.85" fx="-213.62" fy="-9.85" r="5.26" gradientTransform="translate(214.21 -62.01) rotate(-28.28)" xlink:href="#radial-gradient"/>
    <radialGradient id="radial-gradient-9" cx="-209.41" cy="-18.26" fx="-209.41" fy="-18.26" r="2.45" gradientTransform="translate(214.21 -62.01) rotate(-28.28)" xlink:href="#radial-gradient-2"/>
    <radialGradient id="radial-gradient-10" cx="-211.64" cy="-16.82" fx="-211.64" fy="-16.82" r="2.32" gradientTransform="translate(214.21 -62.01) rotate(-28.28)" xlink:href="#radial-gradient-2"/>
    <radialGradient id="radial-gradient-11" cx="-211.27" cy="-13.83" fx="-211.27" fy="-13.83" r="2.05" gradientTransform="translate(214.21 -62.01) rotate(-28.28)" xlink:href="#radial-gradient-2"/>
    <radialGradient id="radial-gradient-12" cx="-207.65" cy="-13.83" fx="-207.65" fy="-13.83" r="2.04" gradientTransform="translate(214.21 -62.01) rotate(-28.28)" xlink:href="#radial-gradient-2"/>
    <radialGradient id="radial-gradient-13" cx="-207.1" cy="-16.8" fx="-207.1" fy="-16.8" r="2.35" gradientTransform="translate(214.21 -62.01) rotate(-28.28)" xlink:href="#radial-gradient-2"/>
    <linearGradient id="linear-gradient-21" x1="-213.72" y1="-24.59" x2="-204.83" y2="-24.59" gradientTransform="translate(214.21 -62.01) rotate(-28.28)" xlink:href="#linear-gradient-18"/>
    <linearGradient id="linear-gradient-22" x1="-220.82" y1="-17.57" x2="-214.66" y2="-17.57" gradientTransform="translate(214.21 -62.01) rotate(-28.28)" xlink:href="#linear-gradient-18"/>
    <linearGradient id="linear-gradient-23" x1="-218.4" y1="-8.18" x2="-210" y2="-8.18" gradientTransform="translate(214.21 -62.01) rotate(-28.28)" xlink:href="#linear-gradient-18"/>
    <linearGradient id="linear-gradient-24" x1="-209.06" y1="-8.18" x2="-200.48" y2="-8.18" gradientTransform="translate(214.21 -62.01) rotate(-28.28)" xlink:href="#linear-gradient-18"/>
    <linearGradient id="linear-gradient-25" x1="-203.96" y1="-17.44" x2="-198.09" y2="-17.44" gradientTransform="translate(214.21 -62.01) rotate(-28.28)" xlink:href="#linear-gradient-18"/>
  </defs>
  <g class="cls-28">
    <g id="Layer_2" data-name="Layer 2">
      <g id="Layer_1-2" data-name="Layer 1">
        <g>
          <g>
            <g>
              <path class="cls-26" d="M39.35,31.48c-.76,0-1.51-.08-2.23-.24-.03,0-.05-.01-.08-.02-.55-.12-1.04-.28-1.51-.47-7.06-2.8-6.97-9.54-6.97-9.6,0-.12.06-.24.15-.33.02-.02.57-.49,1.51-.94,1.27-.6,2.6-.91,3.95-.91.87,0,1.75.13,2.62.39,1.29.38,2.58,1.07,3.83,2.05,1.75,1.37,3.31,2.45,4.63,3.23,2.62,1.58,3.81,1.78,3.94,1.8.17.02.34.15.39.31s.03.35-.09.46c-.05.05-1.29,1.2-3.27,2.3-.01.01-.03.02-.04.03-2.33,1.29-4.62,1.94-6.82,1.94Z"/>
              <path class="cls-34" d="M34.17,19.42c.77,0,1.6.11,2.49.37,1.15.34,2.39.96,3.69,1.97,1.88,1.47,3.42,2.52,4.68,3.26,2.55,1.54,3.82,1.82,4.1,1.86.04,0,.06,0,.06,0,0,0-1.24,1.16-3.22,2.25h0c-1.75.98-4.08,1.9-6.61,1.9-.7,0-1.41-.07-2.13-.23h0c-.5-.12-1-.26-1.51-.47-6.85-2.72-6.69-9.18-6.69-9.18,0,0,.51-.44,1.41-.88.91-.43,2.2-.87,3.75-.87M34.17,18.53h0c-1.41,0-2.8.32-4.13.95-.98.48-1.55.96-1.61,1.01-.19.16-.3.4-.31.65,0,.07-.04,1.83.84,3.94.81,1.94,2.58,4.58,6.41,6.09.48.19.99.35,1.55.48.03.01.07.02.1.03.75.17,1.54.25,2.33.25,2.28,0,4.64-.67,7.04-2,.02-.01.04-.02.06-.04,2.02-1.12,3.29-2.3,3.34-2.35.29-.27.46-.71.28-1.07-.16-.3-.4-.49-.71-.49-.05,0-.09,0-.14.01-.17-.03-1.32-.27-3.74-1.73-1.31-.77-2.85-1.85-4.59-3.2-1.3-1.01-2.64-1.72-3.98-2.12-.9-.27-1.83-.41-2.74-.41h0Z"/>
            </g>
            <path class="cls-4" d="M49.19,26.89s-1.24,1.16-3.22,2.25c.05-.64-.14-1.12-.73-1.19-1.8-.21-3.57-1.21-3.78-1.34.4.06,4.34.68,4.22-.38-.03-.22-.27-.64-.66-1.2,2.9,1.76,4.16,1.86,4.16,1.86Z"/>
            <path class="cls-5" d="M37.21,30.8c-.5-.11-1-.26-1.51-.46-6.85-2.72-6.69-9.18-6.69-9.18,0,0,3.19-2.71,7.65-1.37-.44.18-.81.39-1.09.65-1.94,1.86,3.98,6.08,3.98,6.08,0,0-3.13-1.31-4.1.73-.42.9.53,2.27,1.76,3.55Z"/>
            <path class="cls-22" d="M29.54,22.33s4.23,3.72,8.38,4.67c4.14.95,8.44.15,8.44.15,0,0-3.84,2.17-9.02.33-5.18-1.84-7.8-5.15-7.8-5.15Z"/>
            <g>
              <path class="cls-21" d="M28.89,20.9s6,5.42,12.13,6.05"/>
              <path class="cls-34" d="M29.19,20.57c1.64,1.52,3.5,2.88,5.46,4.02,1.97,1.13,4.1,2.03,6.37,2.36-2.29-.19-4.51-.95-6.58-1.97-2.07-1.04-4.02-2.27-5.84-3.75-.19-.15-.22-.44-.07-.63.15-.19.44-.22.63-.07,0,0,.01.01.02.02h.02Z"/>
            </g>
          </g>
          <path class="cls-22" d="M49.13,26.88c-.5-.03-4.24-.36-8.92-4.16-3.55-2.89-7.68-2.76-9.79-2.43,1.36-.64,3.56-1.3,6.24-.49,1.15.34,2.39.96,3.69,1.97,1.88,1.47,3.42,2.52,4.68,3.26,2.55,1.54,3.82,1.82,4.1,1.86Z"/>
          <g>
            <path class="cls-22" d="M30.07,24.04s.72,2.61,3.57,4.64c2.85,2.02,4.89,1.78,5.16,1.28s-.84-1.05-3.21-1.45-5.52-4.48-5.52-4.48Z"/>
            <ellipse class="cls-22" cx="40.19" cy="30.35" rx=".57" ry="1.14" transform="translate(7.04 68.27) rotate(-85.9)"/>
            <ellipse class="cls-22" cx="40.08" cy="29.44" rx=".27" ry=".54" transform="translate(9.83 68.92) rotate(-88.83)"/>
          </g>
        </g>
        <g>
          <g>
            <g>
              <path class="cls-19" d="M24.87,18.19c-.09,0-.18-.04-.25-.11-.02-.02-.38-.42-.74-1.11-.56-1.08-1.1-2.82-.54-4.92.26-.98.75-1.96,1.45-2.93.98-1.35,1.77-2.54,2.32-3.55,1.13-2,1.25-2.9,1.26-3,0-.14.08-.26.2-.32.04-.02.09-.03.13-.03.09,0,.18.04.24.1.04.04.94.95,1.81,2.43.96,1.61,2,4.09,1.49,6.77,0,.02,0,.04-.02.06-.08.41-.19.79-.32,1.15-1.95,5.37-7.01,5.45-7.06,5.45h0Z"/>
              <path class="cls-34" d="M28.72,2.56s.9.91,1.76,2.37h0c.98,1.66,1.92,4.01,1.44,6.54h0c-.07.39-.17.77-.31,1.15-1.89,5.21-6.75,5.23-6.75,5.23,0,0-.34-.38-.69-1.04-.51-1-1.05-2.65-.51-4.68.23-.87.67-1.82,1.4-2.82,1.06-1.45,1.82-2.63,2.35-3.59,1.1-1.95,1.28-2.91,1.3-3.12,0-.03,0-.04,0-.04M28.72,1.89c-.09,0-.17.02-.26.05-.23.1-.38.31-.41.55,0,.01,0,.03,0,.04,0,.04-.11.89-1.22,2.87-.55,1-1.32,2.18-2.3,3.52-.73,1-1.24,2.02-1.51,3.04-.59,2.2-.02,4.02.56,5.15.38.73.75,1.14.79,1.19.13.14.31.22.49.22h0c.05,0,5.35-.09,7.37-5.67.13-.37.24-.75.33-1.18,0-.03.02-.05.02-.08.52-2.78-.54-5.34-1.53-7,0-.02-.02-.03-.03-.05-.89-1.49-1.8-2.42-1.84-2.46-.13-.13-.3-.2-.48-.2h0Z"/>
            </g>
            <path class="cls-3" d="M28.72,2.56s.9.91,1.76,2.37c-.48-.02-.84.13-.88.58-.12,1.36-.83,2.71-.93,2.87.04-.3.42-3.28-.38-3.16-.16.03-.48.22-.88.52,1.25-2.22,1.31-3.17,1.31-3.17Z"/>
            <path class="cls-2" d="M31.93,11.48c-.07.38-.17.76-.31,1.15-1.89,5.21-6.75,5.23-6.75,5.23,0,0-2.11-2.33-1.2-5.72.14.33.31.6.51.8,1.44,1.41,4.48-3.13,4.48-3.13,0,0-.91,2.38.64,3.07.68.3,1.69-.45,2.62-1.4Z"/>
            <path class="cls-22" d="M25.74,17.43s2.7-3.26,3.32-6.4-.08-6.35-.08-6.35c0,0,1.72,2.83.45,6.77-1.27,3.94-3.7,5.98-3.7,5.98Z"/>
            <g>
              <path class="cls-18" d="M24.68,17.95s3.94-4.63,4.27-9.25"/>
              <path class="cls-34" d="M24.42,17.73c1.1-1.27,2.08-2.69,2.9-4.19.8-1.5,1.43-3.12,1.63-4.84-.09,1.73-.62,3.41-1.33,4.99-.73,1.58-1.62,3.07-2.69,4.47-.11.15-.32.18-.47.06-.15-.11-.18-.32-.06-.47,0,0,0-.01.01-.02h.01Z"/>
            </g>
          </g>
          <path class="cls-22" d="M28.72,2.61c0,.38-.17,3.19-2.93,6.79-2.09,2.73-1.9,5.84-1.61,7.41-.51-1-1.05-2.65-.51-4.68.23-.87.67-1.82,1.4-2.82,1.06-1.45,1.82-2.63,2.35-3.59,1.1-1.95,1.28-2.91,1.3-3.12Z"/>
          <g>
            <path class="cls-22" d="M27.01,16.99s1.95-.6,3.4-2.79c1.46-2.19,1.23-3.71.85-3.91s-.77.65-1.01,2.45-3.24,4.25-3.24,4.25Z"/>
            <ellipse class="cls-22" cx="31.53" cy="9.25" rx=".86" ry=".43" transform="translate(20.97 40.36) rotate(-87.61)"/>
            <ellipse class="cls-22" cx="30.85" cy="9.35" rx=".21" ry=".41" transform="translate(-.09 .29) rotate(-.54)"/>
          </g>
        </g>
        <g>
          <g>
            <g>
              <path class="cls-20" d="M9.55,11.46c-.7,0-1.42-.09-2.16-.27-.37-.09-.74-.21-1.13-.37-.02,0-.04,0-.05-.02-2.51-1.06-4.01-3.28-4.83-4.97-.01-.03-.02-.07-.03-.1C.62,4.29.35,3.04.34,2.98c-.03-.13.03-.27.14-.34.06-.04.12-.06.19-.06.06,0,.12.02.18.05.1.05.92.44,3.21.6.61.05,1.31.07,2.08.07.65,0,1.37-.02,2.17-.05.18,0,.36-.01.53-.01.99,0,1.9.14,2.71.41,2.06.69,3.21,2.1,3.81,3.16.38.69.52,1.21.52,1.24.02.09,0,.19-.05.27-.09.13-2.15,3.15-6.28,3.15Z"/>
              <path class="cls-34" d="M.67,2.91s.01,0,.04.02c.19.1,1.09.48,3.32.63.6.05,1.3.08,2.11.08.65,0,1.38-.02,2.18-.06.17,0,.35-.01.51-.01,1.01,0,1.87.15,2.61.4,1.99.67,3.07,2.02,3.62,3,.36.66.49,1.15.49,1.15,0,0-2,3-6.01,3-.64,0-1.33-.08-2.08-.26-.4-.09-.77-.22-1.13-.37h0c-2.37-.99-3.82-3.07-4.65-4.8h0c-.74-1.54-1.01-2.79-1.01-2.79M.67,2.25c-.13,0-.26.04-.37.11-.23.15-.34.43-.28.69.01.05.28,1.33,1.04,2.89,0,.02.01.03.02.05.84,1.73,2.39,4.03,5,5.13.03.01.05.02.08.03.4.16.78.29,1.16.38.76.18,1.51.27,2.23.27,4.31,0,6.47-3.17,6.56-3.3.1-.16.14-.35.09-.53-.01-.06-.16-.6-.55-1.31-.63-1.12-1.83-2.59-4-3.31-.85-.28-1.8-.43-2.82-.43-.18,0-.36,0-.54.01-.77.04-1.49.06-2.15.06-.76,0-1.45-.02-2.05-.07-2.27-.16-3.04-.55-3.07-.56-.01,0-.02-.01-.04-.02-.1-.05-.2-.08-.31-.08h0Z"/>
            </g>
            <path class="cls-8" d="M.67,2.91s.26,1.25,1.01,2.78c.25-.41.57-.63.96-.42,1.2.65,2.72.8,2.9.81-.27-.14-2.97-1.46-2.43-2.06.11-.12.45-.28.92-.45-2.54-.18-3.36-.65-3.36-.65Z"/>
            <path class="cls-9" d="M6.34,10.5c.36.15.73.28,1.13.37,5.39,1.3,8.08-2.75,8.08-2.75,0,0-.78-3.05-4.11-4.15.19.3.33.59.39.87.39,1.98-5.08,2.02-5.08,2.02,0,0,2.49.55,2.21,2.22-.13.73-1.31,1.16-2.61,1.42Z"/>
            <path class="cls-22" d="M14.72,8.62s-4.21.46-7.17-.75c-2.96-1.21-5.26-3.56-5.26-3.56,0,0,1.42,3,5.4,4.11,3.98,1.11,7.02.21,7.02.21Z"/>
            <g>
              <path class="cls-36" d="M15.74,8.01s-6.03.73-10.07-1.53"/>
              <path class="cls-34" d="M15.78,8.35c-1.76.12-3.49.03-5.21-.22-1.71-.27-3.41-.76-4.9-1.64,1.54.78,3.24,1.15,4.94,1.31,1.7.15,3.43.11,5.09-.11h.01c.18-.03.35.1.38.29.02.18-.1.35-.29.38,0,0-.01,0-.02,0Z"/>
            </g>
          </g>
          <path class="cls-22" d="M.71,2.93c.32.2,2.76,1.62,7.28,1.3,3.44-.24,5.92,1.63,7.07,2.74-.56-.98-1.63-2.34-3.62-3-.86-.29-1.89-.44-3.12-.38-1.79.09-3.2.07-4.29-.02-2.23-.16-3.13-.54-3.32-.63Z"/>
          <g>
            <path class="cls-22" d="M13.65,9.44s-1.57,1.3-4.2,1.31-3.78-1.02-3.73-1.44.97-.28,2.6.5c1.63.79,5.33-.36,5.33-.36Z"/>
            <ellipse class="cls-22" cx="4.7" cy="8.94" rx=".43" ry=".86" transform="translate(-5.38 8.36) rotate(-58.96)"/>
            <ellipse class="cls-22" cx="5.16" cy="8.43" rx=".21" ry=".41" transform="translate(-4.71 8) rotate(-56.03)"/>
          </g>
        </g>
        <g>
          <g>
            <g>
              <path class="cls-37" d="M19.42,44.7s-.09-.01-.14-.03c-.05-.02-1.21-.57-2.54-1.66-1.46-1.18-3.28-3.16-3.72-5.85,0-.02,0-.04,0-.06-.07-.41-.1-.8-.1-1.19-.02-5.71,4.71-7.53,4.76-7.54.04-.01.08-.02.12-.02.05,0,.11.01.15.04.02,0,.5.26,1.08.79.89.83,2,2.27,2.19,4.44.09,1.01-.03,2.1-.36,3.25-.46,1.61-.79,3-.96,4.13-.37,2.26-.18,3.16-.16,3.25.05.13.01.27-.09.37-.06.06-.15.09-.23.09Z"/>
              <path class="cls-34" d="M17.79,28.68s.45.23,1.01.74c.83.77,1.9,2.12,2.09,4.22.08.9,0,1.94-.35,3.12-.5,1.72-.81,3.09-.97,4.17-.36,2.21-.2,3.17-.15,3.38,0,.03,0,.04,0,.04,0,0-1.15-.54-2.47-1.62h0c-1.49-1.22-3.18-3.11-3.6-5.64h0c-.06-.39-.1-.78-.1-1.19-.01-5.54,4.54-7.23,4.54-7.23M17.79,28.02c-.08,0-.16.01-.23.04-.05.02-5,1.92-4.98,7.86,0,.39.03.79.1,1.22,0,.03,0,.05,0,.08.46,2.79,2.34,4.83,3.83,6.05.01.01.03.02.04.03,1.35,1.1,2.52,1.65,2.57,1.68.09.04.19.06.28.06.16,0,.33-.06.45-.18.18-.17.26-.42.19-.66,0-.01,0-.03,0-.04,0-.03-.21-.88.16-3.11.17-1.13.5-2.51.95-4.1.34-1.19.47-2.32.37-3.37-.2-2.27-1.36-3.78-2.3-4.65-.61-.55-1.1-.82-1.15-.84-.1-.05-.2-.08-.31-.08h0Z"/>
            </g>
            <path class="cls-7" d="M19.42,44.37s-1.15-.54-2.47-1.62c.46-.15.74-.41.63-.84-.35-1.32-.15-2.83-.11-3.01.07.3.73,3.22,1.45,2.84.14-.08.37-.37.65-.79-.42,2.52-.14,3.42-.14,3.42Z"/>
            <path class="cls-6" d="M13.35,37.1c-.06-.38-.1-.77-.1-1.18-.01-5.54,4.54-7.23,4.54-7.23,0,0,2.78,1.47,3.09,4.96-.25-.26-.5-.46-.76-.58-1.84-.83-3.14,4.48-3.14,4.48,0,0,.04-2.55-1.65-2.66-.74-.04-1.44,1.01-1.98,2.22Z"/>
            <path class="cls-22" d="M17.12,29.38s-1.42,3.99-.93,7.15,2.25,5.94,2.25,5.94c0,0-2.59-2.07-2.75-6.2s1.42-6.88,1.42-6.88Z"/>
            <g>
              <path class="cls-44" d="M17.94,28.53s-2.11,5.7-.84,10.15"/>
              <path class="cls-34" d="M18.26,28.64c-.6,1.57-1.03,3.24-1.28,4.93-.24,1.69-.27,3.43.13,5.11-.51-1.65-.59-3.41-.46-5.14.15-1.73.47-3.44.99-5.12.05-.18.24-.28.42-.22s.28.24.22.42c0,0,0,.01,0,.02h0Z"/>
            </g>
          </g>
          <path class="cls-22" d="M19.41,44.32c-.12-.36-.93-3.06.42-7.38,1.03-3.29-.22-6.13-1.03-7.51.83.77,1.9,2.12,2.09,4.22.08.9,0,1.94-.35,3.12-.5,1.72-.81,3.09-.97,4.17-.36,2.21-.2,3.17-.15,3.38Z"/>
          <g>
            <path class="cls-22" d="M16.08,30.23s-1.62,1.23-2.24,3.79.12,3.91.54,3.96.5-.88.11-2.64,1.58-5.1,1.58-5.1Z"/>
            <ellipse class="cls-22" cx="14.49" cy="39.05" rx=".43" ry=".86" transform="translate(-11.17 6.25) rotate(-17.68)"/>
            <ellipse class="cls-22" cx="15.1" cy="38.72" rx=".21" ry=".41" transform="translate(-12.66 7.79) rotate(-20.61)"/>
          </g>
        </g>
        <g>
          <g>
            <path class="cls-45" d="M23.96,10.01c.04.14.54.62.86,1.23.46.9.51,2.11-1.88,3.09-.11.04-.23.09-.35.13-1.53.55-2.29.02-3.42-.3.08-.13.56-.37.63-.5-.21-.09-.7-.24-.9-.22.05-.06.11-.1.19-.14.28-.16.7-.21.98-.37.28-.17.9-.29.89-.58-.01-.25-.57-.87-.27-1.01.29-.14,1.21.32,1.39.57.14-.19.09-.43.21-.64.12-.18.34-.33.52-.49.19-.16.39-.3.6-.45.18-.12.36-.23.55-.33Z"/>
            <path class="cls-34" d="M23.96,9.99c.52.6,1.17,1.19,1.25,2.1.03.44-.13.89-.41,1.22-.27.34-.63.57-.99.78-.74.36-1.51.63-2.34.68-.83.04-1.6-.32-2.36-.5h0c-.06-.02-.09-.07-.08-.13,0-.01,0-.03.02-.04.12-.17.23-.21.34-.3l.16-.12s.1-.09.1-.1l.07.2c-.14-.05-.28-.09-.43-.12-.14-.03-.31-.06-.39-.05h-.03c-.09.02-.18-.05-.19-.14,0-.06.01-.11.05-.15.08-.07.16-.14.25-.2h-.01c.44-.22.78-.23,1.13-.46.19-.09.39-.16.52-.24.13-.13.11,0,.03-.22-.08-.17-.2-.33-.27-.6-.02-.07-.03-.16.01-.28.05-.12.17-.19.25-.21.17-.04.28,0,.4.01.44.14.79.29,1.15.67h-.28c.1-.1.06-.38.24-.64.18-.22.38-.33.56-.47l.59-.39c.21-.12.45-.22.64-.32ZM23.95,10.03l-.55.4-.52.44c-.17.16-.36.31-.46.47-.1.13-.03.38-.21.67-.05.08-.14.1-.22.06l-.03-.02-.03-.03c-.2-.2-.63-.39-.95-.46-.08-.02-.17-.02-.2-.01,0,.02.04-.1.03-.01.03.13.15.31.24.49.04.1.13.19.11.42-.05.22-.19.31-.29.37-.21.12-.41.18-.58.25-.34.21-.84.27-1.12.41h-.01s0,0,0,0c-.04.03-.08.06-.12.08l-.16-.28c.22,0,.36.05.52.09.15.05.3.1.45.17h.02c.07.04.1.11.07.18v.02c-.09.1-.15.13-.21.17l-.18.11c-.11.06-.24.15-.29.2l-.07-.16c.76.26,1.49.65,2.29.57.78-.05,1.51-.45,2.17-.83.65-.39,1.28-.95,1.25-1.69,0-.75-.56-1.4-.95-2.07Z"/>
          </g>
          <path class="cls-1" d="M23.96,10.01c.04.14.54.62.86,1.23-.4.25-1.03.75-1.69,1.71-.34.51-.35.98-.2,1.38-.11.04-.23.09-.35.13-1.53.55-2.29.02-3.42-.3.08-.13.56-.37.63-.5-.21-.09-.7-.24-.9-.22.22-.27.82-.3,1.17-.51.28-.17.9-.29.89-.58-.01-.25-.57-.87-.27-1.01.29-.14,1.21.32,1.39.57.14-.19.09-.43.21-.64.12-.18.34-.33.52-.49.34-.29.73-.54,1.15-.78Z"/>
          <path class="cls-22" d="M23.96,10.01c.04.14.54.62.86,1.23.46.9.51,2.11-1.88,3.09-.11.04-.23.09-.35.13-1.53.55-2.29.02-3.42-.3.08-.13.56-.37.63-.5-.21-.09-.7-.24-.9-.22.05-.06.11-.1.19-.14.59.28,1.75.78,2.53.78,1.1,0,2.58-1.18,2.82-1.63.13-.25-.46-1.25-1.03-2.11.18-.12.36-.23.55-.33Z"/>
          <g>
            <g>
              <path class="cls-25" d="M12.23,14.98c-.77-.04-1.42-.38-1.76-.93-.29-.46-.33-1.03-.14-1.63-.66-.42-1.18-.98-.93-2.07.17-.79.73-1.79,1.54-2.1.23-.09.47-.14.72-.16-.37-.12-.7-.35-.93-.84-.41-.88-.25-2.19.72-2.78.19-.12.41-.19.61-.26.11-.04.23-.07.33-.12.04-.02.1-.04.16-.07-.05-.12-.08-.22-.12-.36-.23-.91.2-2,.98-2.48.39-.24.81-.37,1.23-.37.51,0,1.03.16,1.64.51.21.12.39.24.56.37,0-.04,0-.08-.01-.12-.02-.37.12-.61.24-.74.22-.24.58-.36,1.05-.36.42,0,.9.1,1.38.27.25.09.66.27.97.52.17-.14.38-.21.62-.21.93,0,2.05,1.15,2.36,1.63.97,1.52,1.34,4.35.4,5.29-.4.4-.9.49-1.34.57-.41.07-.76.13-.99.42-.77.97-1.61,1.81-2.62,2.79-.46.45-.97.79-1.5,1.01-.14.06-.36.11-.59.15-.23.05-.65.13-.72.22-.06.07-.15.11-.23.11-.05,0-.1-.01-.14-.04-.11-.06-.16-.18-.14-.3-.19.14-.37.32-.52.48-.1.1-.2.2-.28.28-.14.13-.27.26-.39.38-.43.44-.84.85-1.71.92-.08,0-.16.01-.24.01-.06,0-.13,0-.19,0ZM12.92,8.24c.3.08.6.19.89.29.32.11.63.22.93.3-.55-.37-1.25-.52-1.5-.56-.1-.02-.21-.03-.31-.03ZM18.05,4.04c.04.26.08.57.13.85.03.17.06.3.08.4,0-.31-.12-.89-.23-1.31,0,.02,0,.04,0,.07Z"/>
              <path class="cls-35" d="M18.13.77c.4,0,.86.1,1.28.25.48.18.9.42,1.07.68.15-.25.37-.35.61-.35.76,0,1.81,1.02,2.12,1.5.9,1.41,1.28,4.1.44,4.93-.69.69-1.77.28-2.36,1.01-.8,1-1.67,1.87-2.6,2.76-.41.4-.88.74-1.41.96-.36.15-1.24.19-1.43.48l.22-.55s-.03,0-.04,0c-.55,0-1.08.7-1.45,1.04-.67.6-.95,1.14-1.93,1.23-.07,0-.15.01-.22.01-.06,0-.12,0-.17,0-1.31-.06-2.15-1.06-1.57-2.39-.78-.44-1.23-.92-1.01-1.89.15-.72.66-1.63,1.36-1.89.29-.11.57-.15.85-.15,1.23,0,2.4.85,3.58.85.01,0,.03,0,.04,0-.44-.74-1.45-1.1-2.23-1.23-.89-.14-1.82.13-2.29-.86-.38-.81-.19-1.93.61-2.42.27-.18.61-.23.91-.36.57-.25.35-.19.2-.76-.2-.78.17-1.75.85-2.16.37-.23.73-.32,1.09-.32.5,0,1,.19,1.5.48.77.43,1.21.99,1.5,1.84.06.16.14.91.25,1.51.08.45.18.83.31.84.01,0,.02,0,.03,0,.61,0,.03-2.08-.08-2.35-.07-.19-.2-.37-.34-.56-.31-.42-.68-.85-.7-1.29-.04-.58.42-.8,1-.8M18.13.2c-.55,0-.97.15-1.25.45-.11.11-.22.28-.28.52-.05-.03-.1-.06-.16-.09-.66-.37-1.22-.55-1.78-.55-.48,0-.95.14-1.39.41-.88.54-1.37,1.76-1.1,2.79.01.05.02.09.04.13-.07.03-.15.05-.22.08-.21.07-.45.15-.68.29-.98.6-1.35,2.01-.82,3.14.12.25.26.45.42.6-.02,0-.04.01-.06.02-.91.34-1.53,1.44-1.71,2.31-.26,1.15.26,1.81.88,2.25-.15.6-.07,1.18.23,1.66.39.63,1.12,1.02,2,1.06.05,0,.12,0,.2,0,.09,0,.18,0,.27-.01.97-.08,1.43-.55,1.88-1.01.11-.12.24-.24.38-.36.09-.08.19-.18.3-.29.05-.05.12-.13.2-.2.04.03.07.06.12.09.09.05.18.07.27.07.16,0,.32-.07.43-.2.11-.06.41-.12.58-.15.24-.05.46-.09.64-.17.57-.24,1.1-.6,1.59-1.07,1.02-.97,1.86-1.83,2.64-2.81.15-.19.4-.24.82-.31.46-.08,1.03-.18,1.5-.65,1.13-1.13.56-4.2-.36-5.64-.29-.45-1.49-1.76-2.6-1.76-.22,0-.43.05-.61.15-.3-.21-.65-.36-.88-.44-.5-.19-1.03-.29-1.47-.29h0Z"/>
            </g>
            <path class="cls-46" d="M19.4,1.03c-.07.03-.15.06-.24.08-1.01.24-1.43.9-1.34,1.76-.31-.42-.68-.85-.7-1.29-.06-.97,1.26-.92,2.28-.54Z"/>
            <path class="cls-38" d="M16.15,1.58c.77.43,1.21.99,1.5,1.84.06.16.14.91.25,1.51-.08.12-.22.1-.4-.15-.51-.67-.91-2.23-.96-2.4,0,.15.02,1.64-.13,1.45-.16-.21-.77-2.04-1.77-1.69-1,.34-.77,1.54-.8,2.49-.04.96-.72.42-1.57.97-.86.54-.54,1.61.87,1.77,1.41.16,3.51,1.48,3.51,1.48,0,0-1.65,1.03-3.35.42-1.7-.61-1.82-.46-2.33,1.15-.5,1.56,1.51,1.18,1.65,1.16-.05.06-.56.62-.83,1.69-.09.37.13.89.48,1.42-1.31-.06-2.15-1.06-1.57-2.39-.78-.44-1.23-.92-1.01-1.89.15-.72.66-1.63,1.36-1.89,1.56-.59,3.01.72,4.47.7-.44-.74-1.45-1.1-2.23-1.23-.89-.14-1.82.13-2.29-.86-.38-.81-.19-1.93.61-2.42.27-.18.61-.23.91-.36.57-.25.35-.19.2-.76-.2-.78.17-1.75.85-2.16.89-.55,1.73-.33,2.59.15Z"/>
            <path class="cls-17" d="M20.53,4.52c-.29-.07-.55.22-.79.22-.37,0-.45-.15-.71.25-.2.31-.13.51-.19.86-.02.13-.12.26-.13.38,0,.21.14.4.14.61,0,.37-.15.51-.37.18-.3-.44-.23-1.11-.66-1.45-.39-.3-1.17-.26-1.44.11-.25.34-.19.3-.57.43-.33.11-.45.31-.47.64,0,.1.09.28.04.38-.07.13-.25.08-.34.19-.16.19-.17.63,0,.8.21.21.5.23.71.51.22.3.36.6.69.79-.11.35-.67.09-.91.18-.18.07-.57.51-.67.69-.2.36.13.44.08.77-.05.32-.44.26-.42.59.03.32.43.35.63.51.24.19.2.44.44.62.45.33,1.31.09,1.74-.17.24-.14.47-.33.64-.55.18-.23.22-.66.41-.82l.76.3c-.07-.32.53-.71.73-.95.28-.33.55-.67.82-1.01.48-.6.89-1.47,1.05-2.22.11-.48.4-1.08.05-1.48-.28-.32-.61-.29-.81-.71-.12-.24-.16-.56-.47-.63Z"/>
            <path class="cls-23" d="M19.49,7.77c-.56-.19-1.23.09-1.64.52-.32.33-.74,1.1-.73,1.58.02.86.32,1.12.94,1.15.98.05,1.68-.87,1.95-1.69.21-.62.22-1.33-.52-1.57Z"/>
            <g>
              <path class="cls-33" d="M18.27,10.17c.03-.05-.05-.09-.08-.04-.03.05.05.09.08.04h0Z"/>
              <path class="cls-33" d="M18.2,10.13c-.2.16-.44.2-.69.22-.25.02-.5.04-.75.07-.55.07-1.09-.12-1.63-.23-.06-.01-.07.08-.02.09.57.11,1.12.29,1.71.22.46-.06,1.03,0,1.42-.3.04-.04,0-.11-.05-.07h0Z"/>
              <path class="cls-33" d="M18.25,9.74c-.66-.15-1.27-.5-1.87-.81-.24-.12-.49-.23-.73-.35-.15-.07-.34-.17-.51-.13-.06.01-.03.1.03.08.19-.04.43.12.59.2.26.12.51.24.76.37.55.29,1.1.58,1.71.72.06.01.07-.07.02-.09h0Z"/>
              <path class="cls-33" d="M18.27,9.54c.03-.05-.05-.09-.08-.04-.03.05.05.09.08.04h0Z"/>
              <path class="cls-33" d="M18.25,9.48c-.3-.14-.5-.42-.77-.61-.29-.2-.62-.35-.93-.51-.05-.03-.09.05-.04.08.32.16.66.32.96.53.26.18.45.45.75.59.05.02.09-.05.04-.08h0Z"/>
              <path class="cls-33" d="M18.76,9.27c-.41-.66-1.03-1.14-1.6-1.66-.39-.36-.77-1.01-1.35-1.05-.06,0-.07.08-.02.09.3.02.53.24.73.44.21.2.4.43.61.63.55.5,1.14.97,1.54,1.61.03.05.1,0,.07-.05h0Z"/>
              <path class="cls-33" d="M18.82,8.88c-.14-.21-.2-.45-.28-.68-.08-.23-.2-.44-.32-.66-.29-.52-.6-1.03-.92-1.53-.03-.05-.1,0-.07.05.31.51.62,1.02.92,1.53.14.24.26.48.35.74.07.21.13.41.25.59.03.05.11,0,.07-.05h0Z"/>
              <path class="cls-33" d="M18.93,8.9c.03-.05-.05-.09-.08-.04-.03.05.05.09.08.04h0Z"/>
              <path class="cls-33" d="M18.93,8.9c.14-.26.12-.55.09-.83-.04-.34-.08-.67-.14-1.01-.14-.7-.36-1.38-.66-2.03-.02-.05-.11-.02-.08.03.26.58.47,1.18.61,1.8.07.33.12.67.16,1,.04.33.11.69-.05,1-.03.05.05.09.08.04h0Z"/>
              <path class="cls-33" d="M19.21,8.68c.03-.05-.05-.09-.08-.04-.03.05.05.09.08.04h0Z"/>
              <path class="cls-33" d="M19.17,8.71c.15-.06.2-.27.24-.41.06-.21.1-.44.11-.66.04-.77-.08-1.54-.12-2.31,0-.06-.09-.05-.09,0,.03.65.12,1.29.13,1.93,0,.26-.01.52-.06.77-.03.15-.07.52-.24.58-.05.02-.03.1.03.08h0Z"/>
              <path class="cls-33" d="M19.31,9.18c.18-.22.28-.5.37-.77.12-.33.25-.66.36-1,.23-.67.41-1.35.45-2.06,0-.06-.09-.05-.09,0-.04.71-.23,1.4-.46,2.08-.1.3-.22.59-.32.89-.1.27-.19.57-.37.8-.04.04.03.1.07.06h0Z"/>
              <path class="cls-33" d="M18.28,10.53c-.42.34-1.07.42-1.59.43-.24,0-.47-.04-.7-.07-.08-.01-.26-.04-.28.07,0,.06.08.07.09.02,0-.05.47.04.52.04.24.03.48.03.72,0,.44-.04.93-.14,1.28-.42.04-.04,0-.11-.05-.07h0Z"/>
              <path class="cls-33" d="M18.9,10.67c.03-.05-.05-.09-.08-.04-.03.05.05.09.08.04h0Z"/>
              <path class="cls-33" d="M18.84,10.61c-.41-.03-.76-.28-1.15-.42-.43-.15-.84-.37-1.3-.45-.06-.01-.07.08-.02.09.46.09.88.3,1.32.46.38.13.71.38,1.12.41.06,0,.07-.08.02-.09h0Z"/>
              <path class="cls-33" d="M19.44,10.32c-.95-.61-1.88-1.24-2.89-1.75-.05-.03-.09.05-.04.08,1.01.51,1.95,1.14,2.89,1.75.05.03.09-.05.04-.08h0Z"/>
              <path class="cls-33" d="M19.58,9.91c-.13-.09-.2-.24-.26-.38-.06-.13-.14-.26-.22-.38-.18-.27-.41-.51-.63-.74-.49-.51-.89-1.12-1.5-1.5-.05-.03-.09.05-.04.08.61.38,1,.98,1.48,1.49.25.26.49.52.68.83.14.22.21.52.43.67.05.03.11-.03.06-.07h0Z"/>
              <path class="cls-33" d="M19.85,9.55c-.05-.57-.25-1.09-.57-1.56-.2-.29-.42-.55-.63-.83-.18-.24-.35-.55-.59-.73-.05-.03-.11.03-.06.07.24.17.4.48.58.71.2.26.41.51.6.78.33.46.54.99.59,1.56,0,.06.09.05.09,0h0Z"/>
              <path class="cls-33" d="M20.26,9.22c-.04-.06-.03-.17-.03-.24,0-.12.01-.24.02-.36.02-.23,0-.44-.03-.67-.1-.65-.21-1.31-.45-1.92-.02-.05-.1-.03-.08.03.25.64.36,1.33.46,2.02.03.23.02.44,0,.67,0,.15-.06.39.03.53.03.05.11,0,.07-.05h0Z"/>
              <path class="cls-33" d="M18.27,11.71c-.84-.12-1.68-.32-2.53-.38-.06,0-.07.08-.02.09.85.06,1.69.25,2.53.38.06,0,.07-.08.02-.09h0Z"/>
              <path class="cls-33" d="M18.12,11.24c-.32.02-.64.05-.96,0-.06-.01-.07.08-.02.09.33.06.65.03.98.01.06,0,.05-.09,0-.09h0Z"/>
              <path class="cls-33" d="M15.15,10.33s.01-.02.02-.03c.02-.04,0-.1-.04-.12-.04-.02-.1,0-.12.04,0,.01-.01.02-.02.03-.02.04,0,.1.04.12.04.02.1,0,.12-.04h0Z"/>
              <path class="cls-33" d="M15.17,8.46s-.01,0-.02,0c-.04-.02-.1,0-.12.04-.02.04,0,.1.04.12,0,0,.01,0,.02,0,.04.02.1,0,.12-.04.02-.04,0-.1-.04-.12h0Z"/>
              <path class="cls-33" d="M15.83,6.6c.05-.1-.11-.18-.16-.08-.05.1.11.18.16.08h0Z"/>
              <path class="cls-33" d="M16.56,8.46s0-.01,0-.02c.02-.04,0-.1-.04-.12-.04-.02-.1,0-.12.04,0,0,0,.01,0,.02-.02.04,0,.1.04.12.04.02.1,0,.12-.04h0Z"/>
              <path class="cls-33" d="M16.6,8.7s0-.01,0-.02c.02-.04,0-.1-.04-.12-.04-.02-.1,0-.12.04,0,0,0,.01,0,.02-.02.04,0,.1.04.12.04.02.1,0,.12-.04h0Z"/>
              <path class="cls-33" d="M17,6.99s0-.01,0-.02c.02-.04,0-.1-.04-.12-.04-.02-.1,0-.12.04,0,0,0,.01,0,.02-.02.04,0,.1.04.12.04.02.1,0,.12-.04h0Z"/>
              <path class="cls-33" d="M17.15,5.91s0,0,0,.01c-.05.1.11.18.16.08,0,0,0,0,0-.01.05-.1-.11-.18-.16-.08,0,0,0,0,0,.01-.05.1.11.18.16.08,0,0,0,0,0-.01.05-.1-.11-.18-.16-.08h0Z"/>
              <path class="cls-33" d="M18.23,5.03c.05-.1-.11-.18-.16-.08-.05.1.11.18.16.08h0Z"/>
              <path class="cls-33" d="M18.23,5.03c.05-.1-.11-.18-.16-.08-.05.1.11.18.16.08h0Z"/>
              <path class="cls-33" d="M18.23,5.03c.05-.1-.11-.18-.16-.08-.05.1.11.18.16.08h0Z"/>
              <path class="cls-33" d="M19.42,5.19s-.01,0-.02,0c-.04-.02-.1,0-.12.04-.02.04,0,.1.04.12,0,0,.01,0,.02,0,.04.02.1,0,.12-.04.02-.04,0-.1-.04-.12h0Z"/>
              <path class="cls-33" d="M18.04,6.54s0-.01,0-.02c.02-.04,0-.1-.04-.12-.04-.02-.1,0-.12.04,0,0,0,.01,0,.02-.02.04,0,.1.04.12.04.02.1,0,.12-.04h0Z"/>
              <path class="cls-33" d="M19.8,6.09c.05-.1-.11-.18-.16-.08-.05.1.11.18.16.08h0Z"/>
              <path class="cls-33" d="M19.8,6.09s.01-.02.02-.03c.02-.04,0-.1-.04-.12-.04-.02-.1,0-.12.04,0,.01-.01.02-.02.03-.02.04,0,.1.04.12.04.02.1,0,.12-.04h0Z"/>
              <path class="cls-33" d="M20.52,5.37c.03-.06,0-.11-.05-.14-.04-.02-.1,0-.12.04-.02.04,0,.1.04.12,0,0,0,0,0,0-.08-.04-.02-.14-.04-.1-.02.04,0,.1.04.12.04.02.1,0,.12-.04h0Z"/>
              <path class="cls-33" d="M16.45,9.83s0-.01,0-.02c.02-.04,0-.1-.04-.12-.04-.02-.1,0-.12.04,0,0,0,.01,0,.02-.02.04,0,.1.04.12.04.02.1,0,.12-.04h0Z"/>
              <path class="cls-33" d="M16.45,9.83s0-.01,0-.02c.02-.04,0-.1-.04-.12-.04-.02-.1,0-.12.04,0,0,0,.01,0,.02-.02.04,0,.1.04.12.04.02.1,0,.12-.04h0Z"/>
              <path class="cls-33" d="M15.81,11.06s0-.01,0-.02c.02-.04,0-.1-.04-.12-.04-.02-.1,0-.12.04,0,0,0,.01,0,.02-.02.04,0,.1.04.12.04.02.1,0,.12-.04h0Z"/>
              <path class="cls-33" d="M15.81,11.06c.03-.07.02-.14-.05-.18-.04-.02-.1,0-.12.04-.02.05,0,.09.04.12-.01,0-.02-.01-.02-.02,0,0,0,0,0,0,0,0,0-.02,0-.03,0,.02,0-.02,0,0,0,.02,0-.02,0,0-.02.04,0,.1.04.12.04.02.1,0,.12-.04h0Z"/>
              <path class="cls-33" d="M15.78,11.48c.05-.1-.11-.18-.16-.08-.05.1.11.18.16.08h0Z"/>
              <path class="cls-33" d="M17.24,11.34c.05-.1-.11-.18-.16-.08-.05.1.11.18.16.08h0Z"/>
              <path class="cls-33" d="M17.24,11.34s.01-.03.01-.06c0-.04-.03-.07-.06-.09-.04-.03-.1,0-.12.04-.02.05,0,.09.04.12-.03-.02-.04-.05-.04-.08,0,.01,0-.02,0-.02-.02.04,0,.1.04.12.04.02.1,0,.12-.04h0Z"/>
            </g>
            <path class="cls-33" d="M18.56,8.61c-.43.2-.67.73-.72,1.19-.06.48.42,1.03.86.59l.49-.11c.38-.24.73-.77.51-1.25-.2-.41-.7-.62-1.13-.42Z"/>
            <g>
              <path class="cls-16" d="M14.83,16.57c-.35,0-.67-.03-.96-.1-.45-.1-.85-.24-1.2-.43-1.18-.62-1.42-1.52-1.43-1.56-.05-.89.53-1.6,1.57-1.99.14-.05.28-.08.41-.08.18,0,.33.04.46.08.12.03.22.06.34.06h0c.25,0,.32-.07.52-.24l.17-.15c.42-.35.8-.51,1.23-.51.31,0,.63.08.99.18l.17.04c.12.03.26.07.34.07.04,0,.09-.04.18-.3.04-.11.08-.23.12-.34.09-.27.19-.55.35-.84.41-.72.8-1.3,1.68-1.59.03-.54.27-1.07.46-1.48.36-.8,1.09-2.15,2-2.15.09,0,.18,0,.26.01-.34-.42-.79-.79-1.34-1.09-.56-.44-1.52-1.79-1.4-2.62-.26-.11-.5-.17-.75-.17-.23,0-.44.05-.64.09-.19.04-.36.08-.55.08-.28,0-.52-.1-.73-.29-.06-.05-.09-.13-.09-.21,0-.08.04-.16.1-.21.42-.37.99-.56,1.69-.56.85,0,1.73.27,2.32.5.41.17.8.35,1.14.55,1.56.88,2.41,2.72,2.28,4.9-.02.43-.15.89-.26,1.3l-.06.22c-.03.09-.06.17-.09.25-.14,1.86-1.04,4.02-2.12,5.07-1.03,1.01-1.94,1.59-2.77,1.79-.09.02-.19.04-.32.04-.1,0-.21,0-.31-.02-.08,0-.16-.01-.23-.01-.08,0-.11,0-.11.01-.08.06-.17.2-.26.35-.13.21-.28.45-.52.61-.66.45-1.65.71-2.63.71Z"/>
              <path class="cls-35" d="M18.78.57c.73,0,1.53.22,2.22.49.42.17.8.36,1.11.53,1.64.93,2.24,2.8,2.13,4.64-.02.47-.19,1.01-.31,1.46-.03.08-.06.16-.09.24-.14,1.78-.96,3.89-2.05,4.95-.72.7-1.68,1.49-2.64,1.72-.08.02-.16.03-.25.03-.18,0-.38-.03-.55-.03-.11,0-.2.01-.26.05-.31.21-.43.73-.8.97-.64.43-1.6.67-2.47.67-.32,0-.62-.03-.9-.09-.46-.1-.83-.24-1.13-.41-1.09-.57-1.29-1.38-1.29-1.38-.03-.75.53-1.33,1.4-1.66.11-.04.22-.06.31-.06.28,0,.49.13.8.14.01,0,.03,0,.04,0,.41,0,.52-.19.85-.45.4-.33.72-.45,1.05-.45s.65.1,1.09.22c.18.05.31.08.41.08.22,0,.32-.13.45-.48.14-.37.24-.76.45-1.14.45-.79.83-1.29,1.72-1.52-.04-.53.21-1.1.43-1.57.27-.61.98-1.98,1.74-1.98,0,0,0,0,0,0,.35,0,.64.06.88.16-.32-.62-.87-1.26-1.83-1.78-.6-.47-1.54-1.98-1.18-2.51-.43-.23-.79-.31-1.1-.31-.48,0-.85.18-1.18.18-.18,0-.36-.05-.54-.22.4-.35.93-.48,1.5-.48M18.78,0h0c-.77,0-1.4.21-1.88.63-.12.11-.19.26-.19.42,0,.16.07.32.19.43.27.25.58.37.93.37.22,0,.42-.05.61-.09.19-.04.37-.09.57-.09.15,0,.3.02.45.07.02.96.95,2.2,1.48,2.62.03.02.05.04.08.05.32.18.61.38.86.6-.84.26-1.49,1.34-1.9,2.26-.17.38-.39.87-.46,1.39-.85.34-1.26.95-1.66,1.66-.18.31-.28.62-.37.89-.04.11-.07.22-.12.33-.01.04-.03.07-.04.1-.04,0-.08-.02-.14-.04l-.17-.05c-.38-.1-.71-.19-1.07-.19-.5,0-.94.18-1.42.58-.06.05-.12.11-.18.15-.19.17-.19.17-.3.17-.11,0-.19-.03-.3-.05-.14-.04-.32-.09-.54-.09-.17,0-.34.03-.51.09-1.17.45-1.81,1.25-1.77,2.22,0,.04,0,.08.02.11.03.11.3,1.07,1.58,1.74.37.2.8.35,1.27.46.31.07.66.11,1.03.11,1.04,0,2.08-.29,2.79-.76.29-.2.46-.47.6-.7.04-.07.1-.17.15-.22.08,0,.13,0,.19.01.11,0,.22.02.33.02.15,0,.28-.01.4-.05.87-.21,1.83-.82,2.89-1.87,1.13-1.09,2.03-3.23,2.21-5.22.03-.07.05-.13.07-.2l.07-.24c.12-.42.25-.9.27-1.36.14-2.29-.77-4.23-2.42-5.16-.36-.2-.76-.39-1.17-.56-.62-.24-1.55-.53-2.44-.53h0Z"/>
            </g>
            <path class="cls-40" d="M21,1.06c.21.35.3.7.03.95-.72.69,1.25,1.82,2.1,2.37.86.54.33,1.99.33,1.99,0,0-1.34-.15-1.96.68-.63.83.02,2.51.02,2.51,0,0-.92.47-1.78.95-.86.48-1,2.59-1,2.59,0,0-1.16.2-1.99.16-.84-.05-1.04.28-1.5.72-.46.43-.62-.87-1.94.72-.33.39-.48.76-.52,1.09-1.09-.57-1.29-1.38-1.29-1.38-.03-.75.53-1.33,1.4-1.66.45-.16.7.07,1.11.08.44.01.55-.18.88-.45.78-.65,1.25-.46,2.14-.23.54.15.66.12.86-.41.14-.37.24-.76.45-1.14.45-.79.83-1.29,1.72-1.52-.04-.53.21-1.1.43-1.57.27-.61.98-1.99,1.74-1.98.35,0,.64.06.88.16-.32-.62-.87-1.26-1.83-1.78-.6-.47-1.54-1.98-1.18-2.51-1.48-.8-2.1.31-2.83-.35.9-.79,2.48-.48,3.72,0Z"/>
            <path class="cls-24" d="M18.12,12.32c-.26.4-.23,1.31.14,1.62.28.23,1.57.09,1.64-.36.03-.17-.25-.48-.29-.67-.06-.27-.08-.62-.02-.89.08-.37.77-1.25.59-1.57-.4-.69-2.03,1.38-2.06,1.88Z"/>
          </g>
        </g>
        <g>
          <g>
            <g>
              <path class="cls-13" d="M22.74,24.32s-.08,0-.12-.02c-.25-.09-6.25-2.13-7.41-4.28-1.09-2.01-1.09-3.72-.02-4.93.68-.77,1.35-.93,1.79-.93.21,0,.39.03.54.08.19-.6.74-1.31,2-1.49.14-.02.3-.03.47-.03,1.42,0,2.65.93,3.63,2.77,1.16,2.15-.44,8.29-.51,8.55-.03.1-.1.19-.19.24-.06.03-.12.05-.18.05Z"/>
              <path class="cls-35" d="M19.99,13.1c.87,0,2.14.41,3.29,2.56,1.1,2.04-.54,8.26-.54,8.26,0,0-6.1-2.06-7.2-4.1-1.36-2.53-.64-3.85-.07-4.49.55-.62,1.09-.8,1.5-.8.51,0,.85.25.85.25,0,0-.08-1.41,1.75-1.67.13-.02.26-.03.42-.03M19.99,12.33c-.17,0-.35.01-.52.04-1.24.18-1.88.8-2.19,1.43-.1-.01-.2-.02-.31-.02-.52,0-1.31.18-2.08,1.06-.83.94-1.51,2.63-.03,5.37,1.21,2.24,6.98,4.24,7.63,4.47.08.03.16.04.25.04.13,0,.25-.03.37-.09.19-.1.33-.28.38-.48.18-.67,1.68-6.58.48-8.83-1.32-2.46-2.89-2.97-3.97-2.97h0Z"/>
            </g>
            <g>
              <path class="cls-12" d="M15.36,29.99c-1.53,0-2.63-.55-3.27-1.64-.65-1.1-.44-1.97-.09-2.49-.51-.37-1.01-1.1-.79-2.36.28-1.59,1.62-2.65,3.87-3.06.15-.03.31-.04.48-.04,2.54,0,7.29,3.04,7.49,3.17.09.06.15.15.17.26.02.11,0,.21-.07.3-.16.21-3.96,5.29-6.36,5.73-.51.09-.98.14-1.42.14h0Z"/>
              <path class="cls-35" d="M15.55,20.79c2.46,0,7.28,3.11,7.28,3.11,0,0-3.84,5.16-6.12,5.58-.51.09-.96.13-1.35.13-1.82,0-2.58-.85-2.94-1.45-.94-1.59.21-2.41.21-2.41,0,0-1.36-.36-1.04-2.18.15-.84.73-2.23,3.56-2.74.13-.02.26-.03.41-.03M15.55,20.02c-.19,0-.38.02-.55.05-3.06.55-3.96,2.14-4.18,3.37-.22,1.23.18,2.04.68,2.52-.3.63-.38,1.52.25,2.6.71,1.2,1.95,1.83,3.61,1.83.46,0,.96-.05,1.49-.15,2.51-.46,6.19-5.32,6.6-5.88.13-.17.18-.39.14-.6-.04-.21-.16-.4-.34-.51-.51-.33-5.09-3.23-7.7-3.23h0Z"/>
            </g>
            <g>
              <path class="cls-11" d="M29.47,32.08c-.79,0-1.67-.24-2.64-.7-2.2-1.06-4.51-6.96-4.61-7.22-.04-.1-.03-.21.01-.31s.13-.17.23-.2c.16-.05,3.95-1.22,6.61-1.22.82,0,1.44.11,1.9.33,2.06.99,3.07,2.37,2.92,3.98-.12,1.26-.8,1.84-1.39,2.06.21.61.17,1.5-.74,2.38-.62.6-1.39.9-2.29.9h0Z"/>
              <path class="cls-35" d="M29.08,22.81c.69,0,1.3.08,1.73.29,2.59,1.24,2.78,2.74,2.7,3.59-.17,1.81-1.54,1.82-1.59,1.82h0s.89,1.09-.44,2.38c-.37.36-1,.79-2.02.79-.65,0-1.46-.18-2.47-.66-2.09-1.01-4.42-7.01-4.42-7.01,0,0,3.86-1.2,6.5-1.2M29.08,22.04c-2.73,0-6.57,1.19-6.73,1.24-.2.06-.37.21-.47.4-.09.19-.1.42-.02.62.25.64,2.51,6.31,4.8,7.42,1.02.49,1.96.74,2.81.74,1,0,1.86-.34,2.55-1.01.9-.87,1.05-1.76.93-2.44.61-.33,1.21-1.01,1.32-2.24.12-1.25-.33-3.01-3.13-4.36-.51-.25-1.19-.37-2.07-.37h0Z"/>
            </g>
            <g>
              <path class="cls-10" d="M22.84,24.28c-.1,0-.2-.04-.27-.11-.08-.07-.12-.18-.12-.28,0-.27.09-6.61,1.78-8.38,1.15-1.2,2.3-1.81,3.42-1.81.43,0,.85.09,1.26.27,1.17.51,1.51,1.33,1.53,1.97,0,0,.02,0,.03,0,.48,0,1.39.19,2,1.44.71,1.45.25,3.1-1.33,4.75-1.69,1.76-8.02,2.14-8.29,2.16h-.02Z"/>
              <path class="cls-35" d="M27.65,14.09c.45,0,.83.11,1.11.24,1.69.74,1.24,2.07,1.24,2.07,0,0,.19-.07.47-.07.46,0,1.15.2,1.66,1.22.37.77.72,2.24-1.26,4.31-1.6,1.67-8.03,2.04-8.03,2.04,0,0,.07-6.43,1.67-8.11,1.27-1.33,2.33-1.69,3.14-1.69M27.65,13.32s0,0,0,0c-1.23,0-2.48.65-3.7,1.93-1.76,1.85-1.88,7.95-1.89,8.64,0,.21.08.42.24.57.14.14.34.21.53.21.01,0,.03,0,.04,0,.69-.04,6.78-.43,8.54-2.27,2.15-2.25,1.95-4.06,1.4-5.18-.59-1.2-1.43-1.55-2.03-1.63-.13-.68-.58-1.46-1.73-1.96-.46-.2-.94-.3-1.42-.3h0Z"/>
            </g>
            <g>
              <path class="cls-15" d="M22.95,35.61c-.83,0-1.37-.39-1.68-.78-.26.2-.66.39-1.18.39h0c-.41,0-.85-.12-1.31-.36-1-.53-2.1-1.76-1.71-4.62.33-2.42,5.23-6.44,5.44-6.61.07-.06.16-.09.24-.09.02,0,.03,0,.05,0,.11.01.2.07.26.16.16.22,3.81,5.4,3.48,7.82-.3,2.27-1.3,3.65-2.88,4-.25.06-.49.08-.72.08Z"/>
              <path class="cls-35" d="M22.75,23.93s3.72,5.25,3.41,7.55c-.38,2.85-1.75,3.49-2.58,3.68-.23.05-.44.07-.63.07-1.27,0-1.59-1.02-1.59-1.02,0,0-.41.64-1.27.64-.31,0-.69-.08-1.12-.32-.75-.4-1.9-1.38-1.51-4.23.31-2.3,5.3-6.37,5.3-6.37M22.75,23.16c-.18,0-.35.06-.49.17-.53.44-5.23,4.33-5.58,6.86-.42,3.08.81,4.43,1.91,5.02.51.27,1.01.41,1.49.41s.83-.12,1.12-.27c.38.36.95.66,1.75.66.25,0,.52-.03.8-.09,1.22-.27,2.77-1.24,3.18-4.33.34-2.53-3.15-7.53-3.55-8.1-.12-.17-.31-.29-.53-.32-.03,0-.07,0-.1,0h0Z"/>
            </g>
            <g>
              <path class="cls-14" d="M23.03,19.29c-.12-.05-.26-.08-.37-.09-.1-.01-.2.13-.29.11-.07-.02-.16-.14-.19-.14-.17-.02-.21-.11-.4-.09-.37.05-.54.48-.93.25-.26-.15-.39-.72-.79-.25-.23.27-.03.69-.11.99-.1.42-.32.43-.68.55-.4.14-.73.66-.68,1.11,1.83.89,3.66,1.51,3.66,1.51,0,0,.5-1.9.77-3.95Z"/>
              <path class="cls-31" d="M18.77,21.32c-.08.1-.15.22-.2.33-.04.1.06.23.01.31-.04.06-.18.11-.19.13-.07.15-.17.17-.21.35-.06.37.29.66-.05.96-.22.2-.8.15-.48.67.18.3.65.25.91.41.37.23.31.44.32.81.01.43.4.9.84.99,1.42-1.47,2.57-3.02,2.57-3.02,0,0-1.66-1.07-3.52-1.95Z"/>
              <path class="cls-32" d="M19.31,26c.07.11.16.21.25.29.08.07.24.01.3.08.05.05.05.21.07.23.12.12.11.22.27.3.33.18.72-.07.9.34.12.27-.11.81.49.66.34-.08.43-.54.67-.74.33-.28.51-.16.87-.05.41.12.98-.1,1.2-.49-.96-1.8-2.07-3.37-2.07-3.37,0,0-1.53,1.25-2.94,2.75Z"/>
              <path class="cls-29" d="M23.94,26.91c.13-.03.25-.09.36-.15.09-.05.09-.22.17-.26.07-.03.21.02.24,0,.15-.08.24-.03.37-.17.27-.26.15-.71.6-.75.3-.03.73.35.78-.26.03-.35-.38-.58-.5-.86-.17-.4.01-.54.22-.84.24-.35.2-.96-.1-1.3-2.01.36-3.85.93-3.85.93,0,0,.71,1.84,1.7,3.65Z"/>
              <path class="cls-30" d="M26.28,22.76c0-.13,0-.27-.03-.38-.02-.1-.18-.15-.19-.24,0-.07.08-.19.08-.22-.03-.17.04-.24-.04-.41-.17-.34-.63-.36-.53-.8.07-.29.56-.59,0-.83-.32-.13-.67.18-.98.21-.44.03-.51-.18-.73-.47-.26-.34-.85-.49-1.26-.31-.28,2.02-.3,3.95-.3,3.95,0,0,1.97-.11,3.99-.49Z"/>
            </g>
            <path class="cls-48" d="M23.45,22.89c-.38.06-1.12.38-1.19.41.02-.07.34-1.12.38-1.33.04-.23.04-.89-.04-.91-.08-.02-.31.59-.37.98-.06.37.01,1.14.02,1.25,0,0,0,0-.01,0-.16-.11-.94-.66-1.13-.76-.2-.11-.84-.31-.88-.24-.04.07.46.47.82.65.31.16.99.32,1.17.36-.15.11-.92.69-1.07.84-.17.16-.56.7-.5.76.05.06.59-.29.88-.58.26-.26.63-.89.71-1.01,0,0,0,0,0,0,.04.12.38,1.1.47,1.3.1.21.49.75.57.71.07-.03-.1-.65-.28-1.01-.17-.33-.66-.9-.75-.99,0,0,.02,0,.02,0,0,0,0,0-.02-.02,0,0,0,0,0-.01,0,0,0,0,0,0,0,0,0,0,0,0,0,0,0,0,0,0,0,0,0,0,0,0,0,0,0,0,0,0,.08,0,1.17-.02,1.39-.05.23-.03.86-.24.85-.32,0-.08-.65-.11-1.05-.05Z"/>
            <path class="cls-27" d="M23.04,22.86c.23.43.07.97-.36,1.2s-.97.07-1.2-.36-.07-.97.36-1.2.97-.07,1.2.36Z"/>
            <path class="cls-33" d="M22.73,23.03c.15.27.04.61-.23.76s-.61.04-.76-.23-.04-.61.23-.76.61-.04.76.23Z"/>
            <path class="cls-33" d="M22.14,23.08v-.03c-.04-.05-.11-.07-.16-.05s-.07.1-.05.15v.03c.04.05.11.07.16.05s.07-.1.05-.15h0Z"/>
            <path class="cls-33" d="M22,23.02c-.66-.48-1.04-1.23-1.58-1.82-.05-.05-.13.02-.08.08.55.6.93,1.35,1.6,1.84.06.04.12-.05.06-.09h0Z"/>
            <path class="cls-33" d="M22.14,23.01c-.22-.52-.45-1.04-.64-1.58-.11-.33-.2-.67-.34-.99-.03-.07-.13-.01-.1.05.15.34.24.71.36,1.06.18.51.4,1.01.61,1.51.03.07.13.01.1-.05h0Z"/>
            <path class="cls-33" d="M22.22,22.85c-.21-.81-.48-1.71-.32-2.56.01-.07-.09-.1-.11-.03-.17.86.1,1.78.32,2.61.02.07.13.04.11-.02h0Z"/>
            <path class="cls-33" d="M22.36,23.09c.51-.25.68-.73.86-1.24.08-.23.16-.45.25-.67.04-.11.09-.22.14-.33.02-.04.1-.16.07-.16.07.01.1-.09.03-.11-.1-.02-.16.14-.19.21-.1.22-.18.44-.27.67-.21.57-.35,1.25-.94,1.54-.06.03-.01.13.05.1h0Z"/>
            <path class="cls-33" d="M22.79,23.02c.06-.03.01-.13-.05-.1s-.01.13.05.1h0Z"/>
            <path class="cls-33" d="M22.81,23.01c.26-.28.61-.48.92-.69.24-.17.5-.33.74-.5.02-.02.04-.05.02-.08h0c-.04-.06-.14,0-.1.05h0s.02-.05.02-.08c-.25.18-.52.35-.78.53-.3.21-.65.41-.91.68-.05.05.03.13.08.08h0Z"/>
            <path class="cls-33" d="M22.61,23.09c.3-.31.6-.62.88-.95.23-.27.5-.6.56-.96.01-.07-.1-.07-.11,0-.06.36-.37.7-.6.97-.25.3-.53.58-.8.86-.05.05.03.13.08.08h0Z"/>
            <path class="cls-33" d="M19.39,23.47c.27-.06.54-.12.82-.16.3-.04.59.02.89.07.21.03.41,0,.61-.04.09-.02.24-.04.3-.12.02-.02,0-.06-.02-.08-.02,0-.03-.01-.05-.01-.07,0-.08.11,0,.11,0,0,0,0,0,0,0-.03-.01-.05-.02-.08-.03.05-.26.08-.34.1-.26.06-.49.01-.75-.03-.51-.08-.98.04-1.47.14-.07.01-.05.12.02.11h0Z"/>
            <path class="cls-33" d="M19.45,24.18c.06-.03.01-.13-.05-.1s-.01.13.05.1h0Z"/>
            <path class="cls-33" d="M19.44,24.19c.93-.21,1.8-.6,2.73-.8.05-.01.06-.08.02-.1-.04-.02-.06-.03-.11-.03-.07,0-.07.1,0,.11l.05.02s.01-.07.02-.1c-.93.2-1.8.59-2.73.8-.07.02-.04.12.02.11h0Z"/>
            <path class="cls-33" d="M20.02,25.11c.51-.72,1.4-.97,1.97-1.62.05-.05-.03-.13-.08-.08-.57.66-1.47.92-1.99,1.65-.04.06.05.12.09.06h0Z"/>
            <path class="cls-33" d="M22.11,23.63c.06-.03.01-.13-.05-.1s-.01.13.05.1h0Z"/>
            <path class="cls-33" d="M22.03,23.56c-.26.87-.58,1.72-.82,2.59-.02.07.09.1.11.03.24-.88.56-1.73.82-2.59.02-.07-.09-.1-.11-.03h0Z"/>
            <path class="cls-33" d="M22.22,23.66c-.17.48-.22,1.04-.25,1.55-.02.35-.04.69-.04,1.04,0,.07.11.08.11,0,0-.33.02-.66.04-.99.03-.52.08-1.08.25-1.57.02-.07-.08-.1-.11-.03h0Z"/>
            <path class="cls-33" d="M22.32,23.7c.09.73.32,1.46.64,2.13.03.06.13.01.1-.05-.31-.66-.54-1.38-.63-2.1,0-.07-.12-.05-.11.02h0Z"/>
            <path class="cls-33" d="M22.58,23.61c.55.37,1.13.77,1.6,1.24.05.05.13-.03.08-.08-.48-.48-1.06-.88-1.62-1.26-.06-.04-.12.05-.06.09h0Z"/>
            <path class="cls-33" d="M22.74,23.48c.25.21.56.3.88.36.31.06.67.07.95.22.06.03.12-.06.06-.09-.56-.3-1.3-.12-1.81-.56-.05-.05-.13.03-.08.08h0Z"/>
            <path class="cls-33" d="M22.63,23.36c.37.16.82.18,1.22.17.33,0,.74-.02,1.03-.19.06-.04,0-.13-.05-.1-.29.17-.71.17-1.04.18-.37,0-.78-.02-1.13-.17-.07-.03-.1.08-.03.11h0Z"/>
            <path class="cls-33" d="M21.2,20.68c.25-.14.04-.53-.21-.39s-.04.53.21.39h0Z"/>
            <path class="cls-33" d="M21.88,20.51c.25-.14.04-.53-.21-.39s-.04.53.21.39h0Z"/>
            <path class="cls-33" d="M20.52,21.19s0-.01,0-.02c0,.02.01.04.02.06,0,0,0,0,0,0,0,.02,0,.04,0,.06,0,0,0,0,0,0,0,.02,0,.04,0,.06h0s-.02.03-.02.05c0,0,0,0,0,0-.01.02-.02.03-.04.04,0,0,0,0,0,0-.02.01-.03.02-.05.03,0,0,.01,0,.02,0,.11-.06.15-.19.09-.3s-.19-.15-.3-.09c-.06.03-.11.08-.13.15-.02.07,0,.13.03.19.06.11.19.15.3.09s.15-.19.09-.3h0Z"/>
            <path class="cls-33" d="M19.4,23.59c.25-.14.04-.53-.21-.39s-.04.53.21.39h0Z"/>
            <path class="cls-33" d="M19.49,24.38c.25-.14.04-.53-.21-.39s-.04.53.21.39h0Z"/>
            <path class="cls-33" d="M19.96,25.31c.25-.14.04-.53-.21-.39s-.04.53.21.39h0Z"/>
            <path class="cls-33" d="M19.96,25.31c.25-.14.04-.53-.21-.39s-.04.53.21.39h0Z"/>
            <path class="cls-33" d="M21.28,26.45c.25-.14.04-.53-.21-.39s-.04.53.21.39h0Z"/>
            <path class="cls-33" d="M21.07,26.06h0c-.11.06-.15.2-.09.3s.19.15.3.09l.03-.02c.11-.06.15-.19.09-.3s-.19-.15-.3-.09l-.03.02c-.11.06-.15.19-.09.3s.19.15.3.09h0c.11-.06.15-.2.09-.3s-.19-.15-.3-.09h0Z"/>
            <path class="cls-33" d="M22.07,26.42h.03c.11-.07.15-.21.09-.31s-.19-.15-.3-.09h-.03c-.11.07-.15.21-.09.31s.19.15.3.09h0Z"/>
            <path class="cls-33" d="M23.25,25.71v-.03c-.07-.11-.21-.15-.31-.09s-.15.19-.09.3v.03c.07.11.21.15.31.09s.15-.19.09-.3h0Z"/>
            <path class="cls-33" d="M24.41,25.03h.03c.11-.07.15-.21.09-.31s-.19-.15-.3-.09h-.03c-.11.07-.15.21-.09.31s.19.15.3.09h0Z"/>
            <path class="cls-33" d="M24.71,24.27l.05-.03c.11-.06.15-.19.09-.3s-.19-.15-.3-.09l-.05.03c-.11.06-.15.19-.09.3s.19.15.3.09h0Z"/>
            <path class="cls-33" d="M24.99,23.32v-.03c-.07-.11-.21-.15-.31-.09s-.15.19-.09.3v.03c.07.11.21.15.31.09s.15-.19.09-.3h0Z"/>
            <path class="cls-33" d="M24.55,22.03c.25-.14.04-.53-.21-.39s-.04.53.21.39h0Z"/>
            <path class="cls-33" d="M24.55,22.03h.03c.11-.07.15-.21.09-.31s-.19-.15-.3-.09h-.03c-.11.07-.15.21-.09.31s.19.15.3.09h0Z"/>
            <path class="cls-33" d="M24.09,21.5c.25-.14.04-.53-.21-.39s-.04.53.21.39h0Z"/>
            <path class="cls-33" d="M23.73,20.96s.01,0,.02,0c-.02,0-.04.01-.06.02,0,0,0,0,0,0-.02,0-.04,0-.06,0,0,0,0,0,0,0-.02,0-.04,0-.06,0,0,0,0,0,0,0-.02,0-.03-.02-.05-.02,0,0,0,0,0,0-.02-.01-.03-.02-.04-.04,0,0,0,0,0,0-.01-.02-.02-.03-.03-.05,0,0,0,.01,0,.02.06.11.19.15.3.09s.15-.19.09-.3c-.03-.06-.08-.11-.15-.13s-.13,0-.19.03c-.11.06-.15.19-.09.3s.19.15.3.09h0Z"/>
          </g>
          <path class="cls-39" d="M22.9,14.73c-.58-1.08-1.31-1.99-2.63-2.12-.56-.05-1.27.09-1.76.35-.5.27-.91.77-1.44.93-.51.16-1.1.23-1.54.59-.49.41-.91,1.03-1.11,1.64-.41,1.27.34,2.19.9,3.24l-.05-.09c.06.03,0-.16,0-.29,0-.17.01-.35.01-.52,0-.33-.04-.66.03-.99.14-.68.75-1.19,1.38-1.39.29-.09.62-.16.93-.15.29,0,.57.13.85.08.57-.11.71-1.12,1.18-1.41.54-.33,1.34-.52,1.96-.41.54.09.9.24,1.5,1.21-.05-.18-.15-.5-.24-.68Z"/>
          <path class="cls-41" d="M14.32,20.89c-1.21.22-2.3.63-2.82,1.84-.22.52-.31,1.24-.21,1.78.1.56.45,1.1.44,1.66,0,.53-.12,1.11.09,1.65.23.59.7,1.19,1.22,1.56,1.08.79,2.18.36,3.37.14l-.11.02c.05-.04-.15-.06-.27-.1-.16-.05-.33-.12-.49-.17-.31-.1-.64-.17-.93-.34-.6-.35-.9-1.08-.9-1.75,0-.31.04-.63.14-.93.09-.27.3-.5.34-.79.07-.57-.84-1.03-.97-1.56-.15-.61-.08-1.43.22-1.99.25-.48.51-.78,1.62-1.05-.19-.01-.52-.01-.72.02Z"/>
          <path class="cls-42" d="M17.28,30.95c-.16,1.22-.11,2.38.88,3.26.42.37,1.08.68,1.63.75.57.08,1.19-.09,1.71.1.5.17,1.02.46,1.6.43.64-.04,1.35-.3,1.86-.67,1.08-.79,1.01-1.97,1.18-3.16v.11c-.04-.06-.11.12-.19.23-.1.14-.22.27-.32.42-.19.27-.36.56-.61.78-.52.47-1.3.52-1.94.31-.29-.1-.59-.24-.84-.42-.23-.17-.38-.44-.64-.56-.52-.25-1.24.49-1.78.44-.63-.05-1.39-.37-1.83-.82-.38-.39-.58-.73-.5-1.86-.07.17-.17.49-.2.69Z"/>
          <path class="cls-47" d="M27.44,31.4c1.11.53,2.23.84,3.37.17.49-.29.98-.82,1.22-1.32.25-.52.29-1.15.62-1.6.32-.42.75-.83.9-1.39.16-.62.13-1.37-.07-1.98-.42-1.27-1.56-1.57-2.64-2.09l.1.05c-.07,0,.09.13.16.24.1.14.19.29.3.43.2.26.42.52.55.82.28.64.09,1.4-.3,1.94-.18.25-.41.49-.66.67-.23.17-.54.23-.73.44-.4.42.08,1.33-.13,1.83-.24.58-.78,1.2-1.35,1.49-.49.24-.87.33-1.93-.1.14.12.41.32.6.41Z"/>
          <path class="cls-43" d="M31.24,21.61c.85-.89,1.49-1.86,1.2-3.15-.12-.55-.48-1.18-.88-1.57-.41-.39-1.01-.63-1.33-1.08-.3-.44-.55-.97-1.04-1.28-.54-.34-1.26-.55-1.9-.55-1.34,0-1.98.99-2.81,1.86l.07-.08c-.02.06.15-.04.28-.08.16-.05.34-.09.5-.15.31-.11.62-.24.95-.27.69-.07,1.36.34,1.75.89.18.25.34.54.43.83.09.27.05.58.19.83.27.5,1.29.33,1.7.69.48.41.9,1.11,1,1.74.08.54.05.93-.69,1.8.16-.1.43-.3.57-.44Z"/>
          <path class="cls-24" d="M15.79,15.8c.48-.58.99-.84,1.72-1,.85-.18,1.76-.71,2.04-1.62.06-.21.06-.39.01-.55-.37.06-.73.17-1.02.32-.5.27-.91.77-1.44.93-.51.16-1.1.23-1.54.59-.49.41-.91,1.03-1.11,1.64-.3.94.02,1.68.44,2.42-.07-.25-.1-.51-.05-.8.12-.74.47-1.36.95-1.94Z"/>
          <path class="cls-24" d="M12.27,22.19v-.05c-1.1.98-.13,2.7-.11,3.9,0,.44.08,1.96.85,1.12.42-.46.17-1.37-.07-1.85-.28-.58-.61-1.17-.57-1.83.03-.65.44-1.13.66-1.7-.31-.12-.55.27-.76.41Z"/>
          <path class="cls-24" d="M19.53,33.29c-.46.06-.72-.19-1.15-.28-.05.05-.01.07-.01.13l-.06.03c.19.4.72.74,1.15.79.32.04,1.31-.21,1.24-.65-.09-.5-.89-.06-1.16-.02Z"/>
          <path class="cls-24" d="M26.27,14.53c-.13.1-.23.22-.15.32l.07.05c.06.16.58.03.8.06.39.06.63.3.89.59.24.26.53.67.94.48.34-.16.4-.57.26-.87-.35-.72-2.18-1.16-2.81-.63Z"/>
        </g>
      </g>
    </g>
  </g>
</svg>