<?xml version="1.0" encoding="UTF-8"?>
<svg xmlns="http://www.w3.org/2000/svg" xmlns:xlink="http://www.w3.org/1999/xlink" viewBox="0 0 60.42 31.07">
  <defs>
    <style>
      .cls-1 {
        fill: #008c26;
      }

      .cls-1, .cls-2, .cls-3, .cls-4, .cls-5 {
        mix-blend-mode: multiply;
        opacity: .67;
      }

      .cls-6 {
        fill: url(#radial-gradient-7);
      }

      .cls-7 {
        fill: url(#radial-gradient-6);
      }

      .cls-8 {
        fill: url(#radial-gradient-5);
      }

      .cls-9 {
        fill: url(#radial-gradient-4);
      }

      .cls-10 {
        fill: url(#radial-gradient-9);
      }

      .cls-11 {
        fill: url(#radial-gradient-8);
      }

      .cls-12 {
        fill: url(#radial-gradient-3);
      }

      .cls-13 {
        fill: url(#radial-gradient-2);
      }

      .cls-14 {
        fill: url(#linear-gradient-8);
      }

      .cls-15 {
        fill: url(#linear-gradient-7);
      }

      .cls-16 {
        fill: url(#linear-gradient-5);
      }

      .cls-17 {
        fill: url(#linear-gradient-6);
      }

      .cls-18 {
        fill: url(#linear-gradient-9);
      }

      .cls-19 {
        fill: url(#linear-gradient-4);
      }

      .cls-20 {
        fill: url(#linear-gradient-19);
        opacity: .38;
      }

      .cls-20, .cls-21, .cls-22, .cls-23 {
        mix-blend-mode: overlay;
      }

      .cls-21, .cls-24, .cls-25 {
        fill: #fff;
      }

      .cls-26 {
        fill: url(#radial-gradient);
      }

      .cls-27 {
        fill: url(#linear-gradient);
      }

      .cls-24 {
        opacity: .57;
      }

      .cls-28 {
        fill: #74d1ed;
      }

      .cls-29 {
        isolation: isolate;
      }

      .cls-30 {
        fill: #d0a8ff;
      }

      .cls-2 {
        fill: url(#linear-gradient-2);
      }

      .cls-3 {
        fill: url(#linear-gradient-3);
      }

      .cls-31 {
        fill: url(#radial-gradient-12);
      }

      .cls-32 {
        fill: url(#radial-gradient-13);
      }

      .cls-33 {
        fill: url(#radial-gradient-10);
      }

      .cls-34 {
        fill: url(#radial-gradient-11);
      }

      .cls-35 {
        fill: #0f6473;
      }

      .cls-22 {
        fill: #2b1d1d;
        opacity: .47;
      }

      .cls-36 {
        fill: #2f6e1f;
      }

      .cls-37 {
        fill: #0c7699;
      }

      .cls-38 {
        fill: url(#linear-gradient-10);
      }

      .cls-39 {
        fill: url(#linear-gradient-13);
      }

      .cls-40 {
        fill: url(#linear-gradient-14);
      }

      .cls-41 {
        fill: url(#linear-gradient-15);
      }

      .cls-42 {
        fill: url(#linear-gradient-16);
      }

      .cls-43 {
        fill: url(#linear-gradient-17);
      }

      .cls-44 {
        fill: url(#linear-gradient-18);
      }

      .cls-4 {
        fill: url(#linear-gradient-11);
      }

      .cls-5 {
        fill: url(#linear-gradient-12);
      }

      .cls-45 {
        fill: #b7f4ff;
      }
    </style>
    <linearGradient id="linear-gradient" x1="-887.2" y1="56.01" x2="-877.32" y2="56.01" gradientTransform="translate(515.99 -731.88) rotate(-52.98)" gradientUnits="userSpaceOnUse">
      <stop offset="0" stop-color="#25ba00"/>
      <stop offset=".51" stop-color="#d3f743"/>
      <stop offset="1" stop-color="#25ba00"/>
    </linearGradient>
    <linearGradient id="linear-gradient-2" x1="-876.76" y1="52.12" x2="-880.26" y2="55.41" gradientTransform="translate(515.99 -731.88) rotate(-52.98)" gradientUnits="userSpaceOnUse">
      <stop offset="0" stop-color="#008c26" stop-opacity="0"/>
      <stop offset="1" stop-color="#008c26"/>
    </linearGradient>
    <linearGradient id="linear-gradient-3" x1="-887.22" y1="59.34" x2="-881.38" y2="55.92" xlink:href="#linear-gradient-2"/>
    <linearGradient id="linear-gradient-4" x1="-887.11" y1="56.86" x2="-880.47" y2="56.86" xlink:href="#linear-gradient"/>
    <linearGradient id="linear-gradient-5" x1="-117.22" y1="65.63" x2="-111.69" y2="65.63" gradientTransform="translate(125.98 -75.91) rotate(-14.25)" xlink:href="#linear-gradient"/>
    <linearGradient id="linear-gradient-6" x1="-584.98" y1="-640.22" x2="-581.14" y2="-640.22" gradientTransform="translate(697.91 -535.23) rotate(-86.97)" xlink:href="#linear-gradient"/>
    <radialGradient id="radial-gradient" cx="-582.76" cy="-643.59" fx="-582.76" fy="-643.59" r="9.96" gradientTransform="translate(697.91 -535.23) rotate(-86.97)" gradientUnits="userSpaceOnUse">
      <stop offset=".06" stop-color="#a0dff3"/>
      <stop offset=".79" stop-color="#4bbfe3"/>
    </radialGradient>
    <linearGradient id="linear-gradient-7" x1="-577.03" y1="-643.95" x2="-576.44" y2="-646.18" gradientTransform="translate(697.91 -535.23) rotate(-86.97)" gradientUnits="userSpaceOnUse">
      <stop offset="0" stop-color="#74cafc"/>
      <stop offset="1" stop-color="#c4eaff"/>
    </linearGradient>
    <linearGradient id="linear-gradient-8" x1="-583.18" y1="-642.09" x2="-581.01" y2="-650.42" xlink:href="#linear-gradient-7"/>
    <radialGradient id="radial-gradient-2" cx="-581.47" cy="-643.83" fx="-581.47" fy="-643.83" r="2.86" gradientTransform="translate(697.91 -535.23) rotate(-86.97)" gradientUnits="userSpaceOnUse">
      <stop offset="0" stop-color="#91e3ff"/>
      <stop offset="1" stop-color="#2088ab"/>
    </radialGradient>
    <radialGradient id="radial-gradient-3" cx="-370.67" cy="111.33" fx="-370.67" fy="111.33" r="5.38" gradientTransform="translate(221.58 -321.33) rotate(-42.53)" xlink:href="#radial-gradient"/>
    <linearGradient id="linear-gradient-9" x1="-583.23" y1="-638.18" x2="-580.61" y2="-648.22" xlink:href="#linear-gradient-7"/>
    <linearGradient id="linear-gradient-10" x1="-370.12" y1="100.95" x2="-352.19" y2="100.95" gradientTransform="translate(402.4 -116.72) rotate(-5.07)" xlink:href="#linear-gradient"/>
    <linearGradient id="linear-gradient-11" x1="-351.16" y1="93.87" x2="-357.53" y2="99.85" gradientTransform="translate(402.4 -116.72) rotate(-5.07)" xlink:href="#linear-gradient-2"/>
    <linearGradient id="linear-gradient-12" x1="-370.16" y1="106.98" x2="-359.55" y2="100.78" gradientTransform="translate(402.4 -116.72) rotate(-5.07)" xlink:href="#linear-gradient-2"/>
    <linearGradient id="linear-gradient-13" x1="-369.96" y1="102.48" x2="-357.91" y2="102.48" gradientTransform="translate(402.4 -116.72) rotate(-5.07)" xlink:href="#linear-gradient"/>
    <radialGradient id="radial-gradient-4" cx="-210.96" cy="146.73" fx="-210.96" fy="146.73" r="5.18" gradientTransform="translate(153.08 -214.34) rotate(-28.28)" xlink:href="#radial-gradient"/>
    <radialGradient id="radial-gradient-5" cx="-216.22" cy="149.9" fx="-216.22" fy="149.9" r="5.19" gradientTransform="translate(153.08 -214.34) rotate(-28.28)" xlink:href="#radial-gradient"/>
    <radialGradient id="radial-gradient-6" cx="-207.02" cy="157.04" fx="-207.02" fy="157.04" r="5.03" gradientTransform="translate(153.08 -214.34) rotate(-28.28)" xlink:href="#radial-gradient"/>
    <radialGradient id="radial-gradient-7" cx="-205.52" cy="149.89" fx="-205.52" fy="149.89" r="5.19" gradientTransform="translate(153.08 -214.34) rotate(-28.28)" xlink:href="#radial-gradient"/>
    <radialGradient id="radial-gradient-8" cx="-215.07" cy="157.04" fx="-215.07" fy="157.04" r="5.03" gradientTransform="translate(153.08 -214.34) rotate(-28.28)" xlink:href="#radial-gradient"/>
    <radialGradient id="radial-gradient-9" cx="-211.04" cy="149" fx="-211.04" fy="149" r="2.35" gradientTransform="translate(153.08 -214.34) rotate(-28.28)" xlink:href="#radial-gradient-2"/>
    <radialGradient id="radial-gradient-10" cx="-213.17" cy="150.38" fx="-213.17" fy="150.38" r="2.22" gradientTransform="translate(153.08 -214.34) rotate(-28.28)" xlink:href="#radial-gradient-2"/>
    <radialGradient id="radial-gradient-11" cx="-212.82" cy="153.23" fx="-212.82" fy="153.23" r="1.96" gradientTransform="translate(153.08 -214.34) rotate(-28.28)" xlink:href="#radial-gradient-2"/>
    <radialGradient id="radial-gradient-12" cx="-209.35" cy="153.23" fx="-209.35" fy="153.23" r="1.95" gradientTransform="translate(153.08 -214.34) rotate(-28.28)" xlink:href="#radial-gradient-2"/>
    <radialGradient id="radial-gradient-13" cx="-208.83" cy="150.4" fx="-208.83" fy="150.4" r="2.25" gradientTransform="translate(153.08 -214.34) rotate(-28.28)" xlink:href="#radial-gradient-2"/>
    <linearGradient id="linear-gradient-14" x1="-215.16" y1="142.95" x2="-206.66" y2="142.95" gradientTransform="translate(153.08 -214.34) rotate(-28.28)" xlink:href="#linear-gradient-7"/>
    <linearGradient id="linear-gradient-15" x1="-221.94" y1="149.66" x2="-216.06" y2="149.66" gradientTransform="translate(153.08 -214.34) rotate(-28.28)" xlink:href="#linear-gradient-7"/>
    <linearGradient id="linear-gradient-16" x1="-219.63" y1="158.63" x2="-211.6" y2="158.63" gradientTransform="translate(153.08 -214.34) rotate(-28.28)" xlink:href="#linear-gradient-7"/>
    <linearGradient id="linear-gradient-17" x1="-210.7" y1="158.64" x2="-202.5" y2="158.64" gradientTransform="translate(153.08 -214.34) rotate(-28.28)" xlink:href="#linear-gradient-7"/>
    <linearGradient id="linear-gradient-18" x1="-205.83" y1="149.79" x2="-200.21" y2="149.79" gradientTransform="translate(153.08 -214.34) rotate(-28.28)" xlink:href="#linear-gradient-7"/>
    <linearGradient id="linear-gradient-19" x1="108.39" y1="171.84" x2="107.48" y2="178.19" gradientTransform="translate(-76.67 -171.58) rotate(8.21)" gradientUnits="userSpaceOnUse">
      <stop offset=".16" stop-color="#fafafa"/>
      <stop offset=".64" stop-color="#fafafa" stop-opacity="0"/>
    </linearGradient>
  </defs>
  <g class="cls-29">
    <g id="Layer_2" data-name="Layer 2">
      <g id="Layer_1-2" data-name="Layer 1">
        <g>
          <g>
            <g>
              <g>
                <path class="cls-27" d="M28.37,11.53c-.05,0-.11-.02-.15-.05-.01,0-.3-.25-.61-.7-.48-.7-1.01-1.84-.81-3.33.09-.7.34-1.42.73-2.14.55-1.01.98-1.9,1.27-2.64.59-1.47.6-2.1.6-2.17-.01-.09.03-.19.12-.23.04-.02.08-.03.12-.03.05,0,.1.02.14.05.03.02.73.57,1.46,1.51.8,1.02,1.73,2.62,1.63,4.51,0,.01,0,.02,0,.04-.02.29-.06.56-.12.82-.85,3.86-4.32,4.37-4.35,4.37-.01,0-.02,0-.03,0Z"/>
                <path class="cls-36" d="M29.64.46s.7.54,1.42,1.47h0c.82,1.05,1.67,2.58,1.58,4.35h0c-.02.27-.05.54-.11.82-.83,3.74-4.16,4.19-4.16,4.19,0,0-.27-.23-.57-.65-.44-.64-.96-1.72-.77-3.16.08-.62.3-1.31.71-2.06.6-1.09,1.01-1.97,1.29-2.67.58-1.43.62-2.11.61-2.26,0-.02,0-.03,0-.03M29.64,0c-.08,0-.16.02-.23.06-.15.09-.24.25-.23.42,0,.13-.03.74-.58,2.09-.29.74-.71,1.62-1.26,2.62-.41.75-.67,1.5-.76,2.22-.21,1.56.35,2.76.85,3.48.33.47.62.72.65.74.08.07.19.11.3.11.02,0,.04,0,.06,0,.04,0,3.66-.54,4.55-4.55.06-.26.1-.54.12-.84,0-.02,0-.04,0-.06.11-1.95-.85-3.61-1.67-4.66,0-.01-.02-.02-.02-.03-.74-.94-1.45-1.5-1.48-1.52-.08-.06-.18-.1-.28-.1h0Z"/>
              </g>
              <path class="cls-2" d="M29.64.46s.7.54,1.42,1.47c-.33.03-.56.16-.55.47.04.94-.33,1.93-.38,2.05,0-.21,0-2.29-.55-2.14-.11.03-.31.19-.56.44.66-1.64.61-2.29.61-2.29Z"/>
              <path class="cls-3" d="M32.64,6.29c-.02.27-.05.54-.11.81-.83,3.74-4.16,4.19-4.16,4.19,0,0-1.66-1.41-1.34-3.81.13.21.27.39.42.5,1.11.84,2.79-2.55,2.79-2.55,0,0-.41,1.72.71,2.05.5.14,1.12-.46,1.67-1.2Z"/>
              <path class="cls-21" d="M28.93,10.93s1.56-2.48,1.71-4.69c.15-2.21-.62-4.35-.62-4.35,0,0,1.43,1.79.92,4.6s-2,4.43-2,4.43Z"/>
              <g>
                <path class="cls-19" d="M28.24,11.38s2.28-3.53,2.1-6.73"/>
                <path class="cls-36" d="M28.05,11.25c.64-.97,1.19-2.03,1.61-3.13.41-1.1.7-2.27.68-3.47.09,1.19-.12,2.39-.47,3.54-.36,1.15-.83,2.25-1.44,3.31-.06.11-.21.15-.32.09-.11-.06-.15-.21-.09-.32,0,0,0,0,0-.01h0Z"/>
              </g>
            </g>
            <path class="cls-21" d="M29.64.49c.03.26.17,2.21-1.4,4.92-1.19,2.06-.78,4.17-.44,5.23-.44-.64-.96-1.72-.77-3.16.08-.62.3-1.31.71-2.06.6-1.09,1.01-1.97,1.29-2.67.58-1.43.62-2.11.61-2.26Z"/>
            <g>
              <path class="cls-21" d="M29.76,10.51s1.28-.58,2.09-2.22.51-2.66.23-2.76-.47.52-.48,1.77-1.84,3.21-1.84,3.21Z"/>
              <ellipse class="cls-21" cx="32.16" cy="4.8" rx=".3" ry=".59" transform="translate(-.3 2.85) rotate(-5.05)"/>
              <ellipse class="cls-21" cx="31.71" cy="4.93" rx=".14" ry=".28" transform="translate(-.38 4.45) rotate(-7.98)"/>
            </g>
          </g>
          <g>
            <g>
              <g>
                <path class="cls-16" d="M34.48,18.62c-.07.06-.14.1-.22.12-.17.04-.36-.01-.49-.14-.31-.33-.62-.65-.92-.94-2.51-2.43-4.8-3.68-4.83-3.7-.25-.12-.34-.43-.2-.67.13-.25.43-.34.67-.2.09.05,1.77.95,3.84,2.75,0,.01,0,0,0,0,.7.59,1.43,1.29,2.17,2.08.19.2.17.51-.03.71Z"/>
                <path class="cls-36" d="M34.49,18.63c-.08.04-.15.09-.23.13-.09.02-.18.02-.26,0-.18-.04-.29-.2-.41-.31l-.75-.7-1.55-1.33c-.52-.44-1.04-.88-1.58-1.3-.55-.42-1.1-.79-1.72-1.13h.01c-.28-.11-.39-.49-.24-.76.13-.28.52-.4.79-.24.47.24.93.51,1.37.8.89.57,1.72,1.22,2.52,1.92l.03.19s.01,0,.02-.06c.01-.02-.02-.12-.09-.14-.05-.02-.06-.01-.09,0l.13.03c.45.45.89.91,1.33,1.37l.65.69c.28.18.34.63.08.85ZM34.47,18.6c.23-.23.17-.62-.11-.79l-.71-.62c-.48-.41-.95-.83-1.41-1.25l.13.03s-.04.01-.09,0c-.07-.02-.1-.12-.09-.15,0-.06.02-.06.02-.07l.03.19c-.8-.67-1.62-1.31-2.48-1.91-.43-.29-.86-.6-1.31-.85-.19-.12-.45-.06-.56.14-.12.19-.05.48.16.58h.01c.56.36,1.15.74,1.71,1.12.57.38,1.14.77,1.67,1.21.53.43,1.03.91,1.5,1.41l.68.77c.12.12.22.27.38.31.08.02.16.03.24.01l.22-.11Z"/>
              </g>
              <path class="cls-21" d="M33.37,17.59l-.52.06c-2.51-2.43-4.8-3.68-4.83-3.7-.25-.12-.34-.43-.2-.67.13-.25.43-.34.67-.2.09.05,1.77.95,3.84,2.75-1.35-.84-2.64-1.71-2.76-1.73-.13-.02-.28.19-.37.31-.07.11.37.23,1.52.94,1.15.72,2.65,2.26,2.65,2.26Z"/>
            </g>
            <g>
              <g>
                <path class="cls-17" d="M28.57,11.27c.05.09.48.33.8.7.48.54.72,1.36-.76,2.46-.07.05-.14.1-.22.15-.96.65-1.57.42-2.4.39.03-.11.32-.35.35-.45-.16-.02-.53-.04-.65,0,.02-.05.06-.09.1-.13.16-.15.45-.27.61-.42.16-.16.57-.36.51-.56-.05-.17-.54-.5-.36-.65.18-.14.89,0,1.06.15.06-.16-.02-.31.03-.47.05-.15.18-.29.27-.43.1-.14.22-.28.33-.41.1-.11.21-.22.32-.32Z"/>
                <path class="cls-36" d="M28.58,11.26c.46.32,1.01.61,1.23,1.22.21.63-.19,1.25-.61,1.62-.44.38-.93.7-1.49.88-.56.17-1.15.06-1.71.07h0s-.07-.03-.07-.07c0,0,0-.02,0-.03.05-.14.12-.19.18-.27.06-.07.13-.16.14-.19l.08.13c-.1,0-.21-.01-.32,0-.1,0-.22.01-.28.03h-.02c-.06.03-.13,0-.15-.06-.02-.04,0-.08.01-.11.04-.06.09-.13.14-.18h0c.26-.22.49-.29.7-.51.12-.1.24-.17.32-.26.07-.11.08-.01-.02-.16-.09-.11-.2-.19-.29-.36-.02-.04-.05-.11-.04-.19.02-.09.09-.16.14-.19.11-.06.19-.05.28-.06.33.02.6.06.91.26l-.2.05c.05-.09-.02-.27.05-.48.08-.18.21-.29.3-.42.21-.25.47-.5.72-.7ZM28.57,11.29c-.22.25-.39.5-.59.77-.09.14-.2.28-.23.4-.04.1.04.27-.02.5-.02.06-.08.09-.14.08h-.02s-.03-.03-.03-.03c-.17-.1-.5-.16-.74-.15-.06,0-.12.01-.14.02,0,.01.01-.07.02-.01.04.08.15.19.25.3.05.06.12.11.15.27,0,.16-.08.24-.14.31-.12.12-.25.19-.36.27-.2.2-.53.33-.7.48h0s0,0,0,0c-.02.03-.04.05-.07.08l-.16-.17c.15-.04.25-.03.37-.03.11,0,.22.02.34.04h.02s.08.06.07.1v.02c-.08.14-.14.18-.21.26-.06.06-.14.15-.16.19l-.07-.1c.57.04,1.14.19,1.67,0,.53-.17.96-.58,1.35-.95.38-.38.71-.88.56-1.38-.13-.51-.63-.87-1.02-1.26Z"/>
              </g>
              <path class="cls-1" d="M28.57,11.27c.05.09.48.33.8.7-.23.24-.58.7-.86,1.47-.15.41-.07.73.11.99-.07.05-.14.1-.22.15-.96.65-1.57.42-2.4.39.03-.11.32-.35.35-.45-.16-.02-.53-.04-.65,0,.11-.23.51-.35.72-.55.16-.16.57-.36.51-.56-.05-.17-.54-.5-.36-.65.18-.14.89,0,1.06.15.06-.16-.02-.31.03-.47.05-.15.18-.29.27-.43.19-.26.41-.5.65-.74Z"/>
              <path class="cls-21" d="M28.57,11.27c.05.09.48.33.8.7.48.54.72,1.36-.76,2.46-.07.05-.14.1-.22.15-.96.65-1.57.42-2.4.39.03-.11.32-.35.35-.45-.16-.02-.53-.04-.65,0,.02-.05.06-.09.1-.13.45.09,1.34.23,1.88.09.76-.19,1.57-1.26,1.65-1.62.05-.19-.53-.78-1.08-1.27.1-.11.21-.22.32-.32Z"/>
              <g>
                <g>
                  <path class="cls-26" d="M21,16.78c-.44,0-.82-.16-1.07-.46-.23-.26-.33-.61-.3-1.01-.53-.17-.98-.47-1-1.26-.02-.58.19-1.36.69-1.71.14-.1.3-.18.47-.24-.31-.02-.57-.16-.79-.42-.44-.53-.56-1.46,0-2.04.11-.12.25-.21.38-.29.07-.04.14-.09.21-.14.02-.02.06-.05.1-.08-.05-.08-.1-.14-.14-.23-.32-.59-.21-1.41.24-1.88.34-.35.74-.52,1.23-.52.23,0,.49.04.78.12.16.04.31.1.45.16-.01-.03-.02-.05-.03-.08-.09-.29,0-.5.08-.62.29-.39.97-.43,1.25-.43.12,0,.24,0,.36.02.19.02.5.07.76.19.13-.18.35-.28.62-.28.61,0,1.4.49,1.67.74.93.87,1.68,2.76,1.2,3.57-.21.35-.53.49-.83.62-.27.12-.5.22-.61.46-.37.81-.79,1.53-1.32,2.38-.24.39-.53.71-.85.96-.09.07-.23.14-.38.21-.15.07-.42.2-.46.28-.04.07-.11.12-.19.12-.02,0-.04,0-.05,0-.08-.02-.14-.1-.15-.18-.1.13-.19.29-.27.42-.05.09-.1.17-.15.24-.08.11-.14.22-.2.33-.22.38-.43.73-1.01.93-.1.04-.2.06-.3.08-.13.03-.26.04-.38.04ZM20.68,11.98c.22,0,.44.03.66.05.23.02.46.04.69.04h0c-.31-.11-.64-.13-.86-.13-.09,0-.19,0-.27.01-.07,0-.15.02-.22.03ZM23.47,8.19c.07.18.16.38.24.56.03.08.06.14.09.19-.07-.23-.21-.55-.35-.79,0,.01.01.03.02.04Z"/>
                  <path class="cls-37" d="M25.27,5.8c.53,0,1.27.44,1.53.68.87.81,1.59,2.59,1.16,3.31-.35.6-1.17.5-1.44,1.1-.37.82-.82,1.58-1.31,2.35-.21.34-.48.66-.8.9-.22.17-.82.35-.9.58l.05-.42c-.39.07-.64.67-.84.97-.35.53-.45.95-1.11,1.18-.09.03-.18.06-.26.07-.12.02-.24.04-.35.04-.74,0-1.29-.52-1.15-1.41-.61-.17-1-.42-1.02-1.12-.02-.52.17-1.24.6-1.54.36-.25.76-.32,1.17-.32.47,0,.96.09,1.43.09.21,0,.41-.02.6-.07-.36-.36-.95-.47-1.46-.47-.1,0-.2,0-.29.01-.35.03-.69.15-1.01.15-.26,0-.5-.08-.72-.35-.4-.49-.47-1.29,0-1.77.16-.17.38-.26.56-.41.35-.27.21-.19,0-.56-.27-.5-.19-1.23.21-1.64.32-.34.69-.46,1.08-.46.23,0,.47.04.72.11.61.16,1.01.47,1.36,1.01.07.1.25.6.44,1,.13.29.26.52.35.52,0,0,0,0,0,0,.47-.06-.32-1.44-.44-1.61-.08-.12-.2-.22-.33-.33-.29-.23-.62-.47-.71-.77-.18-.57.47-.79,1.14-.79.11,0,.22,0,.33.02.36.04.69.13.86.28.08-.27.29-.37.54-.37M25.27,5.39c-.28,0-.51.09-.68.24-.25-.09-.51-.13-.68-.15-.12-.01-.25-.02-.38-.02-.39,0-1.09.07-1.42.52-.11.15-.16.32-.16.5-.04-.01-.08-.02-.13-.04-.31-.08-.58-.13-.83-.13-.54,0-1,.2-1.37.58-.51.52-.63,1.45-.27,2.11.02.03.03.06.05.08-.05.03-.09.06-.14.09-.13.08-.29.18-.42.32-.64.66-.51,1.69-.01,2.3.12.14.25.26.39.34-.01,0-.03.02-.04.03-.57.39-.8,1.25-.78,1.89.02.84.5,1.2,1,1.39,0,.39.12.73.35,1,.29.34.72.53,1.23.53.14,0,.28-.01.43-.04.09-.02.21-.04.32-.09.65-.23.89-.63,1.12-1.02.06-.1.12-.21.19-.32.05-.07.1-.16.15-.25.03-.05.06-.11.1-.17.03.02.06.03.1.04.03,0,.07.01.1.01.15,0,.29-.09.36-.22.06-.06.26-.15.37-.21.15-.07.3-.15.41-.23.35-.26.65-.6.91-1.02.53-.85.96-1.58,1.33-2.4.07-.16.23-.24.51-.36.3-.13.68-.3.92-.71.59-.99-.33-2.97-1.24-3.82-.3-.28-1.13-.79-1.81-.79h0Z"/>
                </g>
                <path class="cls-15" d="M23.87,5.89s-.09.07-.15.09c-.65.34-.83.87-.61,1.44-.29-.23-.62-.47-.71-.77-.21-.66.7-.85,1.47-.77Z"/>
                <path class="cls-14" d="M21.73,6.83c.61.16,1.01.47,1.36,1,.07.1.25.6.44,1-.04.1-.13.11-.3-.03-.47-.37-1.02-1.37-1.08-1.49.03.1.3,1.13.17,1.02-.14-.11-.88-1.27-1.51-.85-.63.41-.26,1.19-.12,1.86.14.67-.42.42-.91.94-.49.52-.09,1.2.9,1.07,1-.13,2.67.41,2.67.41,0,0-.95.99-2.23.88-1.28-.12-1.33,0-1.4,1.2-.07,1.16,1.24.55,1.34.51-.03.05-.28.52-.27,1.31,0,.27.24.59.58.89-.91.19-1.66-.35-1.5-1.37-.61-.17-1-.42-1.02-1.12-.02-.52.17-1.24.6-1.54.97-.68,2.19-.03,3.2-.3-.43-.43-1.19-.5-1.75-.46-.63.06-1.23.41-1.73-.19-.4-.49-.47-1.29,0-1.77.16-.17.38-.26.56-.41.35-.27.21-.19,0-.56-.27-.5-.19-1.23.21-1.64.51-.53,1.13-.53,1.81-.35Z"/>
                <path class="cls-13" d="M25.25,8.09c-.21,0-.34.24-.51.29-.26.07-.34-.02-.44.29-.08.25,0,.37.02.62,0,.09-.04.2-.02.29.03.14.16.25.2.4.07.26-.01.38-.22.19-.28-.25-.36-.73-.71-.88-.32-.14-.85.02-.98.33-.11.27-.08.24-.32.39-.21.13-.26.3-.21.52.01.07.11.18.09.25-.03.1-.15.1-.2.19-.08.16,0,.46.14.55.18.11.39.07.58.23.2.17.36.35.61.42-.01.26-.45.18-.59.28-.11.08-.31.45-.34.59-.07.28.17.28.19.51.02.23-.26.25-.18.48.07.22.35.16.52.24.2.09.22.27.41.35.36.15.91-.17,1.17-.42.14-.14.27-.31.35-.49.09-.19.04-.49.14-.63l.58.08c-.1-.21.24-.58.33-.78.13-.28.26-.56.39-.84.22-.49.35-1.17.34-1.71-.01-.35.09-.81-.22-1.03-.25-.17-.47-.1-.68-.35-.12-.14-.21-.36-.43-.35Z"/>
                <path class="cls-24" d="M25.11,10.51c-.42-.03-.83.28-1.04.65-.16.29-.32.88-.22,1.22.17.59.41.72.85.63.68-.14,1-.89,1.05-1.51.03-.46-.08-.95-.63-.99Z"/>
                <g>
                  <path class="cls-35" d="M24.69,12.38s-.05-.05-.06-.01c0,.04.05.05.06.01h0Z"/>
                  <path class="cls-35" d="M24.63,12.36c-.11.15-.27.22-.43.27-.17.06-.34.11-.5.18-.37.14-.77.11-1.16.13-.04,0-.04.07,0,.06.41-.02.82,0,1.22-.15.31-.12.71-.17.92-.45.02-.03-.02-.08-.05-.04h0Z"/>
                  <path class="cls-35" d="M24.6,12.08c-.48.01-.96-.12-1.42-.23-.19-.04-.38-.08-.56-.11-.12-.02-.26-.06-.38,0-.04.02,0,.07.03.05.12-.06.32,0,.44.03.2.04.39.08.59.12.43.1.86.21,1.3.2.04,0,.04-.06,0-.06h0Z"/>
                  <path class="cls-35" d="M24.58,11.94s-.05-.05-.06-.01c0,.04.05.05.06.01h0Z"/>
                  <path class="cls-35" d="M24.56,11.9c-.23-.05-.42-.2-.64-.28-.23-.09-.48-.13-.73-.19-.04,0-.05.05-.01.06.25.06.51.11.75.2.21.08.39.23.62.27.04,0,.05-.05.01-.06h0Z"/>
                  <path class="cls-35" d="M24.87,11.67c-.4-.38-.91-.61-1.39-.87-.33-.18-.7-.56-1.11-.49-.04,0-.04.07,0,.06.21-.04.41.07.58.17.18.1.35.23.53.33.46.25.95.47,1.34.84.03.03.07-.02.04-.05h0Z"/>
                  <path class="cls-35" d="M24.84,11.39c-.13-.12-.22-.27-.31-.42-.1-.15-.22-.27-.34-.4-.29-.31-.6-.6-.9-.9-.03-.03-.07.02-.04.05.3.29.61.59.9.9.14.14.26.28.37.45.08.13.16.26.28.36.03.03.07-.02.04-.05h0Z"/>
                  <path class="cls-35" d="M24.92,11.38s-.05-.05-.06-.01c0,.04.05.05.06.01h0Z"/>
                  <path class="cls-35" d="M24.92,11.38c.05-.2-.01-.4-.09-.59-.09-.23-.17-.45-.27-.67-.22-.46-.49-.89-.81-1.28-.03-.03-.08,0-.05.03.28.35.53.73.73,1.13.11.21.2.44.29.66.08.22.19.45.14.7,0,.04.05.05.06.01h0Z"/>
                  <path class="cls-35" d="M25.07,11.18s-.05-.05-.06-.01c0,.04.05.05.06.01h0Z"/>
                  <path class="cls-35" d="M25.05,11.22c.09-.07.09-.22.1-.32,0-.16,0-.32-.04-.47-.1-.54-.33-1.04-.48-1.57-.01-.04-.07-.02-.06.02.13.44.31.86.42,1.31.05.18.08.36.09.54,0,.11.04.37-.06.44-.03.02,0,.08.03.05h0Z"/>
                  <path class="cls-35" d="M25.23,11.51c.09-.18.1-.39.12-.59.02-.25.05-.5.08-.75.04-.5.04-1-.05-1.5,0-.04-.07-.02-.06.02.09.5.09,1.01.04,1.51-.02.22-.05.45-.07.67-.02.21-.03.43-.12.62-.02.04.04.07.06.03h0Z"/>
                  <path class="cls-35" d="M24.76,12.62c-.23.31-.66.48-1.02.57-.16.04-.33.05-.49.07-.06,0-.18.02-.18.1,0,.04.07.04.06,0,0-.03.33-.06.37-.06.17-.02.34-.07.5-.12.29-.11.62-.26.81-.52.02-.03-.02-.08-.05-.04h0Z"/>
                  <path class="cls-35" d="M25.21,12.61s-.05-.05-.06-.01c0,.04.05.05.06.01h0Z"/>
                  <path class="cls-35" d="M25.16,12.58c-.29.05-.57-.06-.86-.09-.32-.03-.64-.1-.97-.08-.04,0-.04.07,0,.06.33-.02.66.06.99.09.28.03.56.14.84.09.04,0,.04-.07,0-.06h0Z"/>
                  <path class="cls-35" d="M25.52,12.27c-.76-.26-1.51-.53-2.3-.7-.04,0-.05.05-.01.06.78.17,1.54.44,2.3.7.04.01.05-.05.01-.06h0Z"/>
                  <path class="cls-35" d="M25.54,11.97c-.11-.04-.18-.13-.25-.22-.07-.08-.14-.15-.22-.22-.17-.15-.37-.28-.56-.4-.43-.27-.81-.61-1.3-.77-.04-.01-.05.05-.01.06.48.16.86.5,1.28.77.22.14.43.27.61.45.13.13.23.32.41.39.04.01.07-.04.03-.06h0Z"/>
                  <path class="cls-35" d="M25.67,11.67c-.13-.38-.36-.7-.67-.97-.18-.16-.39-.31-.58-.46-.17-.13-.34-.32-.54-.4-.04-.01-.07.04-.03.06.19.07.36.26.52.39.18.14.37.28.55.43.31.26.55.59.68.97.01.04.07.02.06-.02h0Z"/>
                  <path class="cls-35" d="M25.89,11.37s-.05-.11-.06-.16c-.02-.08-.03-.17-.05-.25-.03-.16-.08-.3-.14-.45-.18-.43-.38-.86-.65-1.25-.02-.03-.08,0-.05.03.28.4.48.85.67,1.31.06.15.09.3.12.46.02.1.03.28.11.36.03.03.07-.02.04-.05h0Z"/>
                  <path class="cls-35" d="M24.96,13.44c-.6.06-1.21.08-1.81.18-.04,0-.04.07,0,.06.6-.11,1.21-.12,1.81-.18.04,0,.04-.07,0-.06h0Z"/>
                  <path class="cls-35" d="M24.77,13.14c-.22.07-.43.14-.66.16-.04,0-.04.07,0,.06.23-.02.45-.1.68-.16.04-.01.02-.07-.02-.06h0Z"/>
                  <path class="cls-35" d="M22.57,13.03s0-.02,0-.02c0-.03-.01-.07-.05-.08-.03,0-.07.01-.08.05,0,0,0,.02,0,.02,0,.03.01.07.05.07.03,0,.07-.01.08-.05h0Z"/>
                  <path class="cls-35" d="M22.26,11.74s0,0-.01,0c-.03,0-.07.01-.08.05,0,.03.01.07.05.08,0,0,0,0,.01,0,.03,0,.07-.01.08-.05,0-.03-.01-.07-.05-.08h0Z"/>
                  <path class="cls-35" d="M22.39,10.35c.02-.08-.11-.11-.12-.03-.02.08.11.11.12.03h0Z"/>
                  <path class="cls-35" d="M23.22,11.5s0,0,0-.01c0-.03-.01-.07-.05-.08-.03,0-.07.01-.08.05,0,0,0,0,0,.01,0,.03.01.07.05.08.03,0,.07-.01.08-.05h0Z"/>
                  <path class="cls-35" d="M23.28,11.65s0,0,0-.01c0-.03-.01-.07-.05-.08-.03,0-.07.01-.08.05,0,0,0,0,0,.01,0,.03.01.07.05.08.03,0,.07-.01.08-.05h0Z"/>
                  <path class="cls-35" d="M23.26,10.41s0,0,0-.01c0-.03-.01-.07-.05-.08-.03,0-.07.01-.08.05,0,0,0,0,0,.01,0,.03.01.07.05.08.03,0,.07-.01.08-.05h0Z"/>
                  <path class="cls-35" d="M23.17,9.64s0,0,0,0c-.02.08.11.11.12.03,0,0,0,0,0,0,.02-.08-.11-.11-.12-.03,0,0,0,0,0,0-.02.08.11.11.12.03,0,0,0,0,0,0,.02-.08-.11-.11-.12-.03h0Z"/>
                  <path class="cls-35" d="M23.76,8.84c.02-.08-.11-.11-.12-.03-.02.08.11.11.12.03h0Z"/>
                  <path class="cls-35" d="M23.76,8.84c.02-.08-.11-.11-.12-.03-.02.08.11.11.12.03h0Z"/>
                  <path class="cls-35" d="M23.76,8.84c.02-.08-.11-.11-.12-.03-.02.08.11.11.12.03h0Z"/>
                  <path class="cls-35" d="M24.61,8.75s0,0-.01,0c-.03,0-.07.01-.08.05,0,.03.01.07.05.07,0,0,0,0,.01,0,.03,0,.07-.01.08-.05,0-.03-.01-.07-.05-.08h0Z"/>
                  <path class="cls-35" d="M23.9,9.92s0,0,0-.01c0-.03-.01-.07-.05-.08-.03,0-.07.01-.08.05,0,0,0,0,0,.01,0,.03.01.07.05.08.03,0,.07-.01.08-.05h0Z"/>
                  <path class="cls-35" d="M25.03,9.3c.02-.08-.11-.11-.12-.03-.02.08.11.11.12.03h0Z"/>
                  <path class="cls-35" d="M25.03,9.3s0-.02,0-.02c0-.03-.01-.07-.05-.08-.03,0-.07.01-.08.05,0,0,0,.02,0,.02,0,.03.01.07.05.08.03,0,.07-.01.08-.05h0Z"/>
                  <path class="cls-35" d="M25.4,8.68s-.01-.08-.06-.09c-.03,0-.07.01-.08.05,0,.03.01.07.05.08,0,0,0,0,0,0-.06-.01-.04-.1-.04-.06,0,.03.01.07.05.08.03,0,.07-.01.08-.05h0Z"/>
                  <path class="cls-35" d="M23.38,12.46s0,0,0-.01c0-.03-.01-.07-.05-.07-.03,0-.07.01-.08.05,0,0,0,0,0,.01,0,.03.01.07.05.08.03,0,.07-.01.08-.05h0Z"/>
                  <path class="cls-35" d="M23.38,12.46s0,0,0-.01c0-.03-.01-.07-.05-.07-.03,0-.07.01-.08.05,0,0,0,0,0,.01,0,.03.01.07.05.08.03,0,.07-.01.08-.05h0Z"/>
                  <path class="cls-35" d="M23.15,13.42s0,0,0-.01c0-.03-.01-.07-.05-.08-.03,0-.07.01-.08.05,0,0,0,0,0,.01,0,.03.01.07.05.08.03,0,.07-.01.08-.05h0Z"/>
                  <path class="cls-35" d="M23.15,13.42c0-.05-.01-.1-.06-.12-.03,0-.07.02-.08.05,0,.04.01.07.05.08,0,0-.02,0-.02-.01,0,0,0,0,0,0,0,0,0-.01-.01-.02,0,.01,0-.02,0,0,0,.01,0-.02,0,0,0,.03.01.07.05.08.03,0,.07-.01.08-.05h0Z"/>
                  <path class="cls-35" d="M23.2,13.71c.02-.08-.11-.11-.12-.03-.02.08.11.11.12.03h0Z"/>
                  <path class="cls-35" d="M24.18,13.36c.02-.08-.11-.11-.12-.03-.02.08.11.11.12.03h0Z"/>
                  <path class="cls-35" d="M24.18,13.36s0-.03,0-.04c0-.03-.03-.04-.06-.05-.03-.01-.07.02-.08.05,0,.04.02.06.05.08-.02,0-.04-.02-.04-.05,0,0,0-.02,0-.01,0,.03.01.07.05.07.03,0,.07-.01.08-.05h0Z"/>
                </g>
                <path class="cls-35" d="M24.62,11.25c-.26.21-.33.62-.29.94.05.34.47.64.69.26l.32-.16c.22-.23.37-.66.13-.95-.21-.25-.59-.31-.85-.09Z"/>
                <g>
                  <path class="cls-12" d="M22.63,17.48c-.28,0-.54-.03-.78-.09-.92-.22-1.24-.8-1.26-.82-.19-.6.08-1.19.73-1.65.2-.13.37-.15.53-.15h.13c.06,0,.12,0,.18-.01.17-.04.21-.09.32-.26l.09-.13c.41-.57.81-.62,1.28-.62,0,0,.33,0,.33,0,.22,0,.25-.02.26-.02,0,0,.03-.04.05-.23l.02-.25c.02-.21.03-.42.09-.64.16-.57.32-1.03.88-1.39-.08-.38,0-.79.06-1.09.11-.62.38-1.68,1-1.83.06-.01.12-.03.17-.04-.31-.23-.68-.4-1.11-.52-.46-.21-1.36-.97-1.42-1.56-.08-.01-.17-.02-.24-.02-.31,0-.52.11-.72.21-.18.09-.34.18-.55.18-.12,0-.24-.03-.37-.1-.05-.03-.09-.07-.1-.13-.01-.06,0-.12.03-.16.35-.51,1.04-.78,2.01-.78.25,0,.5.02.74.05.33.05.64.11.88.18,1.23.34,2.13,1.45,2.42,2.98.06.3.05.64.05.95v.15c0,.08-.01.14-.02.21.23,1.29-.01,2.93-.57,3.84-.54.87-1.06,1.44-1.59,1.72-.13.07-.29.1-.43.12-.08.01-.21.04-.24.06-.05.05-.08.17-.12.29-.05.17-.11.36-.25.51-.52.58-1.52,1.03-2.37,1.05h-.13Z"/>
                  <path class="cls-37" d="M24.26,5.58c.24,0,.49.02.72.05.32.04.61.11.85.17,1.29.35,2.03,1.54,2.28,2.82.07.33.05.73.04,1.06,0,.06-.01.12-.02.18.21,1.25.02,2.85-.54,3.76-.37.61-.9,1.32-1.51,1.65-.22.12-.6.09-.72.22-.17.2-.17.57-.38.81-.5.56-1.46.96-2.22.98-.04,0-.08,0-.12,0-.28,0-.52-.03-.73-.08-.85-.2-1.13-.72-1.13-.72-.15-.51.13-1.01.67-1.38.15-.1.28-.12.42-.12.04,0,.09,0,.13,0,.07,0,.15,0,.23-.02.3-.07.35-.22.53-.47.35-.48.65-.53,1.11-.53.1,0,.2,0,.32,0,.02,0,.05,0,.07,0,.34,0,.41-.06.45-.43.03-.28.03-.56.11-.86.17-.63.34-1.03.92-1.35-.12-.36-.05-.79.02-1.16.08-.47.33-1.54.85-1.67.16-.04.3-.06.44-.06.07,0,.14,0,.2.01-.33-.37-.82-.71-1.57-.9-.49-.22-1.41-1.09-1.25-1.52-.17-.04-.32-.06-.46-.06-.63,0-.91.39-1.27.39-.08,0-.17-.02-.27-.07.36-.53,1.1-.69,1.84-.69M24.26,5.18h0c-1.03,0-1.79.3-2.18.87-.07.1-.09.21-.06.33.03.11.1.21.2.26.15.08.31.12.46.12.25,0,.46-.11.64-.2.19-.1.37-.19.63-.19.02,0,.05,0,.07,0,.18.66,1.03,1.35,1.47,1.55.02,0,.04.02.07.02.25.07.48.15.69.26-.53.32-.79,1.18-.91,1.89-.05.29-.12.66-.08,1.03-.53.38-.7.88-.86,1.43-.07.25-.08.47-.1.68,0,.08-.01.16-.02.25,0,.03,0,.05,0,.07-.01,0-.02,0-.04,0h-.06s-.13,0-.13,0h-.2c-.49,0-.97.05-1.44.7-.03.05-.07.09-.1.14q-.1.15-.19.17s-.08.01-.14.01h-.06s-.07,0-.07,0c-.18,0-.4.02-.65.19-.73.51-1.03,1.18-.83,1.84,0,.03.02.05.03.08.04.07.4.68,1.39.92.25.06.53.1.83.1h.13c.9-.03,1.96-.5,2.51-1.12.17-.19.24-.41.29-.58.02-.06.04-.13.06-.18.04,0,.09-.02.13-.03.16-.03.34-.06.5-.15.57-.3,1.11-.88,1.67-1.79.58-.95.83-2.58.61-3.98,0-.05.01-.1.01-.15v-.18c0-.31.02-.66-.05-.99-.31-1.6-1.27-2.77-2.57-3.13-.28-.08-.59-.14-.9-.18-.27-.03-.53-.05-.77-.05h0Z"/>
                </g>
                <path class="cls-18" d="M24.98,5.63c.21.2.33.43.19.65-.37.6,1.18,1.03,1.86,1.26.68.22.57,1.31.57,1.31,0,0-.94.13-1.23.81-.29.68.45,1.72.45,1.72,0,0-.55.48-1.06.97-.51.48-.23,1.96-.23,1.96,0,0-.76.34-1.34.46-.58.11-.66.38-.9.75-.24.38-.58-.49-1.21.84-.16.33-.2.61-.17.84-.85-.2-1.13-.72-1.13-.72-.15-.51.13-1.01.67-1.38.28-.19.49-.07.78-.14.3-.07.35-.22.53-.47.42-.58.78-.54,1.43-.53.4,0,.48-.04.52-.43.03-.28.03-.56.11-.86.17-.63.34-1.03.92-1.35-.12-.36-.05-.79.02-1.16.08-.47.33-1.54.85-1.67.24-.06.45-.07.64-.04-.33-.37-.82-.71-1.57-.9-.49-.22-1.41-1.09-1.25-1.52-1.16-.29-1.39.58-2.01.25.48-.7,1.62-.76,2.56-.65Z"/>
                <path class="cls-25" d="M24.96,13.88c-.11.32.07.94.38,1.09.23.11,1.1-.21,1.07-.53-.01-.12-.25-.29-.32-.41-.09-.18-.16-.41-.17-.61,0-.27.31-1,.13-1.19-.39-.41-1.16,1.31-1.09,1.65Z"/>
              </g>
            </g>
          </g>
          <g>
            <g>
              <g>
                <path class="cls-38" d="M49.08,22.63c-3.53,0-5.85-1.93-5.94-2.01-.09-.08-.14-.19-.15-.31,0-.03-.02-.71.2-1.67.36-1.49,1.25-3.59,3.5-5.14,1.04-.72,2.32-1.26,3.77-1.61,2.04-.49,3.77-.99,5.12-1.5,2.71-.99,3.56-1.75,3.65-1.84.08-.1.2-.15.33-.15.04,0,.09,0,.13.02.16.05.28.2.29.37,0,.07.12,1.66-.24,3.77,0,.01,0,.03,0,.04-.4,2.31-1.43,5.53-4.09,7.67-.02.02-.04.03-.06.04-.42.33-.82.61-1.24.84-1.71.97-3.47,1.46-5.25,1.46Z"/>
                <path class="cls-36" d="M59.56,8.82s.12,1.6-.25,3.7h0c-.41,2.39-1.43,5.41-3.94,7.43h-.01c-.38.3-.78.59-1.23.84-1.84,1.05-3.55,1.41-5.04,1.41-3.42,0-5.67-1.91-5.67-1.91,0,0-.02-.64.19-1.56.33-1.38,1.15-3.39,3.33-4.89.93-.65,2.12-1.19,3.63-1.55,2.19-.52,3.88-1.03,5.17-1.52,2.64-.97,3.59-1.74,3.79-1.92.03-.03.04-.04.04-.04M59.56,7.9c-.27,0-.49.11-.63.36-.12.11-.98.81-3.49,1.73-1.34.51-3.05,1.01-5.07,1.49-1.51.36-2.83.92-3.92,1.68-2.36,1.63-3.29,3.83-3.67,5.38-.23,1-.21,1.71-.21,1.78,0,.24.12.46.3.61.1.09,2.54,2.11,6.22,2.11,1.85,0,3.68-.51,5.46-1.52.43-.24.85-.52,1.27-.86.03-.02.06-.04.08-.06,2.77-2.23,3.84-5.54,4.25-7.93,0-.02,0-.05,0-.07.37-2.15.25-3.78.25-3.85-.03-.38-.25-.76-.62-.84-.08-.02-.15-.02-.22-.02h0Z"/>
              </g>
              <path class="cls-4" d="M59.56,8.82s.12,1.6-.25,3.7c-.44-.41-.91-.56-1.31-.17-1.22,1.2-3,1.91-3.22,1.99.28-.26,3.07-2.79,2.21-3.34-.18-.11-.64-.18-1.27-.22,3.01-1.1,3.83-1.96,3.83-1.96Z"/>
              <path class="cls-5" d="M55.36,19.95c-.38.3-.78.59-1.23.84-6.05,3.44-10.71-.5-10.71-.5,0,0-.11-3.95,3.51-6.45-.13.43-.2.83-.17,1.19.22,2.52,6.84.66,6.84.66,0,0-2.81,1.53-1.89,3.45.41.84,1.99.95,3.65.8Z"/>
              <path class="cls-21" d="M44.58,20.6s5.24-.92,8.39-3.41c3.15-2.49,5.1-6.13,5.1-6.13,0,0-.67,4.11-5.09,6.84s-8.41,2.7-8.41,2.7Z"/>
              <g>
                <path class="cls-39" d="M43.15,20.23s7.54-1.22,11.62-5.36"/>
                <path class="cls-36" d="M43.08,19.81c2.09-.31,4.19-.88,6.18-1.64,1.99-.78,3.91-1.82,5.51-3.3-1.49,1.58-3.37,2.76-5.34,3.68-1.99.91-4.05,1.62-6.22,2.09-.23.05-.45-.09-.5-.32-.05-.23.09-.45.32-.5,0,0,.02,0,.03,0h.02Z"/>
              </g>
            </g>
            <path class="cls-21" d="M59.51,8.86c-.32.35-2.77,2.91-8.34,4.11-4.23.9-6.58,4.03-7.58,5.77.33-1.38,1.15-3.39,3.33-4.89.93-.65,2.12-1.19,3.63-1.55,2.19-.52,3.88-1.03,5.17-1.52,2.64-.97,3.59-1.74,3.79-1.92Z"/>
            <g>
              <path class="cls-21" d="M46.16,21.22s2.35,1.02,5.53.11c3.18-.91,4.2-2.55,4-3.04s-1.27,0-2.96,1.51c-1.69,1.52-6.56,1.42-6.56,1.42Z"/>
              <ellipse class="cls-21" cx="56.79" cy="17.5" rx="1.08" ry=".54" transform="translate(5.34 47.23) rotate(-47.15)"/>
              <ellipse class="cls-21" cx="56.06" cy="17.04" rx=".51" ry=".26" transform="translate(7.01 49.09) rotate(-50.07)"/>
            </g>
          </g>
          <g>
            <g>
              <g>
                <path class="cls-9" d="M39.36,19.91s-.08,0-.12-.02c-.24-.08-5.98-2.04-7.09-4.09-1.04-1.92-1.04-3.55-.02-4.71.65-.73,1.29-.88,1.72-.88.2,0,.37.03.52.07.18-.58.7-1.25,1.91-1.42.13-.02.29-.03.45-.03,1.36,0,2.53.89,3.47,2.65,1.1,2.06-.42,7.92-.49,8.17-.03.1-.09.18-.18.23-.05.03-.11.04-.17.04Z"/>
                <path class="cls-37" d="M36.74,9.19c.83,0,2.04.39,3.15,2.45,1.05,1.95-.52,7.9-.52,7.9,0,0-5.83-1.97-6.88-3.92-1.3-2.42-.61-3.68-.07-4.29.53-.6,1.04-.76,1.44-.76.49,0,.81.24.81.24,0,0-.07-1.35,1.67-1.59.12-.02.25-.03.4-.03M36.74,8.45c-.16,0-.33.01-.5.04-1.18.17-1.8.77-2.09,1.36-.09-.01-.19-.02-.29-.02-.5,0-1.25.18-1.99,1.01-.79.9-1.44,2.51-.03,5.13,1.16,2.15,6.67,4.06,7.29,4.27.08.03.16.04.24.04.12,0,.24-.03.35-.09.18-.1.31-.26.36-.46.17-.64,1.61-6.29.46-8.44-1.26-2.35-2.76-2.84-3.8-2.84h0Z"/>
              </g>
              <g>
                <path class="cls-8" d="M32.31,25.33c-1.46,0-2.51-.53-3.13-1.57-.62-1.05-.42-1.88-.08-2.38-.49-.35-.97-1.06-.76-2.26.27-1.52,1.55-2.53,3.7-2.92.14-.03.29-.04.46-.04,2.43,0,6.97,2.9,7.16,3.03.09.05.15.14.16.24.02.1,0,.21-.07.29-.15.21-3.79,5.06-6.08,5.48-.48.09-.94.13-1.36.13h0Z"/>
                <path class="cls-37" d="M32.49,16.53c2.35,0,6.96,2.97,6.96,2.97,0,0-3.67,4.93-5.85,5.33-.48.09-.91.13-1.29.13-1.74,0-2.47-.81-2.81-1.39-.9-1.52.2-2.3.2-2.3,0,0-1.3-.35-1-2.08.14-.8.7-2.13,3.4-2.62.12-.02.25-.03.39-.03M32.49,15.8c-.18,0-.36.01-.52.04-2.93.53-3.79,2.04-4,3.22-.21,1.18.17,1.95.65,2.41-.29.6-.37,1.45.24,2.48.68,1.15,1.87,1.75,3.45,1.75.44,0,.92-.05,1.43-.14,2.4-.44,5.92-5.09,6.31-5.62.12-.16.17-.37.13-.57-.04-.2-.16-.38-.33-.49-.49-.32-4.86-3.09-7.36-3.09h0Z"/>
              </g>
              <g>
                <path class="cls-7" d="M45.8,27.32c-.75,0-1.6-.23-2.53-.67-2.1-1.02-4.31-6.66-4.41-6.9-.04-.1-.03-.2.01-.29.04-.09.12-.16.22-.19.15-.05,3.77-1.17,6.32-1.17.78,0,1.38.1,1.82.31,1.97.95,2.94,2.26,2.79,3.8-.12,1.21-.77,1.76-1.33,1.97.2.58.16,1.43-.71,2.27-.59.57-1.33.86-2.18.86h0Z"/>
                <path class="cls-37" d="M45.43,18.47c.66,0,1.24.08,1.66.28,2.47,1.19,2.66,2.62,2.58,3.43-.17,1.73-1.48,1.74-1.52,1.74h0s.85,1.05-.42,2.27c-.36.35-.95.76-1.93.76-.62,0-1.4-.17-2.36-.64-2-.96-4.22-6.7-4.22-6.7,0,0,3.69-1.15,6.21-1.15M45.43,17.73c-2.61,0-6.28,1.14-6.43,1.19-.2.06-.36.2-.45.39-.09.18-.1.4-.02.59.24.61,2.4,6.04,4.59,7.09.97.47,1.88.71,2.69.71.96,0,1.78-.33,2.44-.97.86-.83,1.01-1.68.89-2.33.58-.32,1.15-.96,1.27-2.14.11-1.19-.31-2.88-2.99-4.17-.49-.24-1.14-.35-1.98-.35h0Z"/>
              </g>
              <g>
                <path class="cls-6" d="M39.45,19.87c-.09,0-.19-.04-.26-.1-.07-.07-.12-.17-.11-.27,0-.26.09-6.31,1.7-8,1.1-1.15,2.2-1.73,3.27-1.73.41,0,.81.08,1.21.26,1.12.49,1.45,1.28,1.47,1.88h.02c.46,0,1.33.18,1.91,1.38.68,1.39.24,2.96-1.27,4.54-1.62,1.69-7.66,2.04-7.92,2.06,0,0-.01,0-.02,0Z"/>
                <path class="cls-37" d="M44.06,10.13c.43,0,.79.11,1.06.23,1.62.7,1.19,1.98,1.19,1.98,0,0,.18-.07.45-.07.44,0,1.1.19,1.58,1.17.36.73.69,2.14-1.21,4.12-1.53,1.6-7.67,1.95-7.67,1.95,0,0,.07-6.15,1.6-7.75,1.21-1.27,2.23-1.62,3-1.62M44.06,9.39v.74-.74c-1.18,0-2.37.62-3.54,1.85-1.68,1.76-1.8,7.6-1.81,8.26,0,.2.08.4.23.54.14.13.32.21.51.21.01,0,.03,0,.04,0,.66-.04,6.48-.41,8.17-2.17,2.06-2.15,1.86-3.88,1.34-4.96-.56-1.15-1.37-1.48-1.94-1.56-.12-.65-.56-1.39-1.65-1.87-.44-.19-.89-.29-1.35-.29h0Z"/>
              </g>
              <g>
                <path class="cls-11" d="M39.56,30.7c-.8,0-1.31-.37-1.6-.74-.25.19-.63.38-1.13.38h0c-.4,0-.82-.12-1.25-.34-1.37-.73-1.93-2.25-1.64-4.42.32-2.31,5-6.16,5.2-6.32.07-.05.15-.08.23-.08.02,0,.03,0,.05,0,.1.01.19.07.25.15.15.21,3.64,5.16,3.33,7.48-.29,2.17-1.24,3.49-2.75,3.82-.24.05-.47.08-.69.08Z"/>
                <path class="cls-37" d="M39.37,19.53s3.56,5.02,3.26,7.21c-.37,2.72-1.67,3.34-2.47,3.51-.22.05-.42.07-.6.07-1.22,0-1.52-.97-1.52-.97,0,0-.39.61-1.22.61-.3,0-.66-.08-1.07-.3-.72-.38-1.81-1.32-1.44-4.04.3-2.2,5.06-6.09,5.06-6.09M39.37,18.8c-.17,0-.33.06-.47.17-.51.42-5,4.14-5.33,6.56-.4,2.95.77,4.24,1.83,4.8.49.26.96.39,1.42.39s.79-.11,1.07-.26c.36.35.91.63,1.67.63.24,0,.5-.03.76-.09,1.17-.26,2.64-1.19,3.04-4.14.32-2.42-3.01-7.2-3.39-7.74-.12-.17-.3-.28-.5-.31-.03,0-.07,0-.1,0h0Z"/>
              </g>
              <g>
                <path class="cls-10" d="M39.64,15.1c-.12-.05-.24-.08-.36-.09-.1,0-.19.12-.27.1-.07-.01-.15-.13-.18-.14-.16-.02-.2-.11-.38-.08-.36.05-.51.46-.89.24-.24-.15-.37-.69-.75-.24-.22.26-.03.66-.1.95-.1.41-.31.41-.65.53-.38.14-.7.63-.65,1.06,1.75.85,3.5,1.44,3.5,1.44,0,0,.48-1.82.73-3.78Z"/>
                <path class="cls-33" d="M35.57,17.04c-.08.1-.15.21-.19.31-.04.09.06.22.01.29-.03.06-.17.1-.19.13-.07.15-.17.16-.2.34-.06.35.28.63-.05.92-.21.19-.77.14-.46.64.18.29.62.24.87.39.36.22.29.42.3.78.01.41.38.86.8.95,1.35-1.4,2.45-2.88,2.45-2.88,0,0-1.58-1.02-3.37-1.86Z"/>
                <path class="cls-34" d="M36.08,21.51c.07.11.15.2.24.28.07.07.23.01.28.08.05.05.04.2.06.22.12.11.1.21.26.29.32.17.69-.07.86.33.11.26-.1.77.47.63.33-.08.42-.52.64-.71.32-.27.49-.15.83-.05.39.11.93-.1,1.15-.47-.92-1.72-1.98-3.23-1.98-3.23,0,0-1.46,1.19-2.81,2.63Z"/>
                <path class="cls-31" d="M40.51,22.39c.12-.03.24-.08.34-.14.09-.05.08-.21.16-.24.06-.03.2.02.23,0,.14-.08.23-.03.36-.16.26-.25.14-.68.58-.72.28-.03.7.34.75-.25.03-.33-.36-.55-.48-.83-.16-.39.01-.51.21-.81.23-.34.2-.92-.09-1.24-1.92.34-3.68.89-3.68.89,0,0,.68,1.75,1.63,3.49Z"/>
                <path class="cls-32" d="M42.75,18.41c0-.13,0-.26-.03-.37-.02-.1-.17-.14-.18-.23,0-.07.08-.18.08-.21-.03-.16.04-.23-.04-.39-.16-.32-.6-.35-.5-.77.06-.28.54-.56,0-.79-.31-.13-.64.17-.93.2-.42.03-.48-.17-.7-.45-.25-.32-.81-.47-1.21-.29-.27,1.93-.29,3.78-.29,3.78,0,0,1.88-.11,3.82-.47Z"/>
              </g>
              <path class="cls-45" d="M40.04,18.54c-.36.06-1.07.36-1.14.39.02-.07.33-1.07.36-1.28.04-.22.04-.85-.04-.87-.08-.02-.29.56-.35.94-.06.35.01,1.09.02,1.2,0,0,0,0-.01,0-.15-.11-.9-.63-1.08-.72-.19-.1-.8-.3-.84-.23-.04.07.44.45.79.63.3.15.94.3,1.11.34-.15.11-.88.66-1.02.8-.16.15-.53.67-.48.72.05.06.57-.28.84-.55.24-.24.61-.85.68-.97,0,0,0,0,0,0,.04.12.36,1.05.45,1.24.1.2.47.71.54.68.07-.03-.09-.63-.27-.97-.16-.31-.64-.86-.72-.95,0,0,.01,0,.01,0,0,0,0,0-.02-.02,0,0,0,0,0,0,0,0,0,0,0,0,0,0,0,0,0,0,0,0,0,0,0,0,0,0,0,0,0,0,0,0,0,0,0,0,.07,0,1.12-.02,1.33-.05.22-.03.82-.23.82-.3,0-.08-.62-.11-1-.04Z"/>
              <path class="cls-28" d="M39.65,18.51c.22.41.07.93-.35,1.15s-.93.07-1.15-.35-.07-.93.35-1.15.93-.07,1.15.35Z"/>
              <path class="cls-35" d="M39.35,18.67c.14.26.04.59-.22.73s-.59.04-.73-.22-.04-.59.22-.73.59-.04.73.22Z"/>
              <path class="cls-35" d="M38.79,18.72v-.03c-.04-.05-.11-.07-.16-.04s-.07.09-.04.14v.03c.04.05.11.07.16.04s.07-.09.04-.14h0Z"/>
              <path class="cls-35" d="M38.66,18.66c-.63-.46-.99-1.17-1.51-1.74-.05-.05-.12.02-.08.07.53.58.89,1.29,1.53,1.76.06.04.11-.05.06-.09h0Z"/>
              <path class="cls-35" d="M38.79,18.65c-.21-.5-.43-.99-.61-1.51-.11-.31-.2-.64-.33-.95-.03-.06-.12-.01-.09.05.14.32.23.68.35,1.01.17.49.38.96.59,1.44.03.06.12.01.09-.05h0Z"/>
              <path class="cls-35" d="M38.87,18.5c-.2-.78-.46-1.64-.3-2.44.01-.07-.09-.1-.1-.03-.16.83.09,1.7.3,2.5.02.07.12.04.1-.02h0Z"/>
              <path class="cls-35" d="M39,18.73c.49-.24.65-.7.83-1.18.08-.22.16-.43.24-.65.04-.11.08-.21.13-.32.02-.04.09-.15.06-.16.07.01.1-.09.03-.1-.1-.02-.15.14-.18.2-.1.21-.17.42-.25.64-.2.55-.33,1.19-.9,1.47-.06.03-.01.12.05.09h0Z"/>
              <path class="cls-35" d="M39.42,18.67c.06-.03,0-.13-.05-.09s-.01.13.05.09h0Z"/>
              <path class="cls-35" d="M39.43,18.66c.25-.26.59-.46.88-.66.23-.16.48-.31.71-.48.02-.02.04-.05.02-.07h0c-.04-.06-.13,0-.09.05h0s.01-.05.02-.07c-.24.17-.5.33-.74.5-.29.2-.62.4-.87.65-.05.05.03.13.07.08h0Z"/>
              <path class="cls-35" d="M39.24,18.73c.29-.3.57-.59.84-.91.22-.26.48-.57.53-.92.01-.07-.1-.07-.11,0-.06.35-.35.67-.57.93-.24.29-.5.55-.76.82-.05.05.03.13.07.08h0Z"/>
              <path class="cls-35" d="M36.16,19.1c.26-.05.52-.12.78-.15.29-.04.56.02.85.06.2.03.39,0,.59-.04.08-.02.23-.04.29-.12.02-.02,0-.06-.02-.07-.02,0-.03-.01-.05-.01-.07,0-.07.1,0,.11,0,0,0,0,0,0,0-.02-.01-.05-.02-.07-.03.04-.25.08-.32.09-.25.06-.47.01-.71-.03-.49-.08-.93.04-1.41.13-.07.01-.04.12.02.1h0Z"/>
              <path class="cls-35" d="M36.22,19.78c.06-.03,0-.13-.05-.09s0,.13.05.09h0Z"/>
              <path class="cls-35" d="M36.21,19.78c.89-.2,1.72-.57,2.61-.76.04,0,.06-.07.02-.1-.04-.02-.05-.02-.1-.03-.07,0-.07.1,0,.11l.05.02s.01-.06.02-.1c-.89.19-1.72.57-2.61.76-.07.01-.04.12.02.1h0Z"/>
              <path class="cls-35" d="M36.76,20.67c.49-.68,1.34-.93,1.88-1.55.04-.05-.03-.13-.07-.08-.55.63-1.4.88-1.9,1.57-.04.06.05.11.09.06h0Z"/>
              <path class="cls-35" d="M38.76,19.24c.06-.03.01-.13-.05-.09s-.01.13.05.09h0Z"/>
              <path class="cls-35" d="M38.69,19.18c-.25.83-.56,1.64-.79,2.48-.02.07.08.1.1.03.23-.84.54-1.65.79-2.48.02-.07-.08-.1-.1-.03h0Z"/>
              <path class="cls-35" d="M38.87,19.28c-.16.46-.21.99-.24,1.48-.02.33-.03.66-.04.99,0,.07.1.07.11,0,0-.32.02-.63.04-.95.03-.49.08-1.03.24-1.5.02-.06-.08-.1-.1-.03h0Z"/>
              <path class="cls-35" d="M38.97,19.31c.09.7.31,1.4.61,2.03.03.06.12.01.09-.05-.3-.63-.52-1.32-.6-2.01,0-.07-.11-.04-.1.02h0Z"/>
              <path class="cls-35" d="M39.22,19.23c.53.36,1.08.73,1.53,1.19.05.05.13-.02.08-.07-.46-.46-1.02-.84-1.55-1.2-.06-.04-.11.05-.06.09h0Z"/>
              <path class="cls-35" d="M39.37,19.1c.24.2.54.28.84.34.3.06.64.06.91.21.06.03.12-.06.06-.09-.54-.29-1.24-.12-1.73-.53-.05-.04-.13.03-.08.07h0Z"/>
              <path class="cls-35" d="M39.26,18.99c.36.16.78.17,1.16.16.32,0,.71-.02.99-.18.06-.03,0-.13-.05-.09-.28.16-.68.16-.99.17-.36,0-.75-.02-1.08-.16-.06-.03-.09.07-.03.1h0Z"/>
              <path class="cls-35" d="M37.89,16.43c.24-.13.04-.5-.2-.37s-.04.5.2.37h0Z"/>
              <path class="cls-35" d="M38.54,16.27c.24-.13.04-.5-.2-.37s-.04.5.2.37h0Z"/>
              <path class="cls-35" d="M37.24,16.92s0-.01,0-.02c0,.02.01.04.02.05,0,0,0,0,0,0,0,.02,0,.04,0,.05,0,0,0,0,0,0,0,.02,0,.04,0,.05h0s-.01.03-.02.05c0,0,0,0,0,0-.01.01-.02.03-.03.04,0,0,0,0,0,0-.02.01-.03.02-.05.03,0,0,0,0,.01,0,.1-.06.14-.19.09-.29s-.19-.14-.29-.09c-.06.03-.1.08-.12.14-.02.06,0,.13.02.19.05.1.19.14.29.09s.14-.19.09-.29h0Z"/>
              <path class="cls-35" d="M36.17,19.21c.24-.13.04-.5-.2-.37s-.04.5.2.37h0Z"/>
              <path class="cls-35" d="M36.26,19.97c.24-.13.04-.5-.2-.37s-.04.5.2.37h0Z"/>
              <path class="cls-35" d="M36.7,20.85c.24-.13.04-.5-.2-.37s-.04.5.2.37h0Z"/>
              <path class="cls-35" d="M36.7,20.85c.24-.13.04-.5-.2-.37s-.04.5.2.37h0Z"/>
              <path class="cls-35" d="M37.96,21.94c.24-.13.04-.5-.2-.37s-.04.5.2.37h0Z"/>
              <path class="cls-35" d="M37.76,21.57h0c-.1.06-.14.19-.09.29s.19.14.29.09l.03-.02c.1-.05.14-.19.09-.29s-.19-.14-.29-.09l-.03.02c-.1.05-.14.19-.09.29s.19.14.29.09h0c.1-.06.14-.19.09-.29s-.19-.14-.29-.09h0Z"/>
              <path class="cls-35" d="M38.72,21.92h.02c.1-.07.14-.2.09-.3s-.19-.14-.29-.09h-.02c-.1.07-.14.2-.09.3s.19.14.29.09h0Z"/>
              <path class="cls-35" d="M39.85,21.23v-.02c-.07-.1-.2-.14-.3-.09s-.14.19-.09.29v.02c.07.1.2.14.3.09s.14-.19.09-.29h0Z"/>
              <path class="cls-35" d="M40.96,20.59h.02c.1-.07.14-.2.09-.3s-.19-.14-.29-.09h-.02c-.1.07-.14.2-.09.3s.19.14.29.09h0Z"/>
              <path class="cls-35" d="M41.24,19.86l.05-.03c.1-.05.14-.19.09-.29s-.19-.14-.29-.09l-.05.03c-.1.05-.14.19-.09.29s.19.14.29.09h0Z"/>
              <path class="cls-35" d="M41.51,18.96v-.03c-.07-.1-.2-.14-.3-.09s-.14.19-.09.29v.03c.07.1.2.14.3.09s.14-.19.09-.29h0Z"/>
              <path class="cls-35" d="M41.09,17.72c.24-.13.04-.5-.2-.37s-.04.5.2.37h0Z"/>
              <path class="cls-35" d="M41.09,17.72h.02c.1-.07.14-.2.09-.3s-.19-.14-.29-.09h-.02c-.1.07-.14.2-.09.3s.19.14.29.09h0Z"/>
              <path class="cls-35" d="M40.66,17.22c.24-.13.04-.5-.2-.37s-.04.5.2.37h0Z"/>
              <path class="cls-35" d="M40.31,16.69s0,0,.02,0c-.02,0-.04.01-.05.02,0,0,0,0,0,0-.02,0-.04,0-.05,0,0,0,0,0,0,0-.02,0-.04,0-.05,0,0,0,0,0,0,0-.02,0-.03-.01-.05-.02,0,0,0,0,0,0-.01-.01-.03-.02-.04-.03,0,0,0,0,0,0-.01-.02-.02-.03-.03-.05,0,0,0,0,0,.01.05.1.19.14.29.09s.14-.19.09-.29c-.03-.06-.08-.1-.14-.12s-.13,0-.19.02c-.1.05-.14.19-.09.29s.19.14.29.09h0Z"/>
            </g>
            <path class="cls-40" d="M39.51,10.74c-.56-1.03-1.25-1.9-2.51-2.02-.54-.05-1.22.08-1.68.34-.48.26-.87.73-1.38.89-.49.15-1.05.22-1.47.57-.47.39-.87.99-1.06,1.57-.39,1.22.32,2.09.86,3.1l-.05-.09c.05.03,0-.15,0-.27,0-.16.01-.33.01-.5,0-.31-.03-.63.03-.94.14-.65.71-1.14,1.32-1.33.28-.09.59-.15.89-.15.27,0,.54.13.81.08.54-.1.68-1.07,1.13-1.34.52-.31,1.28-.49,1.88-.39.51.09.86.23,1.44,1.16-.04-.18-.14-.48-.23-.65Z"/>
            <path class="cls-41" d="M31.32,16.63c-1.15.21-2.2.6-2.7,1.76-.21.49-.3,1.18-.2,1.7.1.54.43,1.05.42,1.58,0,.51-.12,1.06.08,1.58.22.57.67,1.13,1.16,1.49,1.04.75,2.09.34,3.22.14l-.1.02s-.14-.05-.26-.09c-.16-.05-.31-.12-.47-.17-.3-.09-.61-.16-.89-.32-.58-.33-.86-1.03-.86-1.67,0-.29.04-.61.13-.89.09-.26.29-.48.32-.75.07-.54-.81-.98-.93-1.49-.14-.59-.07-1.37.21-1.91.24-.46.49-.75,1.55-1.01-.18-.01-.5-.01-.69.02Z"/>
            <path class="cls-42" d="M34.15,26.24c-.16,1.16-.1,2.28.84,3.11.4.36,1.03.65,1.56.72.54.07,1.13-.08,1.64.09.48.17.97.44,1.52.41.61-.04,1.29-.29,1.78-.64,1.03-.75.97-1.88,1.12-3.02v.1c-.04-.06-.11.12-.18.22-.1.13-.21.26-.3.4-.18.25-.35.53-.58.74-.49.45-1.25.5-1.85.3-.28-.09-.56-.23-.8-.4-.22-.16-.36-.42-.61-.54-.5-.24-1.18.46-1.71.42-.6-.05-1.32-.35-1.75-.79-.36-.37-.56-.69-.48-1.78-.07.17-.17.47-.19.66Z"/>
            <path class="cls-43" d="M43.86,26.67c1.06.51,2.13.8,3.22.16.46-.27.93-.78,1.16-1.26.24-.49.27-1.1.59-1.53.31-.41.72-.79.86-1.32.15-.59.12-1.31-.06-1.89-.4-1.22-1.49-1.5-2.52-2l.09.04c-.06,0,.08.13.16.23.1.13.18.28.28.41.19.25.4.49.53.78.27.61.09,1.34-.29,1.85-.17.24-.39.47-.63.64-.22.16-.51.22-.7.42-.38.4.08,1.27-.13,1.75-.23.56-.74,1.15-1.29,1.42-.47.23-.83.32-1.84-.09.14.12.4.3.57.39Z"/>
            <path class="cls-44" d="M47.49,17.32c.81-.85,1.42-1.78,1.15-3.01-.12-.53-.45-1.13-.84-1.5-.4-.38-.96-.6-1.27-1.04-.29-.42-.53-.93-.99-1.23-.51-.33-1.21-.52-1.82-.52-1.28,0-1.89.95-2.68,1.78l.07-.07c-.01.06.14-.04.26-.08.16-.05.32-.09.48-.14.3-.1.59-.23.91-.26.66-.07,1.3.33,1.67.85.17.24.32.51.41.8.08.26.05.55.18.8.26.48,1.23.32,1.63.66.46.39.86,1.06.95,1.66.08.52.04.89-.66,1.72.15-.1.41-.28.54-.42Z"/>
            <path class="cls-25" d="M32.72,11.76c.46-.55.95-.8,1.65-.95.81-.17,1.68-.68,1.95-1.55.06-.2.06-.38,0-.52-.35.05-.7.16-.98.31-.48.26-.87.73-1.38.89-.49.15-1.05.22-1.47.57-.47.39-.87.99-1.06,1.57-.29.9.02,1.6.42,2.32-.06-.24-.09-.49-.05-.76.11-.71.45-1.3.91-1.85Z"/>
            <path class="cls-25" d="M29.36,17.87v-.05c-1.05.94-.12,2.58-.11,3.73,0,.42.08,1.88.81,1.07.4-.44.16-1.31-.06-1.77-.26-.55-.58-1.12-.54-1.75.03-.62.42-1.08.63-1.62-.3-.12-.52.26-.72.39Z"/>
            <path class="cls-25" d="M36.3,28.48c-.44.06-.68-.19-1.1-.27-.05.05-.01.07,0,.13l-.06.03c.18.38.68.7,1.1.75.3.04,1.25-.2,1.18-.62-.08-.48-.85-.06-1.11-.02Z"/>
            <path class="cls-25" d="M42.74,10.55c-.12.1-.22.21-.14.31l.06.04c.06.16.55.03.77.06.37.06.6.29.85.57.23.25.5.64.9.45.32-.15.39-.55.25-.83-.33-.69-2.08-1.11-2.68-.6Z"/>
          </g>
        </g>
        <g>
          <g>
            <path class="cls-30" d="M4.41,20.7c-.11,0-.22-.04-.31-.11-.07-.06-1.8-1.44-2.83-3.12-.24-.4-.42-.76-.54-1.11-.03-.09-.06-.19-.09-.29,0-.01,0-.03,0-.04-.2-.74-.15-1.42.14-2.01.48-.95,1.35-1.5,2.39-1.5.34,0,.69.06,1.03.18.7.24,1.3.71,1.74,1.32.52-.26,1.08-.39,1.64-.39.85,0,1.64.32,2.18.87.5.51.76,1.18.74,1.94-.07,3.13-5.75,4.21-6,4.26-.03,0-.06,0-.09,0Z"/>
            <path class="cls-25" d="M3.16,13.01c.29,0,.58.05.86.15.69.24,1.33.76,1.74,1.53,0,0,0,0,0,0,.57-.39,1.2-.56,1.8-.56,1.31,0,2.45.86,2.42,2.29-.06,2.76-5.59,3.78-5.59,3.78,0,0-1.72-1.36-2.72-2.99-.2-.33-.38-.67-.5-1.02-.03-.09-.06-.17-.08-.26,0,0,0,0,0-.02-.16-.58-.16-1.15.1-1.68.42-.83,1.16-1.22,1.94-1.22M3.16,12.01c-1.22,0-2.28.66-2.84,1.77-.35.71-.41,1.5-.18,2.36,0,.02,0,.03.01.05.03.11.07.22.11.33.13.38.33.78.58,1.2,1.08,1.76,2.87,3.19,2.95,3.25.18.14.4.22.62.22.06,0,.12,0,.18-.02.65-.12,6.33-1.27,6.41-4.74.02-.88-.3-1.7-.88-2.3-.63-.65-1.56-1.02-2.54-1.02-.51,0-1.01.1-1.49.28-.47-.54-1.06-.95-1.73-1.18-.39-.14-.79-.21-1.19-.21h0Z"/>
          </g>
          <path class="cls-22" d="M4.41,20.2s-1.72-1.36-2.72-2.99c-.2-.33-.38-.67-.5-1.02.89,1.75,2.06,3.27,3.43,3.14,3.13-.3,5.47-3.6,4.13-4.62-1.28-.97-2.84-.11-2.98-.02,1.83-1.23,4.27-.35,4.23,1.73-.06,2.76-5.59,3.78-5.59,3.78Z"/>
          <path class="cls-20" d="M4.44,20.2s-1.61-1.27-2.54-2.79c-.19-.31-.35-.63-.46-.95-.03-.08-.05-.16-.08-.24,0,0,0,0,0-.02-.15-.54-.18-1.25.06-1.74.53-1.06,1.46-1.29,2.45-.94.64.22,1.47,1.07,1.85,1.78,0,0-.08.32,0,0,1.96-1.74,4.11-.76,4.07,1.19-.06,2.57-5.36,3.71-5.36,3.71Z"/>
          <g class="cls-23">
            <ellipse class="cls-25" cx="2.27" cy="14.48" rx=".8" ry=".41" transform="translate(-7.81 3.84) rotate(-34.55)"/>
            <path class="cls-25" d="M4.05,14.01c.08.22-.05.43-.28.47s-.49-.1-.57-.32.05-.43.28-.47.49.1.57.32Z"/>
            <path class="cls-25" d="M5.16,15.89c-.12.57-.09.61.47.71-.58-.02-.63.02-.83.58.12-.57.09-.61-.47-.71.58.02.63-.02.83-.58Z"/>
            <path class="cls-25" d="M7.48,16.4c-.2-.12-.22-.11-.37.06.13-.19.13-.21-.05-.35.2.12.22.11.37-.06-.13.19-.13.21.05.35Z"/>
            <path class="cls-25" d="M8.68,15.24c-.31.23-.31.26-.13.6-.22-.31-.26-.32-.59-.14.31-.23.31-.26.13-.6.22.31.26.32.59.14Z"/>
            <path class="cls-25" d="M3.16,17c-.05.25-.04.26.2.3-.25,0-.27,0-.36.25.05-.25.04-.26-.2-.3.25,0,.27,0,.36-.25Z"/>
            <path class="cls-25" d="M5.99,18.11c-.02.34,0,.36.41.43-.41-.02-.44,0-.52.33.02-.34,0-.36-.41-.43.41.02.44,0,.52-.33Z"/>
          </g>
          <path class="cls-21" d="M10,16.42s0-1.51-1.52-2.02c-1.53-.51-2.75.72-2.75.72-.55-1.21-1.94-2.35-3.48-1.68-1.44.63-1.18,2.28-1.14,2.48-.16-.58-.16-1.15.1-1.68.57-1.14,1.74-1.45,2.81-1.07.69.24,1.33.76,1.74,1.53,0,0,0,0,0,0,1.83-1.23,4.27-.35,4.23,1.73Z"/>
        </g>
      </g>
    </g>
  </g>
</svg>