<?xml version="1.0" encoding="UTF-8"?>
<svg xmlns="http://www.w3.org/2000/svg" xmlns:xlink="http://www.w3.org/1999/xlink" viewBox="0 0 16.63 33.04">
  <defs>
    <style>
      .cls-1 {
        fill: url(#radial-gradient-7);
      }

      .cls-2 {
        fill: url(#radial-gradient-6);
      }

      .cls-3 {
        fill: url(#radial-gradient-5);
      }

      .cls-4 {
        fill: url(#radial-gradient-4);
      }

      .cls-5 {
        fill: url(#radial-gradient-9);
      }

      .cls-6 {
        fill: url(#radial-gradient-8);
      }

      .cls-7 {
        fill: url(#radial-gradient-3);
      }

      .cls-8 {
        fill: url(#radial-gradient-2);
      }

      .cls-9 {
        fill: url(#linear-gradient-5);
      }

      .cls-10 {
        fill: url(#linear-gradient-4);
      }

      .cls-11 {
        fill: url(#linear-gradient-3);
      }

      .cls-12 {
        fill: url(#linear-gradient-2);
      }

      .cls-13, .cls-14 {
        fill: #fff;
      }

      .cls-13, .cls-15, .cls-16, .cls-17 {
        mix-blend-mode: overlay;
      }

      .cls-18 {
        fill: url(#radial-gradient);
      }

      .cls-19 {
        fill: url(#linear-gradient);
      }

      .cls-20 {
        fill: #74d1ed;
      }

      .cls-21 {
        isolation: isolate;
      }

      .cls-22 {
        fill: #d0a8ff;
      }

      .cls-23 {
        fill: url(#radial-gradient-10);
      }

      .cls-24 {
        fill: #0f6473;
      }

      .cls-15 {
        fill: #2b1d1d;
        opacity: .47;
      }

      .cls-25 {
        fill: #0c7699;
      }

      .cls-26 {
        fill: #b7f4ff;
      }

      .cls-17 {
        fill: url(#linear-gradient-6);
        opacity: .38;
      }
    </style>
    <radialGradient id="radial-gradient" cx="-198.69" cy="-28.35" fx="-198.69" fy="-28.35" r="3.93" gradientTransform="translate(195.69 -64.52) rotate(-28.28)" gradientUnits="userSpaceOnUse">
      <stop offset=".06" stop-color="#a0dff3"/>
      <stop offset=".79" stop-color="#4bbfe3"/>
    </radialGradient>
    <radialGradient id="radial-gradient-2" cx="-203.28" cy="-26.6" fx="-203.28" fy="-26.6" r="3.87" xlink:href="#radial-gradient"/>
    <radialGradient id="radial-gradient-3" cx="-197" cy="-20.4" fx="-197" fy="-20.4" r="3.85" xlink:href="#radial-gradient"/>
    <radialGradient id="radial-gradient-4" cx="-195.26" cy="-25.19" fx="-195.26" fy="-25.19" r="3.93" xlink:href="#radial-gradient"/>
    <radialGradient id="radial-gradient-5" cx="-202.85" cy="-20.75" fx="-202.85" fy="-20.75" r="3.77" xlink:href="#radial-gradient"/>
    <radialGradient id="radial-gradient-6" cx="-83.93" cy="93.79" fx="-83.93" fy="93.79" r="1.77" gradientTransform="translate(53.57 -110.78) rotate(-20.46)" gradientUnits="userSpaceOnUse">
      <stop offset="0" stop-color="#91e3ff"/>
      <stop offset="1" stop-color="#2088ab"/>
    </radialGradient>
    <radialGradient id="radial-gradient-7" cx="-85.54" cy="94.83" fx="-85.54" fy="94.83" r="1.68" xlink:href="#radial-gradient-6"/>
    <radialGradient id="radial-gradient-8" cx="-85.27" cy="96.98" fx="-85.27" fy="96.98" r="1.48" xlink:href="#radial-gradient-6"/>
    <radialGradient id="radial-gradient-9" cx="-82.66" cy="96.98" fx="-82.66" fy="96.98" r="1.47" xlink:href="#radial-gradient-6"/>
    <radialGradient id="radial-gradient-10" cx="-82.27" cy="94.84" fx="-82.27" fy="94.84" r="1.7" xlink:href="#radial-gradient-6"/>
    <linearGradient id="linear-gradient" x1="-87.04" y1="89.23" x2="-80.63" y2="89.23" gradientTransform="translate(53.57 -110.78) rotate(-20.46)" gradientUnits="userSpaceOnUse">
      <stop offset="0" stop-color="#74cafc"/>
      <stop offset="1" stop-color="#c4eaff"/>
    </linearGradient>
    <linearGradient id="linear-gradient-2" x1="-92.16" y1="94.28" x2="-87.72" y2="94.28" xlink:href="#linear-gradient"/>
    <linearGradient id="linear-gradient-3" x1="-90.41" y1="101.05" x2="-84.35" y2="101.05" xlink:href="#linear-gradient"/>
    <linearGradient id="linear-gradient-4" x1="-83.68" y1="101.05" x2="-77.49" y2="101.05" xlink:href="#linear-gradient"/>
    <linearGradient id="linear-gradient-5" x1="-80" y1="94.38" x2="-75.77" y2="94.38" xlink:href="#linear-gradient"/>
    <linearGradient id="linear-gradient-6" x1="-385.84" y1="262.75" x2="-386.88" y2="270" gradientTransform="translate(123.38 -425.82) rotate(-41.05)" gradientUnits="userSpaceOnUse">
      <stop offset=".16" stop-color="#fafafa"/>
      <stop offset=".64" stop-color="#fafafa" stop-opacity="0"/>
    </linearGradient>
  </defs>
  <g class="cls-21">
    <g id="Layer_2" data-name="Layer 2">
      <g id="Layer_1-2" data-name="Layer 1">
        <g>
          <g>
            <g>
              <path class="cls-18" d="M8.59,8.86s-.09,0-.12-.03c-.17-.09-4.26-2.14-4.87-3.79-.58-1.54-.42-2.76.47-3.52.38-.33.78-.5,1.18-.5.23,0,.42.05.57.12.19-.41.65-.86,1.58-.87.82,0,1.94.41,2.66,2.36.61,1.65-1.13,5.87-1.2,6.05-.03.07-.09.13-.16.15-.03.01-.06.02-.1.02Z"/>
              <path class="cls-25" d="M7.4.56c.62,0,1.67.24,2.39,2.17.58,1.57-1.2,5.85-1.2,5.85,0,0-4.15-2.07-4.74-3.63-.73-1.94-.08-2.81.39-3.21.38-.33.72-.43,1-.43.45,0,.73.27.73.27,0,0,.08-1.01,1.41-1.02h0M7.4,0h-.01c-.9,0-1.42.39-1.7.8-.13-.04-.28-.06-.44-.06-.47,0-.93.19-1.36.57-.68.59-1.33,1.73-.55,3.83.64,1.72,4.57,3.72,5.01,3.94.08.04.16.06.25.06.07,0,.13-.01.19-.04.14-.05.26-.17.32-.31.19-.46,1.85-4.53,1.21-6.26-.78-2.1-2.01-2.54-2.91-2.54h0Z"/>
            </g>
            <g>
              <path class="cls-8" d="M3.45,12.23c-1.48,0-2.48-.53-2.91-1.54-.35-.85-.12-1.45.18-1.79-.33-.31-.61-.89-.33-1.76.36-1.11,1.42-1.73,3.06-1.8h0c1.85,0,5.24,2.89,5.38,3.01.06.05.09.12.1.2,0,.08-.03.15-.08.21-.14.14-3.35,3.39-5.11,3.47-.1,0-.2,0-.3,0Z"/>
              <path class="cls-25" d="M3.53,5.61c1.69,0,5.13,2.95,5.13,2.95,0,0-3.25,3.31-4.92,3.38-.1,0-.2,0-.29,0-1.84,0-2.42-.83-2.65-1.37-.51-1.23.39-1.7.39-1.7,0,0-.94-.39-.53-1.66.19-.58.74-1.52,2.81-1.61.02,0,.04,0,.06,0M3.53,5.06h-.08c-2.24.1-3.04,1.14-3.32,2-.27.86-.07,1.47.24,1.86-.27.42-.42,1.05-.08,1.88.33.78,1.14,1.71,3.16,1.71.1,0,.2,0,.31,0,1.84-.08,4.94-3.19,5.29-3.55.11-.11.17-.26.16-.41,0-.15-.08-.3-.19-.4-.37-.32-3.65-3.08-5.5-3.08h0Z"/>
            </g>
            <g>
              <path class="cls-7" d="M12.96,15.08c-.66,0-1.39-.26-2.18-.79-1.47-.97-2.54-5.42-2.58-5.6-.02-.08,0-.15.04-.22s.11-.11.19-.12c.07-.01,1.83-.3,3.51-.3,1.28,0,2.15.16,2.66.5,1.38.91,1.96,1.99,1.69,3.13-.23.96-.81,1.25-1.2,1.33.09.45-.02,1.08-.77,1.63-.4.3-.86.45-1.36.45h0Z"/>
              <path class="cls-25" d="M11.93,8.33c1.01,0,1.98.11,2.5.45,1.73,1.14,1.72,2.23,1.57,2.83-.25,1.05-.96,1.15-1.22,1.15-.06,0-.09,0-.09,0,0,0,.53.87-.54,1.65-.25.19-.64.39-1.19.39-.52,0-1.19-.18-2.03-.74-1.39-.92-2.47-5.44-2.47-5.44,0,0,1.78-.3,3.46-.3M11.93,7.77c-1.71,0-3.48.29-3.56.31-.15.03-.29.11-.37.24-.09.13-.11.29-.08.44.12.48,1.17,4.75,2.7,5.77.83.55,1.62.83,2.33.83.56,0,1.07-.17,1.52-.5.73-.53.92-1.15.9-1.65.5-.19.97-.64,1.17-1.47.21-.88.06-2.18-1.81-3.42-.56-.37-1.48-.55-2.81-.55h0Z"/>
            </g>
            <g>
              <path class="cls-4" d="M10.5,8.91c-1.03,0-1.83-.06-1.86-.07-.08,0-.15-.04-.2-.1-.05-.06-.07-.14-.06-.21.03-.19.72-4.71,2.09-5.8.82-.65,1.59-.98,2.31-.98.42,0,.82.11,1.18.34.79.48.95,1.1.9,1.56.38.05.99.28,1.31,1.23.37,1.11-.12,2.23-1.42,3.26-.66.53-2.1.79-4.27.79h0Z"/>
              <path class="cls-25" d="M12.79,2.02c.46,0,.8.15,1.04.3,1.14.69.68,1.6.68,1.6,0,0,.07-.02.19-.02.31,0,.92.12,1.22,1.05.19.58.3,1.67-1.33,2.95-.76.61-2.65.73-4.1.73-1.03,0-1.84-.06-1.84-.06,0,0,.68-4.59,1.99-5.63.88-.7,1.59-.92,2.14-.92M12.79,1.46h0c-.78,0-1.62.35-2.49,1.04-1.44,1.14-2.12,5.49-2.2,5.98-.02.15.02.31.11.43.1.12.24.2.39.21.03,0,.84.07,1.88.07,2.23,0,3.73-.29,4.44-.85,1.76-1.39,1.79-2.71,1.51-3.57-.3-.91-.85-1.25-1.29-1.37-.02-.5-.27-1.1-1.04-1.57-.41-.25-.86-.38-1.33-.38h0Z"/>
            </g>
            <g>
              <path class="cls-3" d="M7.89,16.96c-.78,0-1.22-.38-1.42-.74-.17.09-.4.18-.68.18h0c-.36,0-.73-.13-1.1-.4-.95-.68-1.21-1.88-.77-3.47.47-1.7,4.37-4.09,4.53-4.19.04-.03.09-.04.15-.04.02,0,.05,0,.07.01.07.02.14.07.17.14.09.17,2.19,4.23,1.72,5.93-.44,1.59-1.29,2.48-2.45,2.58-.08,0-.15,0-.22,0Z"/>
              <path class="cls-25" d="M8.59,8.58s2.14,4.11,1.7,5.72c-.55,2-1.59,2.32-2.2,2.37-.07,0-.13,0-.2,0-1.15,0-1.3-.9-1.3-.9,0,0-.29.34-.81.34-.26,0-.57-.09-.94-.35-.5-.36-1.22-1.17-.66-3.17.45-1.61,4.41-4.03,4.41-4.03M8.59,8.02c-.1,0-.2.03-.29.08-.42.26-4.16,2.58-4.65,4.35-.6,2.16.14,3.24.87,3.77.42.3.84.45,1.26.45.22,0,.42-.04.59-.1.28.35.76.67,1.52.67.08,0,.16,0,.24-.01.9-.07,2.1-.62,2.7-2.78.49-1.77-1.51-5.69-1.74-6.13-.07-.14-.2-.24-.35-.28-.05-.01-.1-.02-.15-.02h0Z"/>
            </g>
            <g>
              <path class="cls-2" d="M9.25,5.29c-.08-.05-.17-.08-.26-.1-.07-.02-.16.07-.22.05-.05-.02-.1-.12-.12-.12-.12-.03-.14-.1-.28-.1-.27,0-.43.29-.69.09-.17-.13-.21-.55-.54-.25-.19.17-.09.49-.17.7-.11.29-.27.27-.54.33-.3.06-.59.4-.6.72,1.22.82,2.47,1.44,2.47,1.44,0,0,.55-1.31.93-2.75Z"/>
              <path class="cls-1" d="M6.01,6.32c-.07.07-.13.14-.18.21-.04.06.02.17-.02.22-.03.04-.14.06-.15.08-.07.1-.14.1-.18.23-.08.26.14.5-.13.68-.18.12-.59.03-.41.43.1.23.44.24.61.38.24.2.18.34.15.61-.03.31.2.68.5.79,1.16-.91,2.13-1.9,2.13-1.9,0,0-1.08-.92-2.32-1.74Z"/>
              <path class="cls-6" d="M5.94,9.72c.04.09.09.17.15.23.05.06.17.03.2.09.03.04.01.15.03.17.08.1.05.17.16.24.22.16.52.02.61.33.06.21-.16.57.29.52.25-.03.36-.34.55-.46.27-.17.38-.06.63.05.28.13.71.02.91-.24-.51-1.38-1.15-2.61-1.15-2.61,0,0-1.21.74-2.37,1.67Z"/>
              <path class="cls-5" d="M9.15,10.83c.1-.01.19-.04.27-.07.07-.03.08-.15.15-.17.05-.01.15.04.17.03.11-.04.17,0,.28-.08.22-.16.18-.49.5-.48.21.01.49.32.59-.11.05-.25-.21-.45-.27-.67-.08-.3.06-.38.24-.58.21-.23.24-.67.06-.94-1.47.06-2.84.29-2.84.29,0,0,.33,1.38.86,2.77Z"/>
              <path class="cls-23" d="M11.23,8.09c.02-.09.02-.19.02-.28,0-.08-.12-.13-.11-.19,0-.05.08-.13.08-.15,0-.12.05-.17.01-.29-.09-.26-.41-.32-.3-.63.08-.2.46-.37.08-.59-.22-.13-.5.06-.72.05-.31-.02-.34-.18-.48-.41-.15-.27-.56-.43-.87-.34-.4,1.42-.61,2.79-.61,2.79,0,0,1.41.11,2.9.04Z"/>
            </g>
            <path class="cls-26" d="M9.2,7.91c-.28,0-.84.16-.89.18.02-.05.36-.76.4-.92.05-.16.12-.63.06-.65-.05-.02-.28.39-.36.67-.08.26-.1.82-.11.9,0,0,0,0,0,0-.1-.1-.61-.56-.73-.65-.13-.1-.57-.31-.6-.26-.04.05.28.38.52.55.21.14.67.32.8.37-.12.07-.73.4-.85.49-.13.1-.47.44-.43.49.03.05.45-.15.68-.33.21-.16.54-.57.61-.65,0,0,0,0,0,0,.02.09.16.82.21.97.05.16.28.58.33.57.06-.02,0-.48-.1-.75-.09-.25-.39-.71-.44-.78,0,0,.01,0,.01,0,0,0,0,0-.02-.01,0,0,0,0,0,0,0,0,0,0,0,0,0,0,0,0,0,0,0,0,0,0,0,0,0,0,0,0,0,0,0,0,0,0,0,0,.06,0,.84.1.99.1.17,0,.64-.08.64-.14,0-.06-.46-.14-.74-.14Z"/>
            <path class="cls-20" d="M8.91,7.84c.12.33-.04.7-.38.82s-.7-.04-.82-.38.04-.7.38-.82.7.04.82.38Z"/>
            <path class="cls-24" d="M8.67,7.93c.08.21-.03.44-.24.52s-.44-.03-.52-.24.03-.44.24-.52.44.03.52.24Z"/>
            <path class="cls-24" d="M8.25,7.91v-.02s-.07-.06-.11-.05-.06.06-.05.1v.02s.07.06.11.05.06-.06.05-.1h0Z"/>
            <path class="cls-24" d="M8.15,7.85c-.43-.41-.62-.98-.95-1.46-.03-.04-.09,0-.06.05.33.48.53,1.06.96,1.47.04.04.09-.03.05-.06h0Z"/>
            <path class="cls-24" d="M8.25,7.86c-.11-.4-.22-.79-.3-1.19-.05-.24-.08-.5-.15-.74-.01-.05-.09-.02-.07.03.07.26.1.53.16.79.08.38.19.76.29,1.14.01.05.09.02.08-.03h0Z"/>
            <path class="cls-24" d="M8.33,7.75c-.07-.6-.18-1.27.02-1.86.02-.05-.06-.08-.07-.03-.21.6-.11,1.28-.03,1.9,0,.05.09.04.08,0h0Z"/>
            <path class="cls-24" d="M8.4,7.94c.39-.13.56-.46.74-.8.08-.15.16-.31.24-.46.04-.08.08-.15.13-.22.02-.03.09-.1.06-.11.05.02.08-.06.03-.07-.07-.03-.13.09-.16.13-.09.14-.17.3-.25.45-.21.39-.37.86-.82,1.01-.05.02-.02.09.03.07h0Z"/>
            <path class="cls-24" d="M8.72,7.93s.02-.09-.03-.07-.02.09.03.07h0Z"/>
            <path class="cls-24" d="M8.73,7.93c.21-.17.48-.28.73-.41.19-.1.39-.18.58-.28.02,0,.03-.03.02-.05h0s-.1-.02-.08.03h0s.02-.03.02-.05c-.2.1-.41.2-.61.3-.24.12-.51.23-.71.4-.04.03,0,.1.05.06h0Z"/>
            <path class="cls-24" d="M8.58,7.96c.24-.19.49-.38.72-.59.19-.17.41-.38.49-.63.02-.05-.06-.06-.08-.01-.08.25-.33.47-.52.64-.21.19-.43.36-.65.53-.04.03,0,.1.05.06h0Z"/>
            <path class="cls-24" d="M6.24,7.92c.2-.01.4-.03.6-.03.22,0,.42.07.63.13.15.04.29.05.44.03.06,0,.18,0,.23-.06.01-.01.01-.04,0-.06-.01,0-.02-.01-.04-.01-.05,0-.06.07-.01.08,0,0,0,0,0,0,0-.02,0-.04,0-.06-.03.03-.2.03-.25.04-.19.02-.35-.04-.53-.09-.35-.11-.7-.07-1.06-.05-.05,0-.04.08,0,.08h0Z"/>
            <path class="cls-24" d="M6.22,8.43s.02-.09-.03-.08-.02.09.03.08h0Z"/>
            <path class="cls-24" d="M6.21,8.44c.68-.06,1.34-.25,2.03-.3.03,0,.05-.05.02-.07-.03-.02-.04-.02-.07-.03-.05-.01-.06.07-.01.08l.04.02s.01-.05.02-.07c-.68.05-1.35.25-2.03.3-.05,0-.04.08,0,.08h0Z"/>
            <path class="cls-24" d="M6.53,9.15c.43-.46,1.1-.56,1.56-.97.04-.03,0-.1-.05-.07-.47.41-1.14.51-1.58.98-.04.04.03.09.06.05h0Z"/>
            <path class="cls-24" d="M8.17,8.3s.02-.09-.03-.07-.02.09.03.07h0Z"/>
            <path class="cls-24" d="M8.12,8.24c-.27.59-.58,1.17-.84,1.77-.02.05.05.08.07.03.26-.6.57-1.18.84-1.77.02-.05-.05-.08-.07-.03h0Z"/>
            <path class="cls-24" d="M8.24,8.33c-.17.33-.26.72-.33,1.08-.05.24-.09.49-.13.74,0,.05.07.06.08.01.04-.24.08-.47.13-.71.07-.37.17-.76.33-1.1.02-.05-.05-.08-.07-.03h0Z"/>
            <path class="cls-24" d="M8.32,8.37c0,.53.09,1.08.25,1.58.02.05.09.02.08-.03-.16-.5-.25-1.04-.24-1.56,0-.05-.08-.04-.08,0h0Z"/>
            <path class="cls-24" d="M8.51,8.33c.36.32.73.66,1.02,1.04.03.04.1,0,.06-.05-.29-.39-.67-.73-1.04-1.06-.04-.03-.09.03-.05.06h0Z"/>
            <path class="cls-24" d="M8.64,8.25c.16.18.37.27.59.34.22.07.47.11.66.25.04.03.09-.03.05-.06-.37-.27-.91-.21-1.24-.58-.03-.04-.1,0-.06.05h0Z"/>
            <path class="cls-24" d="M8.57,8.16c.25.15.57.21.85.24.24.03.53.06.76-.03.05-.02.02-.09-.03-.07-.23.09-.52.05-.76.02-.27-.03-.56-.09-.79-.23-.04-.03-.08.05-.03.07h0Z"/>
            <path class="cls-24" d="M7.81,6.1c.19-.07.08-.37-.11-.3s-.08.37.11.3h0Z"/>
            <path class="cls-24" d="M8.31,6.05c.19-.07.08-.37-.11-.3s-.08.37.11.3h0Z"/>
            <path class="cls-24" d="M7.27,6.41s0,0,0-.01c0,.01,0,.03,0,.04,0,0,0,0,0,0,0,.01,0,.03,0,.04,0,0,0,0,0,0,0,.01,0,.03-.01.04h0s-.01.02-.02.03c0,0,0,0,0,0-.01,0-.02.02-.03.03,0,0,0,0,0,0-.01,0-.03.01-.04.02,0,0,0,0,.01,0,.08-.03.12-.12.09-.21s-.12-.12-.21-.09c-.05.02-.08.05-.11.09-.02.05-.02.09,0,.14.03.08.12.12.21.09s.12-.12.09-.21h0Z"/>
            <path class="cls-24" d="M6.24,8.01c.19-.07.08-.37-.11-.3s-.08.37.11.3h0Z"/>
            <path class="cls-24" d="M6.23,8.58c.19-.07.08-.37-.11-.3s-.08.37.11.3h0Z"/>
            <path class="cls-24" d="M6.47,9.29c.19-.07.08-.37-.11-.3s-.08.37.11.3h0Z"/>
            <path class="cls-24" d="M6.47,9.29c.19-.07.08-.37-.11-.3s-.08.37.11.3h0Z"/>
            <path class="cls-24" d="M7.3,10.23c.19-.07.08-.37-.11-.3s-.08.37.11.3h0Z"/>
            <path class="cls-24" d="M7.19,9.93h0c-.08.03-.12.13-.09.21s.12.12.21.09h.03c.08-.04.12-.13.09-.22s-.12-.12-.21-.09h-.03c-.08.04-.12.13-.09.22s.12.12.21.09h0c.08-.03.12-.13.09-.21s-.12-.12-.21-.09h0Z"/>
            <path class="cls-24" d="M7.87,10.29h.02c.08-.04.12-.13.09-.21s-.12-.12-.21-.09h-.02c-.08.04-.12.13-.09.21s.12.12.21.09h0Z"/>
            <path class="cls-24" d="M8.78,9.9v-.02c-.04-.08-.13-.12-.21-.09s-.12.12-.09.21v.02c.04.08.13.12.21.09s.12-.12.09-.21h0Z"/>
            <path class="cls-24" d="M9.68,9.53h.02c.08-.04.12-.13.09-.21s-.12-.12-.21-.09h-.02c-.08.04-.12.13-.09.21s.12.12.21.09h0Z"/>
            <path class="cls-24" d="M9.96,9.01h.04c.08-.05.12-.14.09-.22s-.12-.12-.21-.09h-.04c-.08.05-.12.14-.09.22s.12.12.21.09h0Z"/>
            <path class="cls-24" d="M10.26,8.37v-.02c-.04-.08-.13-.12-.21-.09s-.12.12-.09.21v.02c.04.08.13.12.21.09s.12-.12.09-.21h0Z"/>
            <path class="cls-24" d="M10.07,7.4c.19-.07.08-.37-.11-.3s-.08.37.11.3h0Z"/>
            <path class="cls-24" d="M10.07,7.4h.02c.08-.04.12-.13.09-.21s-.12-.12-.21-.09h-.02c-.08.04-.12.13-.09.21s.12.12.21.09h0Z"/>
            <path class="cls-24" d="M9.79,6.98c.19-.07.08-.37-.11-.3s-.08.37.11.3h0Z"/>
            <path class="cls-24" d="M9.59,6.55s0,0,.01,0c-.01,0-.03,0-.04,0,0,0,0,0,0,0-.01,0-.03,0-.04,0,0,0,0,0,0,0-.01,0-.03,0-.04-.01,0,0,0,0,0,0-.01,0-.02-.01-.03-.02,0,0,0,0,0,0,0-.01-.02-.02-.03-.03,0,0,0,0,0,0,0-.01-.01-.03-.02-.04,0,0,0,0,0,.01.03.08.12.12.21.09s.12-.12.09-.21c-.02-.05-.05-.08-.09-.11s-.09-.02-.14,0c-.08.03-.12.12-.09.21s.12.12.21.09h0Z"/>
          </g>
          <path class="cls-19" d="M9.6,2.02c-.31-.83-.74-1.55-1.67-1.77-.4-.09-.92-.06-1.29.08-.39.14-.72.46-1.12.52-.38.06-.8.05-1.16.27-.39.24-.75.65-.95,1.06-.42.87.02,1.59.33,2.41l-.03-.07s.02-.11.03-.2c.02-.12.04-.25.06-.37.03-.23.04-.48.12-.7.17-.47.65-.78,1.12-.86.22-.04.46-.05.68-.02.2.03.39.15.6.14.41-.02.62-.73.98-.89.42-.18,1.01-.24,1.44-.1.38.12.62.26.95,1.01-.01-.14-.06-.37-.11-.51Z"/>
          <path class="cls-12" d="M2.88,5.58c-.88.04-1.7.23-2.2,1.04-.21.35-.34.85-.32,1.25.02.41.21.83.15,1.23-.06.38-.2.78-.1,1.19.11.45.38.92.72,1.23.7.67,1.52.47,2.39.43h-.08s-.1-.05-.18-.09c-.11-.05-.22-.12-.34-.17-.21-.1-.44-.19-.63-.33-.4-.31-.54-.86-.47-1.34.03-.22.09-.45.19-.65.09-.19.26-.33.32-.53.11-.4-.5-.81-.54-1.21-.04-.45.09-1.03.35-1.4.23-.32.44-.51,1.26-.59-.13-.03-.37-.06-.52-.05Z"/>
          <path class="cls-11" d="M4,13.05c-.24.85-.31,1.69.31,2.41.26.31.7.59,1.09.7.4.11.85.06,1.21.24.34.17.68.43,1.1.46.46.03.99-.08,1.39-.3.85-.46.92-1.3,1.15-2.14l-.02.07s-.08.08-.15.15c-.09.09-.18.17-.27.27-.16.17-.31.36-.51.5-.42.28-.98.25-1.41.03-.2-.1-.4-.23-.56-.38-.15-.14-.23-.35-.4-.47-.35-.23-.93.23-1.32.14-.44-.1-.95-.4-1.23-.77-.23-.32-.35-.58-.18-1.38-.07.12-.17.33-.21.47Z"/>
          <path class="cls-10" d="M11.22,14.37c.74.49,1.51.82,2.39.45.37-.16.78-.49,1-.82.23-.34.32-.8.6-1.08.27-.27.62-.52.78-.9.17-.43.23-.97.15-1.42-.17-.95-.96-1.27-1.68-1.75l.06.04s.05.1.09.18c.06.11.11.23.17.34.11.21.25.41.31.64.14.48-.07,1.01-.41,1.36-.15.16-.34.31-.54.41-.18.1-.4.11-.57.24-.32.26-.07.95-.27,1.3-.23.39-.67.78-1.11.93-.37.12-.65.15-1.37-.26.09.1.26.27.39.35Z"/>
          <path class="cls-9" d="M14.89,7.76c.69-.55,1.24-1.18,1.17-2.13-.03-.4-.22-.89-.47-1.2-.26-.32-.66-.55-.84-.9-.17-.34-.3-.75-.62-1.02-.35-.3-.85-.52-1.3-.58-.96-.13-1.51.52-2.19,1.06l.06-.05s.11-.01.2-.03c.12-.02.25-.03.37-.06.23-.04.47-.11.7-.1.5.02.94.38,1.16.8.1.2.19.42.23.64.04.2-.02.42.05.61.15.39.89.36,1.15.66.3.34.54.88.54,1.34,0,.39-.06.67-.67,1.22.12-.06.34-.17.45-.26Z"/>
          <path class="cls-14" d="M4.42,2.09c.4-.36.79-.5,1.33-.54.62-.05,1.33-.34,1.62-.96.07-.14.08-.27.06-.39-.27,0-.54.05-.76.13-.39.14-.72.46-1.12.52-.38.06-.8.05-1.16.27-.39.24-.75.65-.95,1.06-.31.64-.15,1.2.08,1.77-.02-.19-.02-.38.04-.58.16-.52.47-.92.87-1.29Z"/>
          <path class="cls-14" d="M1.29,6.31l.02-.03c-.89.59-.37,1.92-.47,2.77-.04.31-.13,1.41.49.88.34-.29.25-.96.13-1.33-.14-.44-.32-.9-.23-1.36.09-.46.42-.76.64-1.15-.21-.12-.42.14-.58.22Z"/>
          <path class="cls-14" d="M5.38,14.95c-.34,0-.49-.21-.8-.31-.04.03-.02.05-.02.09l-.05.02c.1.3.44.6.75.67.22.06.96-.02.95-.34-.01-.36-.63-.13-.83-.13Z"/>
          <path class="cls-14" d="M12.03,2.21c-.1.06-.19.13-.14.22l.04.04c.03.12.41.08.57.12.27.08.42.28.58.51.14.21.31.53.63.43.26-.08.34-.37.27-.6-.18-.55-1.44-1.04-1.94-.73Z"/>
        </g>
        <g>
          <g>
            <path class="cls-22" d="M6.24,32.54c-.67,0-1.28-.05-1.84-.14-.5-.08-.96-.2-1.35-.36-.11-.04-.21-.08-.32-.13-.8-.38-1.35-.92-1.64-1.61-.62-1.48-.06-3.03,1.38-3.85.6-.35,1.3-.53,2.02-.53.15,0,.3,0,.45.02.42-1.71,1.83-2.97,3.39-2.97.73,0,1.42.27,1.99.79,2.61,2.36-.66,8.03-.8,8.27-.07.12-.2.21-.34.24-.06.01-1.38.26-2.95.26Z"/>
            <path class="cls-14" d="M8.34,23.47c.57,0,1.15.21,1.66.66,2.34,2.11-.9,7.65-.9,7.65,0,0-1.31.25-2.85.25-.57,0-1.18-.03-1.76-.13-.44-.07-.86-.18-1.25-.33-.1-.04-.19-.08-.28-.12,0,0,0,0-.02-.01-.62-.29-1.11-.72-1.37-1.34-.56-1.34.05-2.58,1.17-3.23.51-.29,1.12-.46,1.77-.46.28,0,.56.03.85.1,0,0,0,0,0-.01.21-1.78,1.58-3.03,2.99-3.03M8.34,22.47h0c-1.67,0-3.18,1.24-3.76,2.95-.03,0-.05,0-.08,0-.81,0-1.59.21-2.27.6-1.64.94-2.3,2.78-1.59,4.48.34.8.96,1.42,1.84,1.84.02,0,.03.02.05.02.12.06.23.1.36.15.42.16.9.29,1.44.38.58.1,1.23.14,1.92.14,1.62,0,2.99-.26,3.04-.27.28-.05.53-.23.67-.48.37-.64,3.56-6.32.7-8.9-.67-.6-1.48-.92-2.33-.92h0Z"/>
          </g>
          <path class="cls-15" d="M9.1,31.79s-2.46.47-4.61.12c-.44-.07-.86-.18-1.25-.33,2.18.53,4.36.65,5.27-.63,2.07-2.93.96-7.42-.92-7.01-1.79.39-2.21,2.38-2.24,2.56.3-2.5,2.88-3.96,4.65-2.37,2.34,2.11-.9,7.65-.9,7.65Z"/>
          <path class="cls-17" d="M9.12,31.77s-2.3.44-4.31.11c-.41-.07-.81-.17-1.17-.31-.09-.03-.18-.07-.26-.11,0,0,0,0-.02-.01-.58-.27-1.22-.78-1.46-1.35-.52-1.25-.03-2.22,1.02-2.82.67-.39,2.01-.47,2.92-.27,0,0,.21.31,0,0-.05-2.99,2.41-4.12,4.06-2.64,2.18,1.97-.78,7.4-.78,7.4Z"/>
          <g class="cls-16">
            <ellipse class="cls-14" cx="2.56" cy="29.38" rx=".91" ry=".47" transform="translate(-26.92 28.75) rotate(-83.81)"/>
            <path class="cls-14" d="M3.48,27.49c.25.09.34.36.2.6s-.46.35-.7.25-.34-.36-.2-.6.46-.35.7-.25Z"/>
            <path class="cls-14" d="M5.93,27.93c.41.53.46.53.96.12-.45.49-.45.55-.11,1.15-.41-.53-.46-.53-.96-.12.45-.49.45-.55.11-1.15Z"/>
            <path class="cls-14" d="M8.1,26.3c-.25.08-.26.1-.23.36-.07-.25-.09-.26-.34-.22.25-.08.26-.1.23-.36.07.25.09.26.34.22Z"/>
            <path class="cls-14" d="M7.99,24.39c-.03.43,0,.46.42.56-.43-.04-.46-.01-.56.41.03-.43,0-.46-.42-.56.43.04.46.01.56-.41Z"/>
            <path class="cls-14" d="M5.4,30.48c.18.23.2.23.41.05-.19.21-.2.24-.05.49-.18-.23-.2-.23-.41-.05.19-.21.2-.24.05-.49Z"/>
            <path class="cls-14" d="M8.47,28.87c.28.27.32.27.68-.03-.32.34-.33.38-.1.7-.28-.27-.32-.27-.68.03.32-.34.33-.38.1-.7Z"/>
          </g>
          <path class="cls-13" d="M10,24.14s-1.3-1.14-2.89-.19c-1.58.94-1.43,2.91-1.43,2.91-1.46-.42-3.48-.08-4.05,1.76-.53,1.72,1.09,2.72,1.3,2.84-.62-.29-1.11-.72-1.37-1.34-.56-1.34.05-2.58,1.17-3.23.72-.42,1.65-.59,2.62-.37,0,0,0,0,0-.01.3-2.5,2.88-3.96,4.65-2.37Z"/>
        </g>
      </g>
    </g>
  </g>
</svg>