<?xml version="1.0" encoding="UTF-8"?>
<svg xmlns="http://www.w3.org/2000/svg" xmlns:xlink="http://www.w3.org/1999/xlink" viewBox="0 0 12.33 10.13">
  <defs>
    <style>
      .cls-1, .cls-2 {
        fill: #fff;
      }

      .cls-1, .cls-3, .cls-4, .cls-5 {
        mix-blend-mode: overlay;
      }

      .cls-6 {
        isolation: isolate;
      }

      .cls-7 {
        fill: #d0a8ff;
      }

      .cls-3 {
        fill: #2b1d1d;
        opacity: .47;
      }

      .cls-5 {
        fill: url(#linear-gradient);
        opacity: .38;
      }
    </style>
    <linearGradient id="linear-gradient" x1="100.17" y1="160.27" x2="99.12" y2="167.52" gradientTransform="translate(-77.26 -167.36) rotate(5.62)" gradientUnits="userSpaceOnUse">
      <stop offset=".16" stop-color="#fafafa"/>
      <stop offset=".64" stop-color="#fafafa" stop-opacity="0"/>
    </linearGradient>
  </defs>
  <g class="cls-6">
    <g id="Layer_2" data-name="Layer 2">
      <g id="Layer_1-2" data-name="Layer 1">
        <g>
          <g>
            <path class="cls-7" d="M5.15,9.63c-.1,0-.21-.03-.29-.09-.09-.06-2.12-1.54-3.38-3.4-.29-.43-.51-.84-.67-1.23-.04-.11-.08-.21-.12-.32-.01-.03-.02-.07-.02-.1-.25-.75-.24-1.51.07-2.2C1.24,1.17,2.26.5,3.48.5c.34,0,.68.05,1.01.15.81.24,1.53.75,2.06,1.44.63-.36,1.35-.56,2.05-.56,1.83,0,3.19,1.25,3.23,2.98.08,3.52-6.29,5.03-6.57,5.1-.04,0-.08.01-.11.01Z"/>
            <path class="cls-2" d="M3.48,1c.29,0,.58.04.87.13.8.24,1.56.8,2.06,1.65,0,0,0,0,.01,0,.68-.5,1.45-.74,2.18-.74,1.43,0,2.69.92,2.73,2.5.07,3.15-6.18,4.6-6.18,4.6,0,0-2.04-1.47-3.25-3.27-.25-.37-.46-.75-.62-1.13-.04-.1-.08-.19-.11-.29,0,0,0,0,0-.02-.21-.65-.24-1.3.03-1.92.45-1.02,1.33-1.5,2.28-1.5M3.48,0C2.06,0,.87.78.28,2.09c-.35.79-.38,1.67-.08,2.6,0,.02,0,.04.02.05.04.12.08.24.14.36.17.41.41.86.71,1.31,1.3,1.93,3.41,3.46,3.5,3.52.17.12.38.19.58.19.08,0,.15,0,.23-.03.72-.17,7.04-1.74,6.95-5.59-.05-2.01-1.62-3.47-3.73-3.47-.65,0-1.31.15-1.92.43-.56-.61-1.26-1.06-2.04-1.3-.38-.11-.77-.17-1.16-.17h0Z"/>
          </g>
          <path class="cls-3" d="M5.15,9.13s-2.04-1.47-3.25-3.27c-.25-.37-.46-.75-.62-1.13,1.1,1.95,2.52,3.62,4.08,3.4,3.55-.5,6.05-4.39,4.47-5.48-1.51-1.04-3.25.03-3.41.13,2.03-1.5,4.85-.62,4.91,1.76.07,3.15-6.18,4.6-6.18,4.6Z"/>
          <path class="cls-5" d="M5.19,9.13s-1.9-1.37-3.04-3.05c-.23-.34-.43-.7-.58-1.06-.04-.09-.07-.18-.1-.27,0,0,0,0,0-.02-.2-.61-.27-1.42-.02-1.99.55-1.24,1.6-1.55,2.75-1.2.75.22,1.73,1.14,2.2,1.94,0,0-.08.37,0,0,2.14-2.09,4.65-1.08,4.71,1.15.07,2.94-5.92,4.51-5.92,4.51Z"/>
          <g class="cls-4">
            <ellipse class="cls-2" cx="2.42" cy="2.72" rx=".91" ry=".47" transform="translate(-1.15 2.01) rotate(-37.14)"/>
            <path class="cls-2" d="M4.42,2.09c.1.25-.03.49-.3.55s-.57-.09-.67-.34.03-.49.3-.55.57.09.67.34Z"/>
            <path class="cls-2" d="M5.79,4.18c-.1.66-.07.7.57.78-.67.01-.72.05-.91.7.1-.66.07-.7-.57-.78.67-.01.72-.05.91-.7Z"/>
            <path class="cls-2" d="M8.46,4.64c-.23-.12-.25-.12-.42.09.14-.22.13-.24-.08-.4.23.12.25.12.42-.09-.14.22-.13.24.08.4Z"/>
            <path class="cls-2" d="M9.77,3.25c-.34.28-.34.31-.12.69-.27-.34-.31-.35-.68-.12.34-.28.34-.31.12-.69.27.34.31.35.68.12Z"/>
            <path class="cls-2" d="M3.57,5.54c-.04.28-.03.3.25.34-.29,0-.31.02-.39.3.04-.28.03-.3-.25-.34.29,0,.31-.02.39-.3Z"/>
            <path class="cls-2" d="M6.84,6.67c0,.39.02.42.49.47-.47,0-.5.02-.57.41,0-.39-.02-.42-.49-.47.47,0,.5-.02.57-.41Z"/>
          </g>
          <path class="cls-1" d="M11.33,4.53s-.07-1.73-1.84-2.23c-1.77-.5-3.1.96-3.1.96-.69-1.35-2.33-2.59-4.05-1.74-1.61.8-1.23,2.66-1.17,2.89-.21-.65-.24-1.3.03-1.92.59-1.33,1.91-1.74,3.15-1.36.8.24,1.56.8,2.06,1.65,0,0,0,0,.01,0,2.03-1.5,4.85-.62,4.91,1.76Z"/>
        </g>
      </g>
    </g>
  </g>
</svg>